Project Version="3.0.2" TempoMode="FamiStudio" Name="parsec" Author="mcgrew"
	DPCMSample Name="BM Bass Drum" Data="5155112dadadaad55d5ad52fedffffe51510000000000051252aa52a52added5efeeefededdeedefeedadaad525aa512a2a52522251122525152a52d5555aa52aa52552aa5552d525552d52aaaad5adaadaaddadad5adadaad5ad5aa55552aaaa52aaa55552aa5555555aaad5555552d5555ad55555552aa55a52a55552555525552a55aa55555555aaaa55ad52ad52aaadaa55552aaaaaa5555552d555aaad55aad5aadaaad55aaad5555aaaaaaa55555552aaaa5555552aaaa5555552aa555255552aaaa555552aaad2aaad555aaaa"
	DPCMSample Name="BM Tom 1" Data="a5aa5aff0eaf125000000020f2ffffffffffffff5a52a000000000000002555affdeefffffffffffe5aaa510022100000000000555afddfefedfffffdff5eead21505a11102000100021025aaafeefefffedaeffafddf5aea5150051000000010055ed2f5adad2effafffffded1ef51d10022a111102a02225a51d1525a5e5dd5dfeefffffeee5551505521021100a0100a1521a5fdaf2dfdaff5afeffdefadd5502521000210505102d11a2552eaaeafeafffafffdeeafd2d22a05a0501500202105505a5eaaeefaaf5de5fadfdf55f2d5aa0f0d502500a010220522552add55efdefdefedef5df22f12d512525110222025022a5aaad2d5af2faeddedeadeafadaaa52d155251a2250155150151d12d1ad52ed2dd5fdafdafedd555552d12a552a520a212250525515aaaaed2deadeedddf2ef5aad5a5551251251a2222512512a555d2dd2dadaf5af2af2ddaaadad52e25a2d25522a52a2aa1522aaaaaad25d25ad2aed5ae5edafaed5ad5aaad2ad112251025051150552adaad5ad2fdaefddddd2eead2d55255151250a511122a5252aaaaaadaddddaafa5ed5d5a55aa2f5151551521a52a52552aaa552aaaad5adadadadd2daae52e555525a52d15552a5552aa5552aa5ad2d5555a5ad2d5555552aadaaada55aaad5555555552aa55552552a5525555552affffffffffffffff"
	DPCMSample Name="BM Tom 2" Data="a5aaaa5a5ffff5100000000fffffff2fa00fff5f000f50000010f00002dffffffd50a50eefa5efffffff0002a5000000005001adfffffffffe251105dad52dfd52510000005a02e5ef25daeffffffdaa51aa20005efa055d001010ee50deaaeeaeffeeeff52d5525220112505555502d11155aadeddffeedee55d515aaa11222111152a5255fa1ea522ad55affdfffd512ed51225010101512a5d52aef55ded2ad55a52efdefd555512252222501222522dddd2daeedddaddda2aaaa5addd555111002512512aad2aeaaafdadafedaddae50a52aa512eadaa5000212a2aadadaeedaedaefd5555aada52522ad25102ad55da000555aaadddafdeedaddad525512aaa5115122a52ea255555a512aadafdddafdd5a5555aaaa2122522222aa55ad2aad5adad552d555afefd5ad52a225555122251252aa52aaadaddadadad2daaaad55ded55aa5251111125225a5555aaad555ddadaedaaadaaaa55555aad525122511111adaa5555adaddadad5aedad555aa51252d55552a5251111252ad5aeedaed5ad5daaad5aeaaa55252551252aa555252a55225aad5dafddddaaad52d5aa52a525252555252552aaaaaa55555555aeeeeedaed552a552552a525251525252aaadaad5aad5552dadaadadddad5aa525251122552aa55255552ad555adddad5aadaaaa55aadad55255525112252555"
	DPCMSample Name="NG Bass Drum" Data="9a719699a3699699f9889d9b99cd66dacab0b344cb711c833cf8070001f807c01fc00342f687185ff3a5eb3f93dfbfe4bdf97d8bb737f37c9cf91ca5139766996a54624449c1129178046a3202330b461a9391615a145b2699cc64e51695ab95e31c6b99cbcb99e669d66c369bcba939dbb872b95c4e2da793e5a9e1cc65b15a5539a9b552ab5255995956e5645a5959665655555599558e656999b29c2c479333d5545559a6a6cac9d44c5699e5a89acaaa2653d358a5a92c4d65a93295c5cc94a92a5395692acb325355d53835d5d2acaa6596abd4ac955935abaa5655b5aaaa5a5535abaa6a565555b5aaaa9aa965595555555555555555559665666aaaaa"
	DPCMMapping Note="C1" Sample="BM Bass Drum" Pitch="15" Loop="False"
	DPCMMapping Note="C#1" Sample="BM Tom 1" Pitch="15" Loop="False"
	DPCMMapping Note="D1" Sample="BM Tom 2" Pitch="15" Loop="False"
	DPCMMapping Note="D#1" Sample="BM Tom 2" Pitch="14" Loop="False"
	DPCMMapping Note="E1" Sample="BM Tom 2" Pitch="12" Loop="False"
	DPCMMapping Note="F1" Sample="NG Bass Drum" Pitch="15" Loop="False"
	Instrument Name="AF Bass"
		Envelope Type="Volume" Length="10" Values="15,15,15,15,15,15,15,15,15,0"
		Envelope Type="Pitch" Length="16" Loop="0" Values="0,0,1,1,2,2,1,1,0,0,-1,-1,-2,-2,-1,-1"
	Instrument Name="AF Hall Brass"
		Envelope Type="Volume" Length="36" Loop="20" Values="6,8,10,12,0,0,0,0,0,0,0,0,0,0,0,0,4,6,8,10,0,0,0,0,0,0,0,0,0,0,0,0,2,4,6,8"
		Envelope Type="DutyCycle" Length="1" Values="1"
	Instrument Name="AF Maracas"
		Envelope Type="Volume" Length="29" Values="7,7,6,5,2,0,0,0,3,3,2,1,0,0,0,0,3,3,2,1,0,0,0,0,3,3,2,1,0"
	Instrument Name="AF Noise"
		Envelope Type="Volume" Length="1" Values="6"
	Instrument Name="AF Synth Brass"
		Envelope Type="Volume" Length="6" Loop="3" Release="4" Values="6,9,12,15,9,3"
		Envelope Type="Pitch" Length="16" Loop="0" Values="0,0,1,1,2,2,1,1,0,0,-1,-1,-2,-2,-1,-1"
	Instrument Name="AF Synth Brass Echo"
		Envelope Type="Volume" Length="6" Loop="3" Release="4" Values="4,6,8,10,6,3"
		Envelope Type="Pitch" Length="16" Loop="0" Values="0,0,1,1,2,2,1,1,0,0,-1,-1,-2,-2,-1,-1"
	Instrument Name="BM Echo"
		Envelope Type="Volume" Length="1" Values="5"
		Envelope Type="Pitch" Length="21" Loop="5" Values="1,1,1,1,1,1,1,0,0,-1,-1,-2,-2,-3,-3,-2,-2,-1,-1,0,0"
		Envelope Type="DutyCycle" Length="1" Values="1"
	Instrument Name="BM Lead"
		Envelope Type="Volume" Length="12" Values="3,10,10,10,10,9,9,1,5,4,4,3"
		Envelope Type="Pitch" Length="23" Loop="7" Values="1,1,1,1,1,1,1,0,0,1,1,2,2,3,3,2,2,1,1,0,0,-1,-1"
		Envelope Type="DutyCycle" Length="1" Values="1"
	Instrument Name="BM Lead Alt"
		Envelope Type="Volume" Length="11" Values="3,9,9,9,8,8,1,5,4,4,3"
		Envelope Type="Pitch" Length="23" Loop="7" Values="1,1,1,1,1,1,1,0,0,1,1,2,2,3,3,2,2,1,1,0,0,-1,-1"
		Envelope Type="DutyCycle" Length="1" Values="1"
	Instrument Name="BM Lead Fade"
		Envelope Type="Volume" Length="5" Values="1,5,4,4,3"
		Envelope Type="Pitch" Length="20" Loop="0" Values="0,0,1,1,2,2,3,3,2,2,1,1,0,0,-1,-1,-2,-2,-1,-1"
		Envelope Type="DutyCycle" Length="1" Values="1"
	Instrument Name="BM Lead Quick"
		Envelope Type="Volume" Length="7" Loop="0" Values="4,9,9,9,1,5,4"
		Envelope Type="Pitch" Length="23" Loop="7" Values="1,1,1,1,1,1,1,0,0,1,1,2,2,3,3,2,2,1,1,0,0,-1,-1"
		Envelope Type="DutyCycle" Length="1" Values="1"
	Instrument Name="BM Lead Quick Loud"
		Envelope Type="Volume" Length="7" Loop="0" Values="4,10,10,10,1,5,4"
		Envelope Type="Pitch" Length="23" Loop="7" Values="1,1,1,1,1,1,1,0,0,1,1,2,2,3,3,2,2,1,1,0,0,-1,-1"
		Envelope Type="DutyCycle" Length="1" Values="1"
	Instrument Name="BM Lead Rise"
		Envelope Type="Volume" Length="9" Values="5,5,5,6,6,7,7,8,8"
		Envelope Type="Pitch" Length="23" Loop="7" Values="1,1,1,1,1,1,1,0,0,1,1,2,2,3,3,2,2,1,1,0,0,-1,-1"
		Envelope Type="DutyCycle" Length="1" Values="1"
	Instrument Name="BM Lead SteadyVol"
		Envelope Type="Volume" Length="10" Values="8,10,10,10,10,9,9,9,9,8"
		Envelope Type="Pitch" Length="23" Loop="7" Values="1,1,1,1,1,1,1,0,0,1,1,2,2,3,3,2,2,1,1,0,0,-1,-1"
		Envelope Type="DutyCycle" Length="1" Values="1"
	Instrument Name="BM Lead Sustain"
		Envelope Type="Volume" Length="10" Values="9,9,9,9,9,8,8,8,8,7"
		Envelope Type="Pitch" Length="23" Loop="7" Values="1,1,1,1,1,1,1,0,0,1,1,2,2,3,3,2,2,1,1,0,0,-1,-1"
		Envelope Type="DutyCycle" Length="1" Values="1"
	Instrument Name="BM Maracas"
		Envelope Type="Volume" Length="28" Values="5,5,4,3,1,0,0,3,3,2,1,0,0,0,7,7,6,5,2,1,1,3,3,2,2,1,0,0"
	Instrument Name="BM Snare"
		Envelope Type="Volume" Length="5" Values="7,6,5,4,3"
	Instrument Name="BM Tri"
	Instrument Name="BM TriPitch1"
		Envelope Type="Pitch" Length="1" Values="1"
	Instrument Name="FP Lead1"
		Envelope Type="Volume" Length="4" Values="12,10,8,6"
		Envelope Type="DutyCycle" Length="1" Values="1"
	Instrument Name="FP Lead2"
		Envelope Type="Volume" Length="4" Values="8,12,12,8"
		Envelope Type="DutyCycle" Length="1" Values="2"
	Instrument Name="FP NoiseBassDrum"
		Envelope Type="Volume" Length="6" Values="15,12,9,6,3,0"
		Envelope Type="DutyCycle" Length="1" Values="1"
	Instrument Name="FP NoiseCrash"
		Envelope Type="Volume" Length="30" Values="8,9,10,10,10,9,9,8,8,7,7,6,6,5,5,5,4,4,4,3,3,3,2,2,2,2,1,1,1,0"
	Instrument Name="FP NoiseHiHat"
		Envelope Type="Volume" Length="6" Values="8,6,5,4,2,0"
	Instrument Name="FP NoiseSnare"
		Envelope Type="Volume" Length="6" Values="7,7,7,7,7,0"
	Instrument Name="FP TriBass"
	Instrument Name="NP Lead0"
		Envelope Type="Volume" Length="4" Values="12,10,8,6"
	Instrument Name="NP Lead0 Vib"
		Envelope Type="Volume" Length="15" Loop="3" Release="4" Values="12,10,8,6,5,5,4,4,3,3,2,2,1,1,0"
		Envelope Type="Pitch" Length="12" Loop="0" Values="0,0,1,1,2,2,3,3,2,2,1,1"
	Instrument Name="NP Lead1 B"
		Envelope Type="Volume" Length="45" Loop="8" Release="9" Values="15,13,11,10,9,8,7,6,6,4,3,2,1,0,0,0,0,0,2,4,6,5,4,3,2,1,0,0,1,3,5,4,3,2,1,0,0,0,0,2,4,3,2,1,0"
		Envelope Type="DutyCycle" Length="1" Values="1"
	Instrument Name="NP Lead1 Vib"
		Envelope Type="Volume" Length="4" Values="12,10,8,6"
		Envelope Type="Pitch" Length="12" Loop="0" Values="0,0,1,1,2,2,3,3,2,2,1,1"
		Envelope Type="DutyCycle" Length="1" Values="1"
	Instrument Name="NP Lead2 P-2"
		Envelope Type="Volume" Length="1" Values="10"
		Envelope Type="Pitch" Length="1" Values="-2"
		Envelope Type="DutyCycle" Length="1" Values="2"
	Instrument Name="NP NoiseHiHat"
		Envelope Type="Volume" Length="6" Values="5,4,3,2,1,0"
	Instrument Name="NP Rhythm 1"
		Envelope Type="Volume" Length="4" Values="9,7,5,4"
		Envelope Type="DutyCycle" Length="1" Values="1"
	Instrument Name="NP Rhythm Mute"
		Envelope Type="Volume" Length="11" Values="14,13,11,9,7,3,3,2,2,1,0"
		Envelope Type="DutyCycle" Length="1" Values="1"
	Song Name="Danger and Determination" Length="24" LoopPoint="0" PatternLength="16" BeatLength="4" NoteLength="10" Groove="10" GroovePaddingMode="Middle"
		Channel Type="Square1"
			Pattern Name="Pattern 1"
				Note Time="0" Value="B1" Duration="20" Instrument="NP Rhythm 1"
				Note Time="20" Value="B1" Duration="10" Instrument="NP Rhythm Mute"
				Note Time="30" Value="B1" Duration="10" Instrument="NP Rhythm Mute"
				Note Time="40" Value="B1" Duration="10" Instrument="NP Rhythm Mute"
				Note Time="50" Value="B1" Duration="10" Instrument="NP Rhythm Mute"
				Note Time="60" Value="B1" Duration="10" Instrument="NP Rhythm Mute"
				Note Time="70" Value="B1" Duration="30" Instrument="NP Rhythm 1"
				Note Time="100" Value="B1" Duration="10" Instrument="NP Rhythm Mute"
				Note Time="110" Value="B1" Duration="10" Instrument="NP Rhythm Mute"
				Note Time="120" Value="B1" Duration="10" Instrument="NP Rhythm Mute"
				Note Time="130" Value="B1" Duration="10" Instrument="NP Rhythm Mute"
				Note Time="140" Value="B1" Duration="10" Instrument="NP Rhythm Mute"
				Note Time="150" Value="B1" Duration="30" Instrument="NP Rhythm 1"
			Pattern Name="Pattern 2"
				Note Time="20" Value="B1" Duration="10" Instrument="NP Rhythm Mute"
				Note Time="30" Value="B1" Duration="10" Instrument="NP Rhythm Mute"
				Note Time="40" Value="B1" Duration="10" Instrument="NP Rhythm Mute"
				Note Time="50" Value="B1" Duration="10" Instrument="NP Rhythm Mute"
				Note Time="60" Value="B1" Duration="10" Instrument="NP Rhythm Mute"
				Note Time="70" Value="A2" Duration="20" Instrument="NP Rhythm 1"
				Note Time="90" Value="G2" Duration="20" Instrument="NP Rhythm 1"
				Note Time="110" Value="F#2" Duration="20" Instrument="NP Rhythm 1"
				Note Time="130" Value="D2" Duration="30" Instrument="NP Rhythm 1"
			PatternInstance Time="0" Pattern="Pattern 1"
			PatternInstance Time="1" Pattern="Pattern 2"
			PatternInstance Time="2" Pattern="Pattern 1"
			PatternInstance Time="3" Pattern="Pattern 2"
			PatternInstance Time="4" Pattern="Pattern 1"
			PatternInstance Time="5" Pattern="Pattern 2"
			PatternInstance Time="6" Pattern="Pattern 1"
			PatternInstance Time="7" Pattern="Pattern 2"
			PatternInstance Time="8" Pattern="Pattern 1"
			PatternInstance Time="9" Pattern="Pattern 2"
			PatternInstance Time="10" Pattern="Pattern 1"
			PatternInstance Time="11" Pattern="Pattern 2"
			PatternInstance Time="12" Pattern="Pattern 1"
			PatternInstance Time="13" Pattern="Pattern 2"
			PatternInstance Time="14" Pattern="Pattern 1"
			PatternInstance Time="15" Pattern="Pattern 2"
			PatternInstance Time="16" Pattern="Pattern 1"
			PatternInstance Time="17" Pattern="Pattern 2"
			PatternInstance Time="18" Pattern="Pattern 1"
			PatternInstance Time="19" Pattern="Pattern 2"
			PatternInstance Time="20" Pattern="Pattern 1"
			PatternInstance Time="21" Pattern="Pattern 2"
			PatternInstance Time="22" Pattern="Pattern 1"
			PatternInstance Time="23" Pattern="Pattern 2"
		Channel Type="Square2"
			Pattern Name="Pattern 1"
				Note Time="0" Value="E1" Duration="20" Instrument="NP Rhythm 1"
				Note Time="20" Value="E1" Duration="10" Instrument="NP Rhythm Mute"
				Note Time="30" Value="E1" Duration="10" Instrument="NP Rhythm Mute"
				Note Time="40" Value="E1" Duration="10" Instrument="NP Rhythm Mute"
				Note Time="50" Value="E1" Duration="10" Instrument="NP Rhythm Mute"
				Note Time="60" Value="E1" Duration="10" Instrument="NP Rhythm Mute"
				Note Time="70" Value="E1" Duration="30" Instrument="NP Rhythm 1"
				Note Time="100" Value="E1" Duration="10" Instrument="NP Rhythm Mute"
				Note Time="110" Value="E1" Duration="10" Instrument="NP Rhythm Mute"
				Note Time="120" Value="E1" Duration="10" Instrument="NP Rhythm Mute"
				Note Time="130" Value="E1" Duration="10" Instrument="NP Rhythm Mute"
				Note Time="140" Value="E1" Duration="10" Instrument="NP Rhythm Mute"
				Note Time="150" Value="E1" Duration="30" Instrument="NP Rhythm 1"
			Pattern Name="Pattern 2"
				Note Time="20" Value="E1" Duration="10" Instrument="NP Rhythm Mute"
				Note Time="30" Value="E1" Duration="10" Instrument="NP Rhythm Mute"
				Note Time="40" Value="E1" Duration="10" Instrument="NP Rhythm Mute"
				Note Time="50" Value="E1" Duration="10" Instrument="NP Rhythm Mute"
				Note Time="60" Value="E1" Duration="10" Instrument="NP Rhythm Mute"
				Note Time="70" Value="D2" Duration="20" Instrument="NP Rhythm 1"
				Note Time="90" Value="C2" Duration="20" Instrument="NP Rhythm 1"
				Note Time="110" Value="B1" Duration="20" Instrument="NP Rhythm 1"
				Note Time="130" Value="G1" Duration="30" Instrument="NP Rhythm 1"
			Pattern Name="Pattern 3"
				Note Time="0" Value="E3" Duration="40" Instrument="NP Lead1 B"
				Note Time="40" Value="G3" Duration="10" Instrument="NP Lead1 B"
				Note Time="50" Value="A3" Duration="10" Instrument="NP Lead1 B"
				Note Time="60" Value="B3" Duration="10" Instrument="NP Lead1 B"
				Note Time="70" Value="A3" Duration="20" Instrument="NP Lead1 B"
				Note Time="90" Value="G3" Duration="20" Instrument="NP Lead1 B"
				Note Time="110" Value="F#3" Duration="20" Instrument="NP Lead1 B"
				Note Time="130" Value="E3" Duration="20" Instrument="NP Lead1 B"
				Note Time="150" Value="D3" Duration="20" Instrument="NP Lead1 B"
			Pattern Name="Pattern 6"
				Note Time="10" Value="D3" Duration="30" Instrument="NP Lead1 B"
				Note Time="40" Value="C3" Duration="20" Instrument="NP Lead1 B"
				Note Time="60" Value="C3" Duration="10" Instrument="NP Lead1 B"
				Note Time="70" Value="E3" Duration="90" Release="20" Instrument="NP Lead1 B"
			Pattern Name="Pattern 7"
				Note Time="0" Value="E3" Duration="40" Instrument="NP Lead1 B"
				Note Time="40" Value="B3" Duration="20" Instrument="NP Lead1 B"
				Note Time="60" Value="A3" Duration="10" Instrument="NP Lead1 B"
				Note Time="70" Value="G3" Duration="20" Instrument="NP Lead1 B"
				Note Time="90" Value="F#3" Duration="20" Instrument="NP Lead1 B"
				Note Time="110" Value="G3" Duration="20" Instrument="NP Lead1 B"
				Note Time="130" Value="A3" Duration="30" Instrument="NP Lead1 B"
			Pattern Name="Pattern 8"
				Note Time="0" Value="F#3" Duration="20" Instrument="NP Lead1 B"
				Note Time="20" Value="F#3" Duration="10" Instrument="NP Lead1 B"
				Note Time="30" Value="F#3" Duration="10" Instrument="NP Lead1 B"
				Note Time="40" Value="D3" Duration="20" Instrument="NP Lead1 B"
				Note Time="60" Value="D3" Duration="10" Instrument="NP Lead1 B"
				Note Time="70" Value="E3" Duration="90" Release="20" Instrument="NP Lead1 B"
			Pattern Name="Pattern 4"
				Note Time="0" Value="B3" Duration="40" Release="10" Instrument="NP Lead1 B"
				Note Time="40" Value="A3" Duration="40" Release="10" Instrument="NP Lead1 B"
				Note Time="80" Value="G3" Duration="40" Release="10" Instrument="NP Lead1 B"
				Note Time="120" Value="D3" Duration="20" Instrument="NP Lead1 B"
				Note Time="140" Value="E3" Duration="20" Instrument="NP Lead1 B"
			Pattern Name="Pattern 5"
				Note Time="0" Value="G3" Duration="20" Instrument="NP Lead1 B"
				Note Time="20" Value="A3" Duration="30" Release="10" Instrument="NP Lead1 B"
				Note Time="50" Value="D3" Duration="20" Release="10" Instrument="NP Lead1 B"
				Note Time="70" Value="D3" Duration="90" Release="20" Instrument="NP Lead1 B"
			Pattern Name="Pattern 9"
				Note Time="0" Value="G3" Duration="40" Release="10" Instrument="NP Lead1 B"
				Note Time="40" Value="C3" Duration="20" Release="10" Instrument="NP Lead1 B"
				Note Time="60" Value="C3" Duration="80" Release="20" Instrument="NP Lead1 B"
				Note Time="140" Value="G2" Duration="10" Instrument="NP Lead1 B"
				Note Time="150" Value="A2" Duration="20" Instrument="NP Lead1 B"
			Pattern Name="Pattern 10"
				Note Time="10" Value="C3" Duration="20" Instrument="NP Lead1 B"
				Note Time="30" Value="D3" Duration="20" Instrument="NP Lead1 B"
				Note Time="50" Value="E3" Duration="20" Instrument="NP Lead1 B"
				Note Time="70" Value="D3" Duration="90" Release="20" Instrument="NP Lead1 B"
			Pattern Name="Pattern 11"
				Note Time="10" Value="C3" Duration="20" Instrument="NP Lead1 B"
				Note Time="30" Value="G3" Duration="20" Instrument="NP Lead1 B"
				Note Time="50" Value="E3" Duration="20" Instrument="NP Lead1 B"
				Note Time="70" Value="D3" Duration="90" Release="20" Instrument="NP Lead1 B"
			PatternInstance Time="0" Pattern="Pattern 1"
			PatternInstance Time="1" Pattern="Pattern 2"
			PatternInstance Time="2" Pattern="Pattern 1"
			PatternInstance Time="3" Pattern="Pattern 2"
			PatternInstance Time="4" Pattern="Pattern 3"
			PatternInstance Time="5" Pattern="Pattern 6"
			PatternInstance Time="6" Pattern="Pattern 7"
			PatternInstance Time="7" Pattern="Pattern 8"
			PatternInstance Time="8" Pattern="Pattern 3"
			PatternInstance Time="9" Pattern="Pattern 6"
			PatternInstance Time="10" Pattern="Pattern 7"
			PatternInstance Time="11" Pattern="Pattern 8"
			PatternInstance Time="12" Pattern="Pattern 1"
			PatternInstance Time="13" Pattern="Pattern 2"
			PatternInstance Time="14" Pattern="Pattern 1"
			PatternInstance Time="15" Pattern="Pattern 2"
			PatternInstance Time="16" Pattern="Pattern 4"
			PatternInstance Time="17" Pattern="Pattern 5"
			PatternInstance Time="18" Pattern="Pattern 9"
			PatternInstance Time="19" Pattern="Pattern 10"
			PatternInstance Time="20" Pattern="Pattern 4"
			PatternInstance Time="21" Pattern="Pattern 5"
			PatternInstance Time="22" Pattern="Pattern 9"
			PatternInstance Time="23" Pattern="Pattern 11"
		Channel Type="Triangle"
			Pattern Name="Pattern 1"
				Note Time="0" Value="E2" Duration="19" Instrument="FP TriBass"
				Note Time="20" Value="E2" Duration="4" Instrument="FP TriBass"
				Note Time="30" Value="E2" Duration="4" Instrument="FP TriBass"
				Note Time="40" Value="E2" Duration="4" Instrument="FP TriBass"
				Note Time="50" Value="E2" Duration="4" Instrument="FP TriBass"
				Note Time="60" Value="E2" Duration="4" Instrument="FP TriBass"
				Note Time="70" Value="E2" Duration="29" Instrument="FP TriBass"
				Note Time="100" Value="E2" Duration="4" Instrument="FP TriBass"
				Note Time="110" Value="E2" Duration="4" Instrument="FP TriBass"
				Note Time="120" Value="E2" Duration="4" Instrument="FP TriBass"
				Note Time="130" Value="E2" Duration="4" Instrument="FP TriBass"
				Note Time="140" Value="E2" Duration="5" Instrument="FP TriBass"
				Note Time="150" Value="E2" Duration="29" Instrument="FP TriBass"
			Pattern Name="Pattern 2"
				Note Time="20" Value="E2" Duration="4" Instrument="FP TriBass"
				Note Time="30" Value="E2" Duration="4" Instrument="FP TriBass"
				Note Time="40" Value="E2" Duration="4" Instrument="FP TriBass"
				Note Time="50" Value="E2" Duration="4" Instrument="FP TriBass"
				Note Time="60" Value="E2" Duration="4" Instrument="FP TriBass"
				Note Time="70" Value="D3" Duration="20" Instrument="FP TriBass"
				Note Time="90" Value="C3" Duration="20" Instrument="FP TriBass"
				Note Time="110" Value="B2" Duration="20" Instrument="FP TriBass"
				Note Time="130" Value="G2" Duration="29" Instrument="FP TriBass"
			PatternInstance Time="0" Pattern="Pattern 1"
			PatternInstance Time="1" Pattern="Pattern 2"
			PatternInstance Time="2" Pattern="Pattern 1"
			PatternInstance Time="3" Pattern="Pattern 2"
			PatternInstance Time="4" Pattern="Pattern 1"
			PatternInstance Time="5" Pattern="Pattern 2"
			PatternInstance Time="6" Pattern="Pattern 1"
			PatternInstance Time="7" Pattern="Pattern 2"
			PatternInstance Time="8" Pattern="Pattern 1"
			PatternInstance Time="9" Pattern="Pattern 2"
			PatternInstance Time="10" Pattern="Pattern 1"
			PatternInstance Time="11" Pattern="Pattern 2"
			PatternInstance Time="12" Pattern="Pattern 1"
			PatternInstance Time="13" Pattern="Pattern 2"
			PatternInstance Time="14" Pattern="Pattern 1"
			PatternInstance Time="15" Pattern="Pattern 2"
			PatternInstance Time="16" Pattern="Pattern 1"
			PatternInstance Time="17" Pattern="Pattern 2"
			PatternInstance Time="18" Pattern="Pattern 1"
			PatternInstance Time="19" Pattern="Pattern 2"
			PatternInstance Time="20" Pattern="Pattern 1"
			PatternInstance Time="21" Pattern="Pattern 2"
			PatternInstance Time="22" Pattern="Pattern 1"
			PatternInstance Time="23" Pattern="Pattern 2"
		Channel Type="Noise"
			Pattern Name="Pattern 1"
				Note Time="0" Value="C2" Duration="10" Instrument="NP NoiseHiHat"
				Note Time="10" Value="C2" Duration="10" Instrument="NP NoiseHiHat"
				Note Time="20" Value="C2" Duration="10" Instrument="NP NoiseHiHat"
				Note Time="30" Value="C2" Duration="10" Instrument="NP NoiseHiHat"
				Note Time="40" Value="C2" Duration="10" Instrument="NP NoiseHiHat"
				Note Time="50" Value="C2" Duration="10" Instrument="NP NoiseHiHat"
				Note Time="60" Value="C2" Duration="10" Instrument="NP NoiseHiHat"
				Note Time="70" Value="C2" Duration="10" Instrument="NP NoiseHiHat"
				Note Time="80" Value="C2" Duration="10" Instrument="NP NoiseHiHat"
				Note Time="90" Value="C2" Duration="10" Instrument="NP NoiseHiHat"
				Note Time="100" Value="C2" Duration="10" Instrument="NP NoiseHiHat"
				Note Time="110" Value="C2" Duration="10" Instrument="NP NoiseHiHat"
				Note Time="120" Value="C2" Duration="10" Instrument="NP NoiseHiHat"
				Note Time="130" Value="C2" Duration="10" Instrument="NP NoiseHiHat"
				Note Time="140" Value="C2" Duration="10" Instrument="NP NoiseHiHat"
				Note Time="150" Value="C2" Duration="10" Instrument="NP NoiseHiHat"
			Pattern Name="Pattern 2"
				Note Time="0" Value="C2" Duration="10" Instrument="NP NoiseHiHat"
				Note Time="10" Value="C2" Duration="10" Instrument="NP NoiseHiHat"
				Note Time="20" Value="C2" Duration="10" Instrument="NP NoiseHiHat"
				Note Time="30" Value="C2" Duration="10" Instrument="NP NoiseHiHat"
				Note Time="40" Value="C2" Duration="10" Instrument="NP NoiseHiHat"
				Note Time="50" Value="C2" Duration="10" Instrument="NP NoiseHiHat"
				Note Time="60" Value="C2" Duration="10" Instrument="NP NoiseHiHat"
				Note Time="70" Value="C2" Duration="10" Instrument="NP NoiseHiHat"
				Note Time="80" Value="C2" Duration="10" Instrument="NP NoiseHiHat"
				Note Time="90" Value="C2" Duration="10" Instrument="NP NoiseHiHat"
				Note Time="100" Value="C2" Duration="10" Instrument="NP NoiseHiHat"
				Note Time="110" Value="C2" Duration="5" Instrument="NP NoiseHiHat"
				Note Time="115" Value="C2" Duration="5" Instrument="NP NoiseHiHat"
				Note Time="120" Value="C2" Duration="10" Instrument="NP NoiseHiHat"
				Note Time="130" Value="C#2" Duration="20" Instrument="FP NoiseCrash"
				Note Time="150" Value="C2" Duration="10" Instrument="NP NoiseHiHat"
			PatternInstance Time="0" Pattern="Pattern 1"
			PatternInstance Time="1" Pattern="Pattern 1"
			PatternInstance Time="2" Pattern="Pattern 1"
			PatternInstance Time="3" Pattern="Pattern 1"
			PatternInstance Time="4" Pattern="Pattern 1"
			PatternInstance Time="5" Pattern="Pattern 1"
			PatternInstance Time="6" Pattern="Pattern 1"
			PatternInstance Time="7" Pattern="Pattern 2"
			PatternInstance Time="8" Pattern="Pattern 1"
			PatternInstance Time="9" Pattern="Pattern 1"
			PatternInstance Time="10" Pattern="Pattern 1"
			PatternInstance Time="11" Pattern="Pattern 2"
			PatternInstance Time="12" Pattern="Pattern 1"
			PatternInstance Time="13" Pattern="Pattern 1"
			PatternInstance Time="14" Pattern="Pattern 1"
			PatternInstance Time="15" Pattern="Pattern 1"
			PatternInstance Time="16" Pattern="Pattern 1"
			PatternInstance Time="17" Pattern="Pattern 1"
			PatternInstance Time="18" Pattern="Pattern 1"
			PatternInstance Time="19" Pattern="Pattern 2"
			PatternInstance Time="20" Pattern="Pattern 1"
			PatternInstance Time="21" Pattern="Pattern 1"
			PatternInstance Time="22" Pattern="Pattern 1"
			PatternInstance Time="23" Pattern="Pattern 2"
		Channel Type="DPCM"
			Pattern Name="Pattern 1"
				Note Time="0" Value="F1" Duration="40"
				Note Time="40" Value="F1" Duration="40"
				Note Time="80" Value="F1" Duration="40"
				Note Time="120" Value="F1" Duration="40"
			Pattern Name="Pattern 3"
				Note Time="0" Value="F1" Duration="40"
				Note Time="40" Value="F1" Duration="40"
				Note Time="80" Value="F1" Duration="20"
				Note Time="100" Value="D1" Duration="10"
				Note Time="110" Value="D#1" Duration="5"
				Note Time="115" Value="D#1" Duration="5"
				Note Time="120" Value="E1" Duration="40"
			PatternInstance Time="0" Pattern="Pattern 1"
			PatternInstance Time="1" Pattern="Pattern 1"
			PatternInstance Time="2" Pattern="Pattern 1"
			PatternInstance Time="3" Pattern="Pattern 1"
			PatternInstance Time="4" Pattern="Pattern 1"
			PatternInstance Time="5" Pattern="Pattern 1"
			PatternInstance Time="6" Pattern="Pattern 1"
			PatternInstance Time="7" Pattern="Pattern 3"
			PatternInstance Time="8" Pattern="Pattern 1"
			PatternInstance Time="9" Pattern="Pattern 1"
			PatternInstance Time="10" Pattern="Pattern 1"
			PatternInstance Time="11" Pattern="Pattern 3"
			PatternInstance Time="12" Pattern="Pattern 1"
			PatternInstance Time="13" Pattern="Pattern 1"
			PatternInstance Time="14" Pattern="Pattern 1"
			PatternInstance Time="15" Pattern="Pattern 1"
			PatternInstance Time="16" Pattern="Pattern 1"
			PatternInstance Time="17" Pattern="Pattern 1"
			PatternInstance Time="18" Pattern="Pattern 1"
			PatternInstance Time="19" Pattern="Pattern 3"
			PatternInstance Time="20" Pattern="Pattern 1"
			PatternInstance Time="21" Pattern="Pattern 1"
			PatternInstance Time="22" Pattern="Pattern 1"
			PatternInstance Time="23" Pattern="Pattern 3"
	Song Name="On the Hunt" Length="31" LoopPoint="1" PatternLength="12" BeatLength="4" NoteLength="10" Groove="10" GroovePaddingMode="Middle"
		Channel Type="Square1"
			Pattern Name="Pattern 1"
				Note Time="0" Value="F2" Duration="30" Instrument="FP Lead1"
				Note Time="30" Value="C3" Duration="20" Instrument="FP Lead1"
				Note Time="50" Value="B2" Duration="10" Instrument="FP Lead1"
				Note Time="60" Value="A#2" Duration="40" Instrument="NP Lead1 Vib"
			Pattern Name="Pattern 2"
				Note Time="0" Value="F2" Duration="30" Instrument="FP Lead1"
				Note Time="30" Value="C3" Duration="20" Instrument="FP Lead1"
				Note Time="50" Value="B2" Duration="10" Instrument="FP Lead1"
				Note Time="60" Value="A#2" Duration="10" Instrument="FP Lead1"
				Note Time="70" Value="B2" Duration="10" Instrument="FP Lead1"
				Note Time="80" Value="A#2" Duration="10" Instrument="FP Lead1"
				Note Time="90" Value="G#2" Duration="21" Instrument="FP Lead1"
			Pattern Name="Pattern 3"
				Note Time="0" Value="F2" Duration="30" Instrument="NP Lead1 Vib"
				Note Time="30" Value="C3" Duration="20" Instrument="FP Lead1"
				Note Time="50" Value="B2" Duration="10" Instrument="FP Lead1"
				Note Time="60" Value="A#2" Duration="40" Instrument="NP Lead1 Vib"
			Pattern Name="Pattern 5"
				Note Time="0" Value="C3" Duration="20" Instrument="FP Lead1"
				Note Time="20" Value="C3" Duration="10" Instrument="FP Lead1"
				Note Time="30" Value="B2" Duration="20" Instrument="FP Lead1"
				Note Time="50" Value="B2" Duration="10" Instrument="FP Lead1"
				Note Time="60" Value="A#2" Duration="20" Instrument="FP Lead1"
				Note Time="80" Value="A#2" Duration="10" Instrument="FP Lead1"
				Note Time="90" Value="G#2" Duration="20" Instrument="FP Lead1"
				Note Time="110" Value="G#2" Duration="10" Instrument="FP Lead1"
			Pattern Name="Pattern 6"
				Note Time="0" Value="F2" Duration="20" Instrument="FP Lead1"
				Note Time="20" Value="F2" Duration="10" Instrument="FP Lead1"
				Note Time="30" Value="G#2" Duration="20" Instrument="FP Lead1"
				Note Time="50" Value="F2" Duration="31" Instrument="NP Lead1 Vib"
			Pattern Name="Pattern 4"
				Note Time="0" Value="F1" Duration="30" Instrument="FP Lead1"
				Note Time="30" Value="C2" Duration="20" Instrument="FP Lead1"
				Note Time="50" Value="B1" Duration="10" Instrument="FP Lead1"
				Note Time="60" Value="A#1" Duration="40" Instrument="FP Lead1"
			Pattern Name="Pattern 7"
				Note Time="0" Value="F1" Duration="30" Instrument="FP Lead1"
				Note Time="30" Value="C2" Duration="20" Instrument="FP Lead1"
				Note Time="50" Value="B1" Duration="10" Instrument="FP Lead1"
				Note Time="60" Value="A#1" Duration="10" Instrument="FP Lead1"
				Note Time="70" Value="B1" Duration="10" Instrument="FP Lead1"
				Note Time="80" Value="A#1" Duration="10" Instrument="FP Lead1"
				Note Time="90" Value="G#1" Duration="20" Instrument="FP Lead1"
			Pattern Name="Pattern 8"
				Note Time="0" Value="C2" Duration="19" Instrument="FP Lead1"
				Note Time="20" Value="C2" Duration="10" Instrument="FP Lead1"
				Note Time="30" Value="B1" Duration="19" Instrument="FP Lead1"
				Note Time="50" Value="B1" Duration="10" Instrument="FP Lead1"
				Note Time="60" Value="A#1" Duration="19" Instrument="FP Lead1"
				Note Time="80" Value="A#1" Duration="10" Instrument="FP Lead1"
				Note Time="90" Value="G#1" Duration="19" Instrument="FP Lead1"
				Note Time="110" Value="G#1" Duration="10" Instrument="FP Lead1"
			Pattern Name="Pattern 9"
				Note Time="0" Value="F1" Duration="19" Instrument="FP Lead1"
				Note Time="20" Value="F1" Duration="10" Instrument="FP Lead1"
				Note Time="30" Value="G#1" Duration="20" Instrument="FP Lead1"
				Note Time="50" Value="F1" Duration="30" Instrument="FP Lead1"
			PatternInstance Time="1" Pattern="Pattern 1"
			PatternInstance Time="2" Pattern="Pattern 2"
			PatternInstance Time="3" Pattern="Pattern 3"
			PatternInstance Time="4" Pattern="Pattern 2"
			PatternInstance Time="5" Pattern="Pattern 5"
			PatternInstance Time="6" Pattern="Pattern 6"
			PatternInstance Time="7" Pattern="Pattern 1"
			PatternInstance Time="8" Pattern="Pattern 2"
			PatternInstance Time="9" Pattern="Pattern 3"
			PatternInstance Time="10" Pattern="Pattern 2"
			PatternInstance Time="11" Pattern="Pattern 5"
			PatternInstance Time="12" Pattern="Pattern 6"
			PatternInstance Time="13" Pattern="Pattern 4"
			PatternInstance Time="14" Pattern="Pattern 7"
			PatternInstance Time="15" Pattern="Pattern 4"
			PatternInstance Time="16" Pattern="Pattern 7"
			PatternInstance Time="17" Pattern="Pattern 8"
			PatternInstance Time="18" Pattern="Pattern 9"
			PatternInstance Time="19" Pattern="Pattern 1"
			PatternInstance Time="20" Pattern="Pattern 2"
			PatternInstance Time="21" Pattern="Pattern 3"
			PatternInstance Time="22" Pattern="Pattern 2"
			PatternInstance Time="23" Pattern="Pattern 5"
			PatternInstance Time="24" Pattern="Pattern 6"
			PatternInstance Time="25" Pattern="Pattern 1"
			PatternInstance Time="26" Pattern="Pattern 2"
			PatternInstance Time="27" Pattern="Pattern 3"
			PatternInstance Time="28" Pattern="Pattern 2"
			PatternInstance Time="29" Pattern="Pattern 5"
			PatternInstance Time="30" Pattern="Pattern 6"
		Channel Type="Square2"
			Pattern Name="Pattern 1"
				Note Time="0" Value="F3" Duration="20" Instrument="NP Lead0"
				Note Time="20" Value="F3" Duration="10" Instrument="NP Lead0"
				Note Time="30" Value="C4" Duration="20" Instrument="NP Lead0"
				Note Time="50" Value="A#3" Duration="50" Instrument="NP Lead0 Vib"
			Pattern Name="Pattern 2"
				Note Time="0" Value="F3" Duration="30" Instrument="NP Lead0"
				Note Time="30" Value="C4" Duration="20" Instrument="NP Lead0"
				Note Time="50" Value="A#3" Duration="10" Instrument="NP Lead0"
				Note Time="60" Value="G#3" Duration="10" Instrument="NP Lead0"
				Note Time="70" Value="G3" Duration="10" Instrument="NP Lead0"
				Note Time="80" Value="F#3" Duration="10" Instrument="NP Lead0"
				Note Time="90" Value="F3" Duration="20" Instrument="NP Lead0 Vib"
			Pattern Name="Pattern 3"
				Note Time="0" Value="A#3" Duration="10" Instrument="NP Lead0" SlideTarget="D#4"
				Note Time="10" Value="D#4" Duration="10" Instrument="NP Lead0 Vib" Attack="False"
				Note Time="20" Value="C#4" Duration="10" Instrument="NP Lead0"
				Note Time="30" Value="C4" Duration="20" Instrument="NP Lead0"
				Note Time="50" Value="A#3" Duration="30" Instrument="NP Lead0 Vib"
				Note Time="80" Value="G#3" Duration="10" Instrument="NP Lead0"
				Note Time="90" Value="G3" Duration="20" Instrument="NP Lead0"
				Note Time="110" Value="F3" Duration="30" Instrument="NP Lead0 Vib"
			Pattern Name="Pattern 4"
				Note Time="20" Value="E3" Duration="10" Instrument="NP Lead0"
				Note Time="30" Value="G3" Duration="20" Instrument="NP Lead0"
				Note Time="50" Value="F3" Duration="30" Instrument="NP Lead0 Vib"
			Pattern Name="Pattern 5"
				Note Time="0" Value="F1" Duration="30" Instrument="NP Lead2 P-2"
				Note Time="30" Value="C2" Duration="20" Instrument="NP Lead2 P-2"
				Note Time="50" Value="B1" Duration="10" Instrument="NP Lead2 P-2"
				Note Time="60" Value="A#1" Duration="40" Instrument="NP Lead2 P-2"
			Pattern Name="Pattern 6"
				Note Time="0" Value="F1" Duration="30" Instrument="NP Lead2 P-2"
				Note Time="30" Value="C2" Duration="20" Instrument="NP Lead2 P-2"
				Note Time="50" Value="B1" Duration="10" Instrument="NP Lead2 P-2"
				Note Time="60" Value="A#1" Duration="10" Instrument="NP Lead2 P-2"
				Note Time="70" Value="B1" Duration="10" Instrument="NP Lead2 P-2"
				Note Time="80" Value="A#1" Duration="10" Instrument="NP Lead2 P-2"
				Note Time="90" Value="G#1" Duration="20" Instrument="NP Lead2 P-2"
			Pattern Name="Pattern 7"
				Note Time="0" Value="C2" Duration="19" Instrument="NP Lead2 P-2"
				Note Time="20" Value="C2" Duration="10" Instrument="NP Lead2 P-2"
				Note Time="30" Value="B1" Duration="19" Instrument="NP Lead2 P-2"
				Note Time="50" Value="B1" Duration="10" Instrument="NP Lead2 P-2"
				Note Time="60" Value="A#1" Duration="19" Instrument="NP Lead2 P-2"
				Note Time="80" Value="A#1" Duration="10" Instrument="NP Lead2 P-2"
				Note Time="90" Value="G#1" Duration="19" Instrument="NP Lead2 P-2"
				Note Time="110" Value="G#1" Duration="10" Instrument="NP Lead2 P-2"
			Pattern Name="Pattern 8"
				Note Time="0" Value="F1" Duration="19" Instrument="NP Lead2 P-2"
				Note Time="20" Value="F1" Duration="10" Instrument="NP Lead2 P-2"
				Note Time="30" Value="G#1" Duration="20" Instrument="NP Lead2 P-2"
				Note Time="50" Value="F1" Duration="30" Instrument="NP Lead2 P-2"
			Pattern Name="Pattern 10"
				Note Time="0" Value="A3" Duration="10" Instrument="NP Lead0" SlideTarget="F4"
				Note Time="10" Value="F4" Duration="110" Instrument="NP Lead0 Vib" Attack="False"
			Pattern Name="Pattern 9"
				Note Time="0" Value="C5" Duration="31" Instrument="NP Lead0"
				Note Time="31" Value="A#4" Duration="19" Instrument="NP Lead0"
				Note Time="50" Value="C5" Duration="40" Instrument="NP Lead0"
				Note Time="90" Value="G#4" Duration="30" Instrument="NP Lead0"
			Pattern Name="Pattern 11"
				Note Time="0" Value="G4" Duration="60" Instrument="NP Lead0 Vib"
				Note Time="60" Value="F4" Duration="60" Instrument="NP Lead0 Vib"
			Pattern Name="Pattern 12"
				Note Time="0" Value="G4" Duration="60" Instrument="NP Lead0 Vib"
				Note Time="60" Value="G#4" Duration="60" Instrument="NP Lead0 Vib"
			Pattern Name="Pattern 19"
				Note Time="0" Value="F4" Duration="120" Instrument="NP Lead0 Vib"
			Pattern Name="Pattern 13"
				Note Time="0" Value="C#5" Duration="10" Instrument="NP Lead0"
				Note Time="10" Value="C5" Duration="10" Instrument="NP Lead0"
				Note Time="20" Value="C#5" Duration="10" Instrument="NP Lead0"
				Note Time="30" Value="C5" Duration="10" Instrument="NP Lead0"
				Note Time="40" Value="A#4" Duration="10" Instrument="NP Lead0"
				Note Time="50" Value="C5" Duration="10" Instrument="NP Lead0"
				Note Time="60" Value="G#4" Duration="20" Instrument="NP Lead0"
				Note Time="80" Value="G4" Duration="20" Instrument="NP Lead0"
				Note Time="100" Value="G#4" Duration="20" Instrument="NP Lead0"
			Pattern Name="Pattern 18"
				Note Time="0" Value="A#4" Duration="60" Instrument="NP Lead0 Vib"
				Note Time="60" Value="G4" Duration="30" Instrument="NP Lead0"
				Note Time="90" Value="G#4" Duration="30" Instrument="NP Lead0"
			Pattern Name="Pattern 14"
				Note Time="0" Value="F4" Duration="20" Instrument="NP Lead0"
				Note Time="20" Value="F4" Duration="10" Instrument="NP Lead0"
				Note Time="30" Value="C5" Duration="20" Instrument="NP Lead0"
				Note Time="50" Value="A#4" Duration="50" Instrument="NP Lead0 Vib"
			Pattern Name="Pattern 15"
				Note Time="0" Value="F4" Duration="30" Instrument="NP Lead0"
				Note Time="30" Value="C5" Duration="20" Instrument="NP Lead0"
				Note Time="50" Value="A#4" Duration="10" Instrument="NP Lead0"
				Note Time="60" Value="G#4" Duration="10" Instrument="NP Lead0"
				Note Time="70" Value="G4" Duration="10" Instrument="NP Lead0"
				Note Time="80" Value="F#4" Duration="10" Instrument="NP Lead0"
				Note Time="90" Value="F4" Duration="20" Instrument="NP Lead0 Vib"
			Pattern Name="Pattern 16"
				Note Time="0" Value="A#4" Duration="10" Instrument="NP Lead0" SlideTarget="D#5"
				Note Time="10" Value="D#5" Duration="10" Instrument="NP Lead0 Vib" Attack="False"
				Note Time="20" Value="C#5" Duration="10" Instrument="NP Lead0"
				Note Time="30" Value="C5" Duration="20" Instrument="NP Lead0"
				Note Time="50" Value="A#4" Duration="30" Instrument="NP Lead0 Vib"
				Note Time="80" Value="G#4" Duration="10" Instrument="NP Lead0"
				Note Time="90" Value="G4" Duration="20" Instrument="NP Lead0"
				Note Time="110" Value="F4" Duration="30" Instrument="NP Lead0 Vib"
			Pattern Name="Pattern 17"
				Note Time="20" Value="E4" Duration="10" Instrument="NP Lead0"
				Note Time="30" Value="G4" Duration="20" Instrument="NP Lead0"
				Note Time="50" Value="F4" Duration="30" Instrument="NP Lead0 Vib"
			PatternInstance Time="7" Pattern="Pattern 1"
			PatternInstance Time="8" Pattern="Pattern 2"
			PatternInstance Time="9" Pattern="Pattern 1"
			PatternInstance Time="10" Pattern="Pattern 2"
			PatternInstance Time="11" Pattern="Pattern 3"
			PatternInstance Time="12" Pattern="Pattern 4"
			PatternInstance Time="13" Pattern="Pattern 5"
			PatternInstance Time="14" Pattern="Pattern 6"
			PatternInstance Time="15" Pattern="Pattern 5"
			PatternInstance Time="16" Pattern="Pattern 6"
			PatternInstance Time="17" Pattern="Pattern 7"
			PatternInstance Time="18" Pattern="Pattern 8"
			PatternInstance Time="19" Pattern="Pattern 10"
			PatternInstance Time="20" Pattern="Pattern 9"
			PatternInstance Time="21" Pattern="Pattern 11"
			PatternInstance Time="22" Pattern="Pattern 12"
			PatternInstance Time="23" Pattern="Pattern 19"
			PatternInstance Time="24" Pattern="Pattern 13"
			PatternInstance Time="25" Pattern="Pattern 11"
			PatternInstance Time="26" Pattern="Pattern 18"
			PatternInstance Time="27" Pattern="Pattern 14"
			PatternInstance Time="28" Pattern="Pattern 15"
			PatternInstance Time="29" Pattern="Pattern 16"
			PatternInstance Time="30" Pattern="Pattern 17"
		Channel Type="Triangle"
			Pattern Name="Pattern 1"
				Note Time="0" Value="F2" Duration="30" Instrument="FP TriBass"
				Note Time="30" Value="C3" Duration="20" Instrument="FP TriBass"
				Note Time="50" Value="B2" Duration="10" Instrument="FP TriBass"
				Note Time="60" Value="A#2" Duration="40" Instrument="FP TriBass"
			Pattern Name="Pattern 2"
				Note Time="0" Value="F2" Duration="30" Instrument="FP TriBass"
				Note Time="30" Value="C3" Duration="20" Instrument="FP TriBass"
				Note Time="50" Value="B2" Duration="10" Instrument="FP TriBass"
				Note Time="60" Value="A#2" Duration="10" Instrument="FP TriBass"
				Note Time="70" Value="B2" Duration="10" Instrument="FP TriBass"
				Note Time="80" Value="A#2" Duration="10" Instrument="FP TriBass"
				Note Time="90" Value="G#2" Duration="20" Instrument="FP TriBass"
			Pattern Name="Pattern 3"
				Note Time="0" Value="C3" Duration="19" Instrument="FP TriBass"
				Note Time="20" Value="C3" Duration="10" Instrument="FP TriBass"
				Note Time="30" Value="B2" Duration="19" Instrument="FP TriBass"
				Note Time="50" Value="B2" Duration="10" Instrument="FP TriBass"
				Note Time="60" Value="A#2" Duration="19" Instrument="FP TriBass"
				Note Time="80" Value="A#2" Duration="10" Instrument="FP TriBass"
				Note Time="90" Value="G#2" Duration="19" Instrument="FP TriBass"
				Note Time="110" Value="G#2" Duration="10" Instrument="FP TriBass"
			Pattern Name="Pattern 4"
				Note Time="0" Value="F2" Duration="19" Instrument="FP TriBass"
				Note Time="20" Value="F2" Duration="10" Instrument="FP TriBass"
				Note Time="30" Value="G#2" Duration="20" Instrument="FP TriBass"
				Note Time="50" Value="F2" Duration="30" Instrument="FP TriBass"
			Pattern Name="Pattern 7"
				Note Time="0" Value="A#4" Duration="10" Instrument="FP TriBass" SlideTarget="D#5"
				Note Time="10" Value="D#5" Duration="10" Instrument="FP TriBass" Attack="False"
				Note Time="20" Value="F#5" Duration="10" Instrument="FP TriBass"
				Note Time="30" Value="A#5" Duration="20" Instrument="FP TriBass"
				Note Time="50" Value="G#5" Duration="30" Instrument="FP TriBass"
				Note Time="80" Value="F#5" Duration="10" Instrument="FP TriBass"
				Note Time="90" Value="A#5" Duration="20" Instrument="FP TriBass"
				Note Time="110" Value="G#5" Duration="30" Instrument="FP TriBass"
			Pattern Name="Pattern 8"
				Note Time="20" Value="F#5" Duration="10" Instrument="FP TriBass"
				Note Time="30" Value="A#5" Duration="20" Instrument="FP TriBass"
				Note Time="50" Value="G#5" Duration="30" Instrument="FP TriBass"
				Note Time="80" Value="F#5" Duration="10" Instrument="FP TriBass"
				Note Time="90" Value="F5" Duration="30" Instrument="FP TriBass"
			Pattern Name="Pattern 5"
				Note Time="0" Value="A#4" Duration="10" Instrument="FP TriBass" SlideTarget="D#5"
				Note Time="10" Value="D#5" Duration="10" Instrument="FP TriBass" Attack="False"
				Note Time="20" Value="F#5" Duration="10" Instrument="FP TriBass"
				Note Time="30" Value="A#5" Duration="20" Instrument="FP TriBass"
				Note Time="50" Value="G#5" Duration="30" Instrument="FP TriBass"
				Note Time="80" Value="F#5" Duration="10" Instrument="FP TriBass"
				Note Time="90" Value="F5" Duration="20" Instrument="FP TriBass"
				Note Time="110" Value="D#5" Duration="30" Instrument="FP TriBass"
			Pattern Name="Pattern 6"
				Note Time="20" Value="C#5" Duration="10" Instrument="FP TriBass"
				Note Time="30" Value="F5" Duration="21" Instrument="FP TriBass"
				Note Time="51" Value="D#5" Duration="29" Instrument="FP TriBass"
			PatternInstance Time="1" Pattern="Pattern 1"
			PatternInstance Time="2" Pattern="Pattern 2"
			PatternInstance Time="3" Pattern="Pattern 1"
			PatternInstance Time="4" Pattern="Pattern 2"
			PatternInstance Time="5" Pattern="Pattern 3"
			PatternInstance Time="6" Pattern="Pattern 4"
			PatternInstance Time="7" Pattern="Pattern 1"
			PatternInstance Time="8" Pattern="Pattern 2"
			PatternInstance Time="9" Pattern="Pattern 1"
			PatternInstance Time="10" Pattern="Pattern 2"
			PatternInstance Time="11" Pattern="Pattern 3"
			PatternInstance Time="12" Pattern="Pattern 4"
			PatternInstance Time="15" Pattern="Pattern 7"
			PatternInstance Time="16" Pattern="Pattern 8"
			PatternInstance Time="17" Pattern="Pattern 5"
			PatternInstance Time="18" Pattern="Pattern 6"
			PatternInstance Time="19" Pattern="Pattern 1"
			PatternInstance Time="20" Pattern="Pattern 2"
			PatternInstance Time="21" Pattern="Pattern 1"
			PatternInstance Time="22" Pattern="Pattern 2"
			PatternInstance Time="23" Pattern="Pattern 3"
			PatternInstance Time="24" Pattern="Pattern 4"
			PatternInstance Time="25" Pattern="Pattern 1"
			PatternInstance Time="26" Pattern="Pattern 2"
			PatternInstance Time="27" Pattern="Pattern 1"
			PatternInstance Time="28" Pattern="Pattern 2"
			PatternInstance Time="29" Pattern="Pattern 3"
			PatternInstance Time="30" Pattern="Pattern 4"
		Channel Type="Noise"
			Pattern Name="Pattern 1"
				Note Time="30" Value="C2" Duration="60" Instrument="NP NoiseHiHat"
				Note Time="90" Value="C2" Duration="60" Instrument="NP NoiseHiHat"
			PatternInstance Time="0" Pattern="Pattern 1"
			PatternInstance Time="1" Pattern="Pattern 1"
			PatternInstance Time="2" Pattern="Pattern 1"
			PatternInstance Time="3" Pattern="Pattern 1"
			PatternInstance Time="4" Pattern="Pattern 1"
			PatternInstance Time="5" Pattern="Pattern 1"
			PatternInstance Time="6" Pattern="Pattern 1"
			PatternInstance Time="7" Pattern="Pattern 1"
			PatternInstance Time="8" Pattern="Pattern 1"
			PatternInstance Time="9" Pattern="Pattern 1"
			PatternInstance Time="10" Pattern="Pattern 1"
			PatternInstance Time="11" Pattern="Pattern 1"
			PatternInstance Time="12" Pattern="Pattern 1"
			PatternInstance Time="13" Pattern="Pattern 1"
			PatternInstance Time="14" Pattern="Pattern 1"
			PatternInstance Time="15" Pattern="Pattern 1"
			PatternInstance Time="16" Pattern="Pattern 1"
			PatternInstance Time="17" Pattern="Pattern 1"
			PatternInstance Time="18" Pattern="Pattern 1"
			PatternInstance Time="19" Pattern="Pattern 1"
			PatternInstance Time="20" Pattern="Pattern 1"
			PatternInstance Time="21" Pattern="Pattern 1"
			PatternInstance Time="22" Pattern="Pattern 1"
			PatternInstance Time="23" Pattern="Pattern 1"
			PatternInstance Time="24" Pattern="Pattern 1"
			PatternInstance Time="25" Pattern="Pattern 1"
			PatternInstance Time="26" Pattern="Pattern 1"
			PatternInstance Time="27" Pattern="Pattern 1"
			PatternInstance Time="28" Pattern="Pattern 1"
			PatternInstance Time="29" Pattern="Pattern 1"
			PatternInstance Time="30" Pattern="Pattern 1"
		Channel Type="DPCM"
			Pattern Name="Pattern 1"
				Note Time="0" Value="C1" Duration="60"
				Note Time="60" Value="C1" Duration="20"
				Note Time="80" Value="C1" Duration="40"
			PatternInstance Time="0" Pattern="Pattern 1"
			PatternInstance Time="1" Pattern="Pattern 1"
			PatternInstance Time="2" Pattern="Pattern 1"
			PatternInstance Time="3" Pattern="Pattern 1"
			PatternInstance Time="4" Pattern="Pattern 1"
			PatternInstance Time="5" Pattern="Pattern 1"
			PatternInstance Time="6" Pattern="Pattern 1"
			PatternInstance Time="7" Pattern="Pattern 1"
			PatternInstance Time="8" Pattern="Pattern 1"
			PatternInstance Time="9" Pattern="Pattern 1"
			PatternInstance Time="10" Pattern="Pattern 1"
			PatternInstance Time="11" Pattern="Pattern 1"
			PatternInstance Time="12" Pattern="Pattern 1"
			PatternInstance Time="13" Pattern="Pattern 1"
			PatternInstance Time="14" Pattern="Pattern 1"
			PatternInstance Time="15" Pattern="Pattern 1"
			PatternInstance Time="16" Pattern="Pattern 1"
			PatternInstance Time="17" Pattern="Pattern 1"
			PatternInstance Time="18" Pattern="Pattern 1"
			PatternInstance Time="19" Pattern="Pattern 1"
			PatternInstance Time="20" Pattern="Pattern 1"
			PatternInstance Time="21" Pattern="Pattern 1"
			PatternInstance Time="22" Pattern="Pattern 1"
			PatternInstance Time="23" Pattern="Pattern 1"
			PatternInstance Time="24" Pattern="Pattern 1"
			PatternInstance Time="25" Pattern="Pattern 1"
			PatternInstance Time="26" Pattern="Pattern 1"
			PatternInstance Time="27" Pattern="Pattern 1"
			PatternInstance Time="28" Pattern="Pattern 1"
			PatternInstance Time="29" Pattern="Pattern 1"
			PatternInstance Time="30" Pattern="Pattern 1"
	Song Name="05 (F minor)" Length="16" LoopPoint="0" PatternLength="16" BeatLength="4" NoteLength="12" Groove="12" GroovePaddingMode="Middle"
		Channel Type="Square1"
			Pattern Name="Pattern 14"
				Note Time="0" Value="C3" Duration="12" Instrument="FP Lead2"
				Note Time="12" Value="G2" Duration="72" Instrument="FP Lead2"
				Note Time="96" Value="D#2" Duration="12" Instrument="FP Lead2"
				Note Time="108" Value="C2" Duration="12" Instrument="FP Lead2"
				Note Time="120" Value="C2" Duration="12" Instrument="FP Lead2"
				Note Time="132" Value="C2" Duration="12" Instrument="FP Lead2"
			Pattern Name="Pattern 15"
				Note Time="0" Value="D#2" Duration="12" Instrument="FP Lead2"
				Note Time="12" Value="F2" Duration="12" Instrument="FP Lead2"
				Note Time="24" Value="G#2" Duration="24" Instrument="FP Lead2"
				Note Time="48" Value="C3" Duration="84" Instrument="FP Lead2"
				Note Time="156" Value="D#3" Duration="36" Instrument="FP Lead2"
			Pattern Name="Pattern 0"
				Note Time="0" Value="C4" Duration="36" Instrument="FP Lead2"
				Note Time="36" Value="C#4" Duration="48" Instrument="FP Lead2"
				Note Time="108" Value="F4" Duration="12" Instrument="FP Lead2"
				Note Time="168" Value="G#4" Duration="24" Instrument="FP Lead2"
			Pattern Name="Pattern 1"
				Note Time="0" Value="F4" Duration="84" Instrument="FP Lead2"
				Note Time="108" Value="F3" Duration="48" Instrument="FP Lead2"
				Note Time="156" Value="C#3" Duration="24" Instrument="FP Lead2"
				Note Time="180" Value="A#2" Duration="12" Instrument="FP Lead2"
			Pattern Name="Pattern 2"
				Note Time="72" Value="C2" Duration="12" Instrument="FP Lead2"
				Note Time="108" Value="C2" Duration="12" Instrument="FP Lead2"
			Pattern Name="Pattern 3"
				Note Time="0" Value="C#2" Duration="24" Instrument="FP Lead2"
				Note Time="60" Value="A#2" Duration="12" Instrument="FP Lead2"
				Note Time="72" Value="A#2" Duration="12" Instrument="FP Lead2"
				Note Time="84" Value="G#2" Duration="60" Instrument="FP Lead2"
				Note Time="144" Value="C#3" Duration="36" Instrument="FP Lead2"
				Note Time="180" Value="D#3" Duration="12" Instrument="FP Lead2"
			Pattern Name="Pattern 4"
				Note Time="0" Value="C3" Duration="24" Instrument="FP Lead2"
				Note Time="24" Value="G#2" Duration="12" Instrument="FP Lead2"
				Note Time="36" Value="D#2" Duration="36" Instrument="FP Lead2"
				Note Time="72" Value="D#2" Duration="12" Instrument="FP Lead2"
				Note Time="84" Value="F2" Duration="24" Instrument="FP Lead2"
				Note Time="108" Value="F2" Duration="60" Instrument="FP Lead2"
				Note Time="168" Value="G#2" Duration="12" Instrument="FP Lead2"
				Note Time="180" Value="C#3" Duration="12" Instrument="FP Lead2"
			Pattern Name="Pattern 5"
				Note Time="0" Value="F3" Duration="24" Instrument="FP Lead2"
				Note Time="24" Value="G3" Duration="24" Instrument="FP Lead2"
				Note Time="48" Value="A#3" Duration="12" Instrument="FP Lead2"
				Note Time="60" Value="D#4" Duration="84" Instrument="FP Lead2"
			Pattern Name="Pattern 6"
				Note Time="0" Value="F3" Duration="12" Instrument="FP Lead2"
				Note Time="12" Value="C#3" Duration="12" Instrument="FP Lead2"
				Note Time="24" Value="C#3" Duration="12" Instrument="FP Lead2"
				Note Time="36" Value="G#2" Duration="60" Instrument="FP Lead2"
				Note Time="96" Value="G#2" Duration="84" Instrument="FP Lead2"
				Note Time="180" Value="F2" Duration="12" Instrument="FP Lead2"
			Pattern Name="Pattern 7"
				Note Time="0" Value="F2" Duration="36" Instrument="FP Lead2"
				Note Time="36" Value="G#2" Duration="132" Instrument="FP Lead2"
				Note Time="168" Value="C3" Duration="12" Instrument="FP Lead2"
				Note Time="180" Value="F3" Duration="12" Instrument="FP Lead2"
			Pattern Name="Pattern 8"
				Note Time="0" Value="C#3" Duration="24" Instrument="FP Lead2"
				Note Time="24" Value="D#3" Duration="36" Instrument="FP Lead2"
				Note Time="60" Value="A#2" Duration="48" Instrument="FP Lead2"
				Note Time="108" Value="G#2" Duration="36" Instrument="FP Lead2"
				Note Time="144" Value="G#2" Duration="24" Instrument="FP Lead2"
			Pattern Name="Pattern 9"
				Note Time="0" Value="C3" Duration="72" Instrument="FP Lead2"
				Note Time="72" Value="D#3" Duration="24" Instrument="FP Lead2"
				Note Time="120" Value="C#3" Duration="36" Instrument="FP Lead2"
				Note Time="156" Value="G#2" Duration="12" Instrument="FP Lead2"
				Note Time="168" Value="A#2" Duration="12" Instrument="FP Lead2"
				Note Time="180" Value="G#2" Duration="12" Instrument="FP Lead2"
			Pattern Name="Pattern 10"
				Note Time="0" Value="G#2" Duration="60" Instrument="FP Lead2"
				Note Time="60" Value="C3" Duration="12" Instrument="FP Lead2"
				Note Time="72" Value="D#3" Duration="120" Instrument="FP Lead2"
			Pattern Name="Pattern 11"
				Note Time="0" Value="F3" Duration="24" Instrument="FP Lead2"
				Note Time="24" Value="G3" Duration="12" Instrument="FP Lead2"
				Note Time="36" Value="A#3" Duration="24" Instrument="FP Lead2"
				Note Time="72" Value="C3" Duration="120" Instrument="FP Lead2"
			Pattern Name="Pattern 12"
				Note Time="0" Value="F2" Duration="48" Instrument="FP Lead2"
				Note Time="48" Value="C2" Duration="12" Instrument="FP Lead2"
				Note Time="60" Value="F2" Duration="24" Instrument="FP Lead2"
				Note Time="84" Value="A#2" Duration="12" Instrument="FP Lead2"
				Note Time="96" Value="G2" Duration="12" Instrument="FP Lead2"
				Note Time="132" Value="C#2" Duration="48" Instrument="FP Lead2"
				Note Time="180" Value="D#2" Duration="12" Instrument="FP Lead2"
			Pattern Name="Pattern 13"
				Note Time="0" Value="G#2" Duration="36" Instrument="FP Lead2"
				Note Time="36" Value="A#2" Duration="48" Instrument="FP Lead2"
				Note Time="84" Value="D#3" Duration="36" Instrument="FP Lead2"
				Note Time="120" Value="C#3" Duration="48" Instrument="FP Lead2"
			PatternInstance Time="0" Pattern="Pattern 14"
			PatternInstance Time="1" Pattern="Pattern 15"
			PatternInstance Time="2" Pattern="Pattern 0"
			PatternInstance Time="3" Pattern="Pattern 1"
			PatternInstance Time="4" Pattern="Pattern 2"
			PatternInstance Time="5" Pattern="Pattern 3"
			PatternInstance Time="6" Pattern="Pattern 4"
			PatternInstance Time="7" Pattern="Pattern 5"
			PatternInstance Time="8" Pattern="Pattern 6"
			PatternInstance Time="9" Pattern="Pattern 7"
			PatternInstance Time="10" Pattern="Pattern 8"
			PatternInstance Time="11" Pattern="Pattern 9"
			PatternInstance Time="12" Pattern="Pattern 10"
			PatternInstance Time="13" Pattern="Pattern 11"
			PatternInstance Time="14" Pattern="Pattern 12"
			PatternInstance Time="15" Pattern="Pattern 13"
		Channel Type="Square2"
			Pattern Name="Pattern 14"
				Note Time="0" Value="C3" Duration="36" Instrument="FP Lead2"
				Note Time="36" Value="G#2" Duration="12" Instrument="FP Lead2"
				Note Time="48" Value="C3" Duration="12" Instrument="FP Lead2"
				Note Time="96" Value="C3" Duration="12" Instrument="FP Lead2"
				Note Time="132" Value="F2" Duration="12" Instrument="FP Lead2"
				Note Time="156" Value="C3" Duration="12" Instrument="FP Lead2"
				Note Time="168" Value="G#2" Duration="24" Instrument="FP Lead2"
			Pattern Name="Pattern 15"
				Note Time="0" Value="D#2" Duration="12" Instrument="FP Lead2"
				Note Time="12" Value="C#2" Duration="12" Instrument="FP Lead2"
				Note Time="24" Value="C2" Duration="12" Instrument="FP Lead2"
				Note Time="36" Value="G#1" Duration="24" Instrument="FP Lead2"
				Note Time="60" Value="G1" Duration="48" Instrument="FP Lead2"
				Note Time="108" Value="F1" Duration="24" Instrument="FP Lead2"
				Note Time="132" Value="F1" Duration="24" Instrument="FP Lead2"
				Note Time="168" Value="G#1" Duration="12" Instrument="FP Lead2"
				Note Time="180" Value="G1" Duration="12" Instrument="FP Lead2"
			Pattern Name="Pattern 0"
				Note Time="0" Value="A#1" Duration="48" Instrument="FP Lead2"
				Note Time="48" Value="D#2" Duration="48" Instrument="FP Lead2"
				Note Time="120" Value="F2" Duration="12" Instrument="FP Lead2"
				Note Time="132" Value="C#2" Duration="12" Instrument="FP Lead2"
				Note Time="144" Value="G2" Duration="24" Instrument="FP Lead2"
				Note Time="168" Value="G2" Duration="24" Instrument="FP Lead2"
			Pattern Name="Pattern 1"
				Note Time="0" Value="C3" Duration="36" Instrument="FP Lead2"
				Note Time="36" Value="D#3" Duration="72" Instrument="FP Lead2"
			Pattern Name="Pattern 2"
				Note Time="0" Value="C#2" Duration="132" Instrument="FP Lead2"
				Note Time="132" Value="D#2" Duration="36" Instrument="FP Lead2"
				Note Time="168" Value="G2" Duration="24" Instrument="FP Lead2"
			Pattern Name="Pattern 3"
				Note Time="12" Value="G2" Duration="12" Instrument="FP Lead2"
				Note Time="24" Value="G#2" Duration="60" Instrument="FP Lead2"
				Note Time="84" Value="G#2" Duration="24" Instrument="FP Lead2"
				Note Time="108" Value="D#2" Duration="84" Instrument="FP Lead2"
			Pattern Name="Pattern 4"
				Note Time="0" Value="A#1" Duration="48" Instrument="FP Lead2"
				Note Time="48" Value="G1" Duration="12" Instrument="FP Lead2"
				Note Time="60" Value="C#1" Duration="120" Instrument="FP Lead2"
				Note Time="180" Value="C1" Duration="12" Instrument="FP Lead2"
			Pattern Name="Pattern 5"
				Note Time="0" Value="C1" Duration="24" Instrument="FP Lead2"
				Note Time="24" Value="F1" Duration="24" Instrument="FP Lead2"
				Note Time="48" Value="C1" Duration="24" Instrument="FP Lead2"
				Note Time="72" Value="C1" Duration="84" Instrument="FP Lead2"
				Note Time="156" Value="C1" Duration="36" Instrument="FP Lead2"
			Pattern Name="Pattern 6"
				Note Time="0" Value="F1" Duration="36" Instrument="FP Lead2"
				Note Time="36" Value="C#1" Duration="72" Instrument="FP Lead2"
				Note Time="108" Value="D#1" Duration="36" Instrument="FP Lead2"
				Note Time="144" Value="F1" Duration="48" Instrument="FP Lead2"
			Pattern Name="Pattern 7"
				Note Time="0" Value="C#1" Duration="12" Instrument="FP Lead2"
				Note Time="12" Value="C1" Duration="72" Instrument="FP Lead2"
				Note Time="84" Value="C#1" Duration="60" Instrument="FP Lead2"
				Note Time="144" Value="C#1" Duration="48" Instrument="FP Lead2"
			Pattern Name="Pattern 8"
				Note Time="0" Value="C#1" Duration="12" Instrument="FP Lead2"
				Note Time="12" Value="G1" Duration="156" Instrument="FP Lead2"
				Note Time="168" Value="G#1" Duration="12" Instrument="FP Lead2"
				Note Time="180" Value="C2" Duration="12" Instrument="FP Lead2"
			Pattern Name="Pattern 9"
				Note Time="0" Value="G1" Duration="12" Instrument="FP Lead2"
				Note Time="12" Value="C#1" Duration="12" Instrument="FP Lead2"
				Note Time="24" Value="D#1" Duration="24" Instrument="FP Lead2"
				Note Time="72" Value="C1" Duration="12" Instrument="FP Lead2"
				Note Time="180" Value="C1" Duration="12" Instrument="FP Lead2"
			Pattern Name="Pattern 10"
				Note Time="48" Value="C#1" Duration="24" Instrument="FP Lead2"
				Note Time="72" Value="C#1" Duration="24" Instrument="FP Lead2"
				Note Time="96" Value="F1" Duration="24" Instrument="FP Lead2"
				Note Time="120" Value="G#1" Duration="12" Instrument="FP Lead2"
				Note Time="132" Value="C#2" Duration="36" Instrument="FP Lead2"
				Note Time="168" Value="D#2" Duration="12" Instrument="FP Lead2"
				Note Time="180" Value="F2" Duration="12" Instrument="FP Lead2"
			Pattern Name="Pattern 11"
				Note Time="0" Value="G#2" Duration="36" Instrument="FP Lead2"
				Note Time="36" Value="F2" Duration="24" Instrument="FP Lead2"
				Note Time="60" Value="A#2" Duration="12" Instrument="FP Lead2"
				Note Time="72" Value="C3" Duration="120" Instrument="FP Lead2"
			Pattern Name="Pattern 12"
				Note Time="12" Value="F3" Duration="36" Instrument="FP Lead2"
				Note Time="72" Value="G#3" Duration="36" Instrument="FP Lead2"
				Note Time="108" Value="A#3" Duration="36" Instrument="FP Lead2"
				Note Time="144" Value="A#3" Duration="12" Instrument="FP Lead2"
				Note Time="156" Value="A#3" Duration="12" Instrument="FP Lead2"
				Note Time="168" Value="A#3" Duration="12" Instrument="FP Lead2"
				Note Time="180" Value="G3" Duration="12" Instrument="FP Lead2"
			Pattern Name="Pattern 13"
				Note Time="12" Value="A#2" Duration="12" Instrument="FP Lead2"
				Note Time="24" Value="G2" Duration="108" Instrument="FP Lead2"
				Note Time="132" Value="A#2" Duration="24" Instrument="FP Lead2"
				Note Time="168" Value="G#2" Duration="24" Instrument="FP Lead2"
			PatternInstance Time="0" Pattern="Pattern 14"
			PatternInstance Time="1" Pattern="Pattern 15"
			PatternInstance Time="2" Pattern="Pattern 0"
			PatternInstance Time="3" Pattern="Pattern 1"
			PatternInstance Time="4" Pattern="Pattern 2"
			PatternInstance Time="5" Pattern="Pattern 3"
			PatternInstance Time="6" Pattern="Pattern 4"
			PatternInstance Time="7" Pattern="Pattern 5"
			PatternInstance Time="8" Pattern="Pattern 6"
			PatternInstance Time="9" Pattern="Pattern 7"
			PatternInstance Time="10" Pattern="Pattern 8"
			PatternInstance Time="11" Pattern="Pattern 9"
			PatternInstance Time="12" Pattern="Pattern 10"
			PatternInstance Time="13" Pattern="Pattern 11"
			PatternInstance Time="14" Pattern="Pattern 12"
			PatternInstance Time="15" Pattern="Pattern 13"
		Channel Type="Triangle"
			Pattern Name="Pattern 14"
				Note Time="0" Value="D#3" Duration="24" Instrument="FP TriBass"
				Note Time="24" Value="C3" Duration="24" Instrument="FP TriBass"
				Note Time="48" Value="G#2" Duration="60" Instrument="FP TriBass"
				Note Time="108" Value="G#2" Duration="72" Instrument="FP TriBass"
				Note Time="180" Value="A#2" Duration="12" Instrument="FP TriBass"
			Pattern Name="Pattern 15"
				Note Time="0" Value="C#3" Duration="24" Instrument="FP TriBass"
				Note Time="24" Value="D#3" Duration="12" Instrument="FP TriBass"
				Note Time="36" Value="D#3" Duration="96" Instrument="FP TriBass"
				Note Time="132" Value="G3" Duration="48" Instrument="FP TriBass"
				Note Time="180" Value="C4" Duration="12" Instrument="FP TriBass"
			Pattern Name="Pattern 0"
				Note Time="0" Value="D#2" Duration="36" Instrument="FP TriBass"
			Pattern Name="Pattern 1"
				Note Time="0" Value="C2" Duration="36" Instrument="FP TriBass"
				Note Time="36" Value="A#1" Duration="108" Instrument="FP TriBass"
				Note Time="144" Value="G#1" Duration="48" Instrument="FP TriBass"
			Pattern Name="Pattern 2"
				Note Time="0" Value="G1" Duration="120" Instrument="FP TriBass"
				Note Time="120" Value="F1" Duration="12" Instrument="FP TriBass"
				Note Time="132" Value="G#1" Duration="60" Instrument="FP TriBass"
			Pattern Name="Pattern 3"
				Note Time="0" Value="F1" Duration="24" Instrument="FP TriBass"
				Note Time="36" Value="G1" Duration="144" Instrument="FP TriBass"
				Note Time="180" Value="C#1" Duration="12" Instrument="FP TriBass"
			Pattern Name="Pattern 4"
				Note Time="0" Value="F1" Duration="12" Instrument="FP TriBass"
				Note Time="12" Value="C1" Duration="24" Instrument="FP TriBass"
				Note Time="36" Value="C#1" Duration="12" Instrument="FP TriBass"
				Note Time="48" Value="C1" Duration="48" Instrument="FP TriBass"
				Note Time="96" Value="C1" Duration="84" Instrument="FP TriBass"
				Note Time="180" Value="C1" Duration="12" Instrument="FP TriBass"
			Pattern Name="Pattern 5"
				Note Time="0" Value="C1" Duration="48" Instrument="FP TriBass"
				Note Time="48" Value="C1" Duration="48" Instrument="FP TriBass"
				Note Time="96" Value="C1" Duration="48" Instrument="FP TriBass"
				Note Time="144" Value="F1" Duration="12" Instrument="FP TriBass"
				Note Time="156" Value="D#1" Duration="36" Instrument="FP TriBass"
			Pattern Name="Pattern 6"
				Note Time="0" Value="G1" Duration="24" Instrument="FP TriBass"
				Note Time="24" Value="D#1" Duration="12" Instrument="FP TriBass"
				Note Time="48" Value="F1" Duration="24" Instrument="FP TriBass"
				Note Time="72" Value="G1" Duration="120" Instrument="FP TriBass"
			Pattern Name="Pattern 7"
				Note Time="12" Value="A#1" Duration="180" Instrument="FP TriBass"
			Pattern Name="Pattern 8"
				Note Time="0" Value="C2" Duration="24" Instrument="FP TriBass"
				Note Time="24" Value="C#2" Duration="48" Instrument="FP TriBass"
				Note Time="156" Value="A#1" Duration="24" Instrument="FP TriBass"
				Note Time="180" Value="A#1" Duration="12" Instrument="FP TriBass"
			Pattern Name="Pattern 9"
				Note Time="0" Value="G1" Duration="24" Instrument="FP TriBass"
				Note Time="24" Value="C#1" Duration="36" Instrument="FP TriBass"
				Note Time="72" Value="G#1" Duration="120" Instrument="FP TriBass"
			Pattern Name="Pattern 10"
				Note Time="0" Value="C2" Duration="12" Instrument="FP TriBass"
				Note Time="12" Value="A#1" Duration="60" Instrument="FP TriBass"
				Note Time="144" Value="A#1" Duration="12" Instrument="FP TriBass"
				Note Time="156" Value="C#2" Duration="36" Instrument="FP TriBass"
			Pattern Name="Pattern 11"
				Note Time="0" Value="C#2" Duration="12" Instrument="FP TriBass"
				Note Time="96" Value="F2" Duration="72" Instrument="FP TriBass"
				Note Time="180" Value="A#2" Duration="12" Instrument="FP TriBass"
			Pattern Name="Pattern 12"
				Note Time="0" Value="A#2" Duration="24" Instrument="FP TriBass"
				Note Time="24" Value="G#2" Duration="72" Instrument="FP TriBass"
				Note Time="96" Value="C#3" Duration="24" Instrument="FP TriBass"
				Note Time="120" Value="D#3" Duration="12" Instrument="FP TriBass"
				Note Time="132" Value="D#3" Duration="60" Instrument="FP TriBass"
			Pattern Name="Pattern 13"
				Note Time="0" Value="G#3" Duration="84" Instrument="FP TriBass"
				Note Time="84" Value="G#3" Duration="108" Instrument="FP TriBass"
			PatternInstance Time="0" Pattern="Pattern 14"
			PatternInstance Time="1" Pattern="Pattern 15"
			PatternInstance Time="2" Pattern="Pattern 0"
			PatternInstance Time="3" Pattern="Pattern 1"
			PatternInstance Time="4" Pattern="Pattern 2"
			PatternInstance Time="5" Pattern="Pattern 3"
			PatternInstance Time="6" Pattern="Pattern 4"
			PatternInstance Time="7" Pattern="Pattern 5"
			PatternInstance Time="8" Pattern="Pattern 6"
			PatternInstance Time="9" Pattern="Pattern 7"
			PatternInstance Time="10" Pattern="Pattern 8"
			PatternInstance Time="11" Pattern="Pattern 9"
			PatternInstance Time="12" Pattern="Pattern 10"
			PatternInstance Time="13" Pattern="Pattern 11"
			PatternInstance Time="14" Pattern="Pattern 12"
			PatternInstance Time="15" Pattern="Pattern 13"
		Channel Type="Noise"
			Pattern Name="Pattern 0"
				Note Time="0" Value="G2" Duration="48" Instrument="FP NoiseBassDrum"
				Note Time="48" Value="F4" Duration="144" Instrument="FP NoiseSnare"
			Pattern Name="Pattern 1"
				Note Time="0" Value="G2" Duration="48" Instrument="FP NoiseBassDrum"
				Note Time="48" Value="F4" Duration="48" Instrument="FP NoiseSnare"
				Note Time="96" Value="E3" Duration="72" Instrument="FP NoiseHiHat"
				Note Time="168" Value="G2" Duration="24" Instrument="FP NoiseBassDrum"
			PatternInstance Time="0" Pattern="Pattern 0"
			PatternInstance Time="1" Pattern="Pattern 1"
			PatternInstance Time="2" Pattern="Pattern 0"
			PatternInstance Time="3" Pattern="Pattern 1"
			PatternInstance Time="4" Pattern="Pattern 0"
			PatternInstance Time="5" Pattern="Pattern 1"
			PatternInstance Time="6" Pattern="Pattern 0"
			PatternInstance Time="7" Pattern="Pattern 1"
			PatternInstance Time="8" Pattern="Pattern 0"
			PatternInstance Time="9" Pattern="Pattern 1"
			PatternInstance Time="10" Pattern="Pattern 0"
			PatternInstance Time="11" Pattern="Pattern 1"
			PatternInstance Time="12" Pattern="Pattern 0"
			PatternInstance Time="13" Pattern="Pattern 1"
			PatternInstance Time="14" Pattern="Pattern 0"
			PatternInstance Time="15" Pattern="Pattern 1"
		Channel Type="DPCM"
	Song Name="A New Day in F# Minor" Length="32" LoopPoint="0" PatternLength="16" BeatLength="4" NoteLength="5" Groove="5" GroovePaddingMode="Middle"
		Channel Type="Square1"
			Pattern Name="Pattern 1"
				Note Time="0" Value="D3" Duration="70" Instrument="FP Lead1"
				Note Time="70" Value="A3" Duration="10" Instrument="FP Lead1"
			Pattern Name="Pattern 2"
				Note Time="0" Value="B3" Duration="20" Instrument="FP Lead1"
				Note Time="20" Value="E3" Duration="10" Instrument="FP Lead1"
				Note Time="30" Value="G#3" Duration="10" Instrument="FP Lead1"
				Note Time="40" Value="B3" Duration="20" Instrument="FP Lead1"
				Note Time="60" Value="G#3" Duration="20" Instrument="FP Lead1"
			Pattern Name="Pattern 3"
				Note Time="0" Value="D4" Duration="10" Instrument="FP Lead1"
				Note Time="10" Value="B3" Duration="10" Instrument="FP Lead1"
				Note Time="20" Value="E3" Duration="50" Instrument="FP Lead1"
				Note Time="70" Value="C#3" Duration="10" Instrument="FP Lead1"
			Pattern Name="Pattern 4"
				Note Time="0" Value="C#3" Duration="50" Instrument="FP Lead1"
				Note Time="50" Value="A4" Duration="10" Instrument="FP Lead1"
				Note Time="60" Value="A1" Duration="20" Instrument="FP Lead1"
			Pattern Name="Pattern 5"
				Note Time="0" Value="A1" Duration="10" Instrument="FP Lead1"
				Note Time="10" Value="A1" Duration="50" Instrument="FP Lead1"
				Note Time="60" Value="F#1" Duration="20" Instrument="FP Lead1"
			Pattern Name="Pattern 6"
				Note Time="0" Value="F#1" Duration="30" Instrument="FP Lead1"
				Note Time="30" Value="F#1" Duration="20" Instrument="FP Lead1"
				Note Time="50" Value="B1" Duration="10" Instrument="FP Lead1"
				Note Time="60" Value="B1" Duration="10" Instrument="FP Lead1"
				Note Time="70" Value="F#2" Duration="10" Instrument="FP Lead1"
			Pattern Name="Pattern 7"
				Note Time="0" Value="G#2" Duration="50" Instrument="FP Lead1"
				Note Time="50" Value="A2" Duration="30" Instrument="FP Lead1"
			Pattern Name="Pattern 8"
				Note Time="0" Value="D4" Duration="40" Instrument="FP Lead1"
				Note Time="40" Value="A3" Duration="40" Instrument="FP Lead1"
			Pattern Name="Pattern 9"
				Note Time="0" Value="G#3" Duration="50" Instrument="FP Lead1"
				Note Time="50" Value="F#3" Duration="10" Instrument="FP Lead1"
			Pattern Name="Pattern 10"
				Note Time="0" Value="F#3" Duration="10" Instrument="FP Lead1"
				Note Time="10" Value="C#4" Duration="50" Instrument="FP Lead1"
				Note Time="60" Value="D4" Duration="20" Instrument="FP Lead1"
			Pattern Name="Pattern 11"
				Note Time="0" Value="E4" Duration="10" Instrument="FP Lead1"
				Note Time="10" Value="C#2" Duration="20" Instrument="FP Lead1"
				Note Time="30" Value="E2" Duration="20" Instrument="FP Lead1"
				Note Time="50" Value="B2" Duration="30" Instrument="FP Lead1"
			Pattern Name="Pattern 12"
				Note Time="30" Value="G#2" Duration="10" Instrument="FP Lead1"
				Note Time="40" Value="B2" Duration="10" Instrument="FP Lead1"
				Note Time="60" Value="E2" Duration="20" Instrument="FP Lead1"
			Pattern Name="Pattern 13"
				Note Time="0" Value="G#2" Duration="80" Instrument="FP Lead1"
			Pattern Name="Pattern 14"
				Note Time="0" Value="C#3" Duration="20" Instrument="FP Lead1"
				Note Time="20" Value="D3" Duration="10" Instrument="FP Lead1"
				Note Time="30" Value="D3" Duration="10" Instrument="FP Lead1"
				Note Time="40" Value="G#3" Duration="10" Instrument="FP Lead1"
				Note Time="50" Value="C#3" Duration="30" Instrument="FP Lead1"
			Pattern Name="Pattern 15"
				Note Time="0" Value="D3" Duration="10" Instrument="FP Lead1"
				Note Time="10" Value="A3" Duration="10" Instrument="FP Lead1"
				Note Time="40" Value="G#3" Duration="10" Instrument="FP Lead1"
				Note Time="50" Value="D3" Duration="30" Instrument="FP Lead1"
			Pattern Name="Pattern 16"
				Note Time="0" Value="D3" Duration="20" Instrument="FP Lead1"
				Note Time="50" Value="C#2" Duration="10" Instrument="FP Lead1"
				Note Time="60" Value="G#1" Duration="20" Instrument="FP Lead1"
			Pattern Name="Pattern 17"
				Note Time="0" Value="D2" Duration="10" Instrument="FP Lead1"
				Note Time="10" Value="C#2" Duration="30" Instrument="FP Lead1"
				Note Time="40" Value="C#2" Duration="20" Instrument="FP Lead1"
				Note Time="60" Value="G#2" Duration="10" Instrument="FP Lead1"
				Note Time="70" Value="C#3" Duration="10" Instrument="FP Lead1"
			Pattern Name="Pattern 18"
				Note Time="0" Value="B2" Duration="70" Instrument="FP Lead1"
				Note Time="70" Value="C#3" Duration="10" Instrument="FP Lead1"
			Pattern Name="Pattern 19"
				Note Time="0" Value="F#2" Duration="10" Instrument="FP Lead1"
				Note Time="30" Value="A1" Duration="20" Instrument="FP Lead1"
				Note Time="50" Value="D2" Duration="30" Instrument="FP Lead1"
			Pattern Name="Pattern 20"
				Note Time="0" Value="G#2" Duration="40" Instrument="FP Lead1"
				Note Time="40" Value="E2" Duration="30" Instrument="FP Lead1"
				Note Time="70" Value="B2" Duration="10" Instrument="FP Lead1"
			Pattern Name="Pattern 21"
				Note Time="0" Value="F#2" Duration="30" Instrument="FP Lead1"
				Note Time="30" Value="E2" Duration="40" Instrument="FP Lead1"
			Pattern Name="Pattern 22"
				Note Time="0" Value="G#2" Duration="10" Instrument="FP Lead1"
				Note Time="70" Value="D4" Duration="10" Instrument="FP Lead1"
			Pattern Name="Pattern 23"
				Note Time="0" Value="C#4" Duration="10" Instrument="FP Lead1"
				Note Time="10" Value="G#3" Duration="10" Instrument="FP Lead1"
				Note Time="30" Value="G#3" Duration="20" Instrument="FP Lead1"
				Note Time="50" Value="F#2" Duration="20" Instrument="FP Lead1"
				Note Time="70" Value="C#2" Duration="10" Instrument="FP Lead1"
			Pattern Name="Pattern 24"
				Note Time="0" Value="D2" Duration="20" Instrument="FP Lead1"
				Note Time="50" Value="E2" Duration="20" Instrument="FP Lead1"
				Note Time="70" Value="E2" Duration="10" Instrument="FP Lead1"
			Pattern Name="Pattern 25"
				Note Time="0" Value="D2" Duration="30" Instrument="FP Lead1"
				Note Time="30" Value="G#2" Duration="10" Instrument="FP Lead1"
				Note Time="40" Value="D2" Duration="10" Instrument="FP Lead1"
				Note Time="50" Value="G#1" Duration="20" Instrument="FP Lead1"
			Pattern Name="Pattern 26"
				Note Time="0" Value="F#1" Duration="10" Instrument="FP Lead1"
				Note Time="10" Value="F#1" Duration="30" Instrument="FP Lead1"
				Note Time="70" Value="F#1" Duration="10" Instrument="FP Lead1"
			Pattern Name="Pattern 27"
				Note Time="20" Value="B1" Duration="10" Instrument="FP Lead1"
				Note Time="30" Value="C#2" Duration="10" Instrument="FP Lead1"
				Note Time="40" Value="G#2" Duration="40" Instrument="FP Lead1"
			Pattern Name="Pattern 28"
				Note Time="30" Value="F#2" Duration="20" Instrument="FP Lead1"
			Pattern Name="Pattern 29"
				Note Time="0" Value="F#1" Duration="30" Instrument="FP Lead1"
				Note Time="30" Value="F#1" Duration="20" Instrument="FP Lead1"
				Note Time="50" Value="F#1" Duration="10" Instrument="FP Lead1"
				Note Time="60" Value="F#1" Duration="20" Instrument="FP Lead1"
			Pattern Name="Pattern 30"
				Note Time="0" Value="D4" Duration="80" Instrument="FP Lead1"
			Pattern Name="Pattern 31"
				Note Time="0" Value="D4" Duration="30" Instrument="FP Lead1"
				Note Time="30" Value="C#4" Duration="10" Instrument="FP Lead1"
				Note Time="40" Value="C#4" Duration="10" Instrument="FP Lead1"
			Pattern Name="Pattern 32"
				Note Time="0" Value="A2" Duration="70" Instrument="FP Lead1"
				Note Time="70" Value="G#2" Duration="10" Instrument="FP Lead1"
			PatternInstance Time="0" Pattern="Pattern 1"
			PatternInstance Time="1" Pattern="Pattern 2"
			PatternInstance Time="2" Pattern="Pattern 3"
			PatternInstance Time="3" Pattern="Pattern 4"
			PatternInstance Time="4" Pattern="Pattern 5"
			PatternInstance Time="5" Pattern="Pattern 6"
			PatternInstance Time="6" Pattern="Pattern 7"
			PatternInstance Time="7" Pattern="Pattern 8"
			PatternInstance Time="8" Pattern="Pattern 9"
			PatternInstance Time="9" Pattern="Pattern 10"
			PatternInstance Time="10" Pattern="Pattern 11"
			PatternInstance Time="11" Pattern="Pattern 12"
			PatternInstance Time="12" Pattern="Pattern 13"
			PatternInstance Time="13" Pattern="Pattern 14"
			PatternInstance Time="14" Pattern="Pattern 15"
			PatternInstance Time="15" Pattern="Pattern 16"
			PatternInstance Time="16" Pattern="Pattern 17"
			PatternInstance Time="17" Pattern="Pattern 18"
			PatternInstance Time="18" Pattern="Pattern 19"
			PatternInstance Time="19" Pattern="Pattern 20"
			PatternInstance Time="20" Pattern="Pattern 21"
			PatternInstance Time="21" Pattern="Pattern 22"
			PatternInstance Time="22" Pattern="Pattern 23"
			PatternInstance Time="23" Pattern="Pattern 24"
			PatternInstance Time="24" Pattern="Pattern 25"
			PatternInstance Time="25" Pattern="Pattern 26"
			PatternInstance Time="26" Pattern="Pattern 27"
			PatternInstance Time="27" Pattern="Pattern 28"
			PatternInstance Time="28" Pattern="Pattern 29"
			PatternInstance Time="29" Pattern="Pattern 30"
			PatternInstance Time="30" Pattern="Pattern 31"
			PatternInstance Time="31" Pattern="Pattern 32"
		Channel Type="Square2"
			Pattern Name="Pattern 1"
				Note Time="0" Value="G#3" Duration="10" Instrument="FP Lead1"
				Note Time="10" Value="G#3" Duration="20" Instrument="FP Lead1"
				Note Time="30" Value="B3" Duration="10" Instrument="FP Lead1"
				Note Time="40" Value="F#3" Duration="40" Instrument="FP Lead1"
			Pattern Name="Pattern 2"
				Note Time="0" Value="B2" Duration="50" Instrument="FP Lead1"
				Note Time="50" Value="D3" Duration="20" Instrument="FP Lead1"
				Note Time="70" Value="C#3" Duration="10" Instrument="FP Lead1"
			Pattern Name="Pattern 3"
				Note Time="0" Value="A4" Duration="10" Instrument="FP Lead1"
				Note Time="10" Value="C#5" Duration="10" Instrument="FP Lead1"
				Note Time="30" Value="D5" Duration="20" Instrument="FP Lead1"
				Note Time="50" Value="B4" Duration="30" Instrument="FP Lead1"
			Pattern Name="Pattern 4"
				Note Time="0" Value="A4" Duration="80" Instrument="FP Lead1"
			Pattern Name="Pattern 5"
				Note Time="0" Value="C#5" Duration="50" Instrument="FP Lead1"
				Note Time="50" Value="B4" Duration="30" Instrument="FP Lead1"
			Pattern Name="Pattern 6"
				Note Time="10" Value="A4" Duration="10" Instrument="FP Lead1"
			Pattern Name="Pattern 7"
				Note Time="0" Value="F#1" Duration="30" Instrument="FP Lead1"
				Note Time="30" Value="F#1" Duration="30" Instrument="FP Lead1"
				Note Time="60" Value="C#2" Duration="20" Instrument="FP Lead1"
			Pattern Name="Pattern 8"
				Note Time="0" Value="D2" Duration="10" Instrument="FP Lead1"
				Note Time="60" Value="E2" Duration="10" Instrument="FP Lead1"
				Note Time="70" Value="E2" Duration="10" Instrument="FP Lead1"
			Pattern Name="Pattern 9"
				Note Time="0" Value="E2" Duration="10" Instrument="FP Lead1"
				Note Time="10" Value="A1" Duration="20" Instrument="FP Lead1"
				Note Time="30" Value="D2" Duration="10" Instrument="FP Lead1"
				Note Time="40" Value="G#2" Duration="10" Instrument="FP Lead1"
			Pattern Name="Pattern 10"
				Note Time="0" Value="D3" Duration="10" Instrument="FP Lead1"
				Note Time="10" Value="A2" Duration="20" Instrument="FP Lead1"
				Note Time="30" Value="D2" Duration="10" Instrument="FP Lead1"
				Note Time="40" Value="A1" Duration="10" Instrument="FP Lead1"
				Note Time="50" Value="E2" Duration="10" Instrument="FP Lead1"
				Note Time="60" Value="A1" Duration="10" Instrument="FP Lead1"
				Note Time="70" Value="B1" Duration="10" Instrument="FP Lead1"
			Pattern Name="Pattern 11"
				Note Time="0" Value="F#1" Duration="20" Instrument="FP Lead1"
				Note Time="20" Value="F#1" Duration="60" Instrument="FP Lead1"
			Pattern Name="Pattern 12"
				Note Time="0" Value="A1" Duration="20" Instrument="FP Lead1"
				Note Time="40" Value="G#1" Duration="10" Instrument="FP Lead1"
				Note Time="50" Value="F#1" Duration="30" Instrument="FP Lead1"
			Pattern Name="Pattern 13"
				Note Time="0" Value="B1" Duration="10" Instrument="FP Lead1"
				Note Time="10" Value="F#2" Duration="60" Instrument="FP Lead1"
				Note Time="70" Value="E2" Duration="10" Instrument="FP Lead1"
			Pattern Name="Pattern 14"
				Note Time="0" Value="B1" Duration="10" Instrument="FP Lead1"
				Note Time="10" Value="A1" Duration="10" Instrument="FP Lead1"
				Note Time="20" Value="G#1" Duration="10" Instrument="FP Lead1"
				Note Time="40" Value="G#1" Duration="10" Instrument="FP Lead1"
				Note Time="50" Value="F#1" Duration="30" Instrument="FP Lead1"
			Pattern Name="Pattern 15"
				Note Time="0" Value="A1" Duration="20" Instrument="FP Lead1"
				Note Time="20" Value="A1" Duration="20" Instrument="FP Lead1"
				Note Time="40" Value="F#1" Duration="10" Instrument="FP Lead1"
				Note Time="50" Value="F#1" Duration="10" Instrument="FP Lead1"
				Note Time="60" Value="A1" Duration="20" Instrument="FP Lead1"
			Pattern Name="Pattern 16"
				Note Time="20" Value="C#2" Duration="30" Instrument="FP Lead1"
				Note Time="50" Value="G#1" Duration="10" Instrument="FP Lead1"
				Note Time="60" Value="F#1" Duration="20" Instrument="FP Lead1"
			Pattern Name="Pattern 17"
				Note Time="0" Value="G#1" Duration="80" Instrument="FP Lead1"
			Pattern Name="Pattern 18"
				Note Time="0" Value="G#1" Duration="10" Instrument="FP Lead1"
				Note Time="10" Value="G#1" Duration="10" Instrument="FP Lead1"
				Note Time="60" Value="A1" Duration="20" Instrument="FP Lead1"
			Pattern Name="Pattern 19"
				Note Time="0" Value="E2" Duration="10" Instrument="FP Lead1"
				Note Time="10" Value="B2" Duration="20" Instrument="FP Lead1"
				Note Time="30" Value="F#1" Duration="10" Instrument="FP Lead1"
				Note Time="60" Value="B1" Duration="10" Instrument="FP Lead1"
				Note Time="70" Value="C#3" Duration="10" Instrument="FP Lead1"
			Pattern Name="Pattern 20"
				Note Time="0" Value="G#2" Duration="20" Instrument="FP Lead1"
				Note Time="20" Value="D2" Duration="20" Instrument="FP Lead1"
				Note Time="40" Value="G#1" Duration="40" Instrument="FP Lead1"
			Pattern Name="Pattern 21"
				Note Time="10" Value="F#1" Duration="10" Instrument="FP Lead1"
				Note Time="20" Value="F#1" Duration="20" Instrument="FP Lead1"
				Note Time="40" Value="F#1" Duration="20" Instrument="FP Lead1"
				Note Time="60" Value="F#1" Duration="20" Instrument="FP Lead1"
			Pattern Name="Pattern 22"
				Note Time="0" Value="C#2" Duration="20" Instrument="FP Lead1"
				Note Time="20" Value="B1" Duration="60" Instrument="FP Lead1"
			Pattern Name="Pattern 23"
				Note Time="0" Value="F#1" Duration="60" Instrument="FP Lead1"
				Note Time="60" Value="C#2" Duration="20" Instrument="FP Lead1"
			Pattern Name="Pattern 24"
				Note Time="0" Value="F#2" Duration="10" Instrument="FP Lead1"
				Note Time="10" Value="A4" Duration="40" Instrument="FP Lead1"
			Pattern Name="Pattern 25"
				Note Time="0" Value="A4" Duration="10" Instrument="FP Lead1"
				Note Time="10" Value="F#4" Duration="20" Instrument="FP Lead1"
				Note Time="30" Value="E4" Duration="40" Instrument="FP Lead1"
				Note Time="70" Value="G#4" Duration="10" Instrument="FP Lead1"
			Pattern Name="Pattern 26"
				Note Time="0" Value="D4" Duration="10" Instrument="FP Lead1"
				Note Time="30" Value="B4" Duration="50" Instrument="FP Lead1"
			Pattern Name="Pattern 27"
				Note Time="0" Value="E5" Duration="20" Instrument="FP Lead1"
				Note Time="20" Value="D2" Duration="20" Instrument="FP Lead1"
				Note Time="40" Value="E2" Duration="10" Instrument="FP Lead1"
				Note Time="50" Value="C#2" Duration="10" Instrument="FP Lead1"
				Note Time="60" Value="A1" Duration="20" Instrument="FP Lead1"
			Pattern Name="Pattern 28"
				Note Time="0" Value="C#2" Duration="20" Instrument="FP Lead1"
				Note Time="40" Value="A1" Duration="20" Instrument="FP Lead1"
				Note Time="60" Value="F#1" Duration="20" Instrument="FP Lead1"
			Pattern Name="Pattern 29"
				Note Time="0" Value="F#1" Duration="20" Instrument="FP Lead1"
				Note Time="20" Value="B1" Duration="10" Instrument="FP Lead1"
				Note Time="60" Value="B2" Duration="10" Instrument="FP Lead1"
				Note Time="70" Value="F#3" Duration="10" Instrument="FP Lead1"
			Pattern Name="Pattern 30"
				Note Time="0" Value="C#3" Duration="20" Instrument="FP Lead1"
				Note Time="20" Value="F#2" Duration="30" Instrument="FP Lead1"
				Note Time="50" Value="C#4" Duration="10" Instrument="FP Lead1"
				Note Time="60" Value="G#4" Duration="20" Instrument="FP Lead1"
			Pattern Name="Pattern 31"
				Note Time="0" Value="F#4" Duration="10" Instrument="FP Lead1"
				Note Time="10" Value="C#5" Duration="60" Instrument="FP Lead1"
				Note Time="70" Value="E5" Duration="10" Instrument="FP Lead1"
			Pattern Name="Pattern 32"
				Note Time="10" Value="E5" Duration="30" Instrument="FP Lead1"
				Note Time="40" Value="D5" Duration="10" Instrument="FP Lead1"
				Note Time="50" Value="C#5" Duration="10" Instrument="FP Lead1"
				Note Time="60" Value="F#4" Duration="10" Instrument="FP Lead1"
				Note Time="70" Value="B4" Duration="10" Instrument="FP Lead1"
			PatternInstance Time="0" Pattern="Pattern 1"
			PatternInstance Time="1" Pattern="Pattern 2"
			PatternInstance Time="2" Pattern="Pattern 3"
			PatternInstance Time="3" Pattern="Pattern 4"
			PatternInstance Time="4" Pattern="Pattern 5"
			PatternInstance Time="5" Pattern="Pattern 6"
			PatternInstance Time="6" Pattern="Pattern 7"
			PatternInstance Time="7" Pattern="Pattern 8"
			PatternInstance Time="8" Pattern="Pattern 9"
			PatternInstance Time="9" Pattern="Pattern 10"
			PatternInstance Time="10" Pattern="Pattern 11"
			PatternInstance Time="11" Pattern="Pattern 12"
			PatternInstance Time="12" Pattern="Pattern 13"
			PatternInstance Time="13" Pattern="Pattern 14"
			PatternInstance Time="14" Pattern="Pattern 15"
			PatternInstance Time="15" Pattern="Pattern 16"
			PatternInstance Time="16" Pattern="Pattern 17"
			PatternInstance Time="17" Pattern="Pattern 18"
			PatternInstance Time="18" Pattern="Pattern 19"
			PatternInstance Time="19" Pattern="Pattern 20"
			PatternInstance Time="20" Pattern="Pattern 21"
			PatternInstance Time="21" Pattern="Pattern 22"
			PatternInstance Time="22" Pattern="Pattern 23"
			PatternInstance Time="23" Pattern="Pattern 24"
			PatternInstance Time="24" Pattern="Pattern 25"
			PatternInstance Time="25" Pattern="Pattern 26"
			PatternInstance Time="26" Pattern="Pattern 27"
			PatternInstance Time="27" Pattern="Pattern 28"
			PatternInstance Time="28" Pattern="Pattern 29"
			PatternInstance Time="29" Pattern="Pattern 30"
			PatternInstance Time="30" Pattern="Pattern 31"
			PatternInstance Time="31" Pattern="Pattern 32"
		Channel Type="Triangle"
			Pattern Name="Pattern 1"
				Note Time="0" Value="G#4" Duration="70" Instrument="FP TriBass"
				Note Time="70" Value="E4" Duration="10" Instrument="FP TriBass"
			Pattern Name="Pattern 2"
				Note Time="0" Value="E4" Duration="20" Instrument="FP TriBass"
				Note Time="20" Value="E4" Duration="10" Instrument="FP TriBass"
				Note Time="30" Value="E4" Duration="20" Instrument="FP TriBass"
				Note Time="50" Value="E4" Duration="30" Instrument="FP TriBass"
			Pattern Name="Pattern 3"
				Note Time="0" Value="E4" Duration="30" Instrument="FP TriBass"
				Note Time="30" Value="E4" Duration="40" Instrument="FP TriBass"
				Note Time="70" Value="E4" Duration="10" Instrument="FP TriBass"
			Pattern Name="Pattern 4"
				Note Time="0" Value="E4" Duration="80" Instrument="FP TriBass"
			Pattern Name="Pattern 5"
				Note Time="0" Value="E4" Duration="10" Instrument="FP TriBass"
				Note Time="10" Value="E4" Duration="10" Instrument="FP TriBass"
				Note Time="20" Value="E4" Duration="20" Instrument="FP TriBass"
				Note Time="40" Value="E4" Duration="40" Instrument="FP TriBass"
			Pattern Name="Pattern 6"
				Note Time="50" Value="G#3" Duration="20" Instrument="FP TriBass"
				Note Time="70" Value="D4" Duration="10" Instrument="FP TriBass"
			Pattern Name="Pattern 7"
				Note Time="0" Value="E4" Duration="30" Instrument="FP TriBass"
				Note Time="30" Value="E4" Duration="10" Instrument="FP TriBass"
				Note Time="40" Value="A3" Duration="30" Instrument="FP TriBass"
				Note Time="70" Value="C#4" Duration="10" Instrument="FP TriBass"
			Pattern Name="Pattern 8"
				Note Time="0" Value="B3" Duration="30" Instrument="FP TriBass"
				Note Time="30" Value="A3" Duration="10" Instrument="FP TriBass"
				Note Time="40" Value="C#4" Duration="40" Instrument="FP TriBass"
			Pattern Name="Pattern 9"
				Note Time="0" Value="D4" Duration="30" Instrument="FP TriBass"
				Note Time="30" Value="E4" Duration="50" Instrument="FP TriBass"
			Pattern Name="Pattern 10"
				Note Time="0" Value="E4" Duration="10" Instrument="FP TriBass"
				Note Time="10" Value="E4" Duration="50" Instrument="FP TriBass"
				Note Time="60" Value="E4" Duration="20" Instrument="FP TriBass"
			Pattern Name="Pattern 11"
				Note Time="0" Value="E4" Duration="10" Instrument="FP TriBass"
				Note Time="10" Value="E4" Duration="20" Instrument="FP TriBass"
				Note Time="30" Value="E4" Duration="50" Instrument="FP TriBass"
			Pattern Name="Pattern 12"
				Note Time="0" Value="E4" Duration="20" Instrument="FP TriBass"
				Note Time="20" Value="E4" Duration="30" Instrument="FP TriBass"
				Note Time="50" Value="E4" Duration="30" Instrument="FP TriBass"
			Pattern Name="Pattern 13"
				Note Time="0" Value="E4" Duration="10" Instrument="FP TriBass"
				Note Time="10" Value="C#4" Duration="20" Instrument="FP TriBass"
				Note Time="30" Value="G#3" Duration="50" Instrument="FP TriBass"
			Pattern Name="Pattern 14"
				Note Time="0" Value="D4" Duration="10" Instrument="FP TriBass"
				Note Time="10" Value="G#3" Duration="10" Instrument="FP TriBass"
				Note Time="40" Value="D3" Duration="10" Instrument="FP TriBass"
				Note Time="60" Value="F#2" Duration="10" Instrument="FP TriBass"
				Note Time="70" Value="G#3" Duration="10" Instrument="FP TriBass"
			Pattern Name="Pattern 15"
				Note Time="0" Value="D3" Duration="20" Instrument="FP TriBass"
				Note Time="70" Value="F#2" Duration="10" Instrument="FP TriBass"
			Pattern Name="Pattern 16"
				Note Time="0" Value="E2" Duration="20" Instrument="FP TriBass"
				Note Time="20" Value="E2" Duration="40" Instrument="FP TriBass"
				Note Time="60" Value="B2" Duration="20" Instrument="FP TriBass"
			Pattern Name="Pattern 17"
				Note Time="0" Value="B2" Duration="80" Instrument="FP TriBass"
			Pattern Name="Pattern 18"
				Note Time="0" Value="C#3" Duration="10" Instrument="FP TriBass"
				Note Time="10" Value="F#1" Duration="10" Instrument="FP TriBass"
				Note Time="20" Value="B1" Duration="60" Instrument="FP TriBass"
			Pattern Name="Pattern 19"
				Note Time="0" Value="A1" Duration="10" Instrument="FP TriBass"
				Note Time="10" Value="C#2" Duration="10" Instrument="FP TriBass"
				Note Time="20" Value="D2" Duration="30" Instrument="FP TriBass"
				Note Time="50" Value="F#2" Duration="30" Instrument="FP TriBass"
			Pattern Name="Pattern 20"
				Note Time="0" Value="B1" Duration="10" Instrument="FP TriBass"
				Note Time="10" Value="A1" Duration="10" Instrument="FP TriBass"
				Note Time="20" Value="C#2" Duration="60" Instrument="FP TriBass"
			Pattern Name="Pattern 21"
				Note Time="0" Value="A1" Duration="10" Instrument="FP TriBass"
				Note Time="10" Value="A1" Duration="50" Instrument="FP TriBass"
				Note Time="60" Value="B1" Duration="20" Instrument="FP TriBass"
			Pattern Name="Pattern 22"
				Note Time="0" Value="F#2" Duration="60" Instrument="FP TriBass"
				Note Time="60" Value="G#2" Duration="20" Instrument="FP TriBass"
			Pattern Name="Pattern 23"
				Note Time="50" Value="A3" Duration="10" Instrument="FP TriBass"
				Note Time="60" Value="C#4" Duration="20" Instrument="FP TriBass"
			Pattern Name="Pattern 24"
				Note Time="30" Value="E4" Duration="50" Instrument="FP TriBass"
			Pattern Name="Pattern 25"
				Note Time="0" Value="E4" Duration="30" Instrument="FP TriBass"
				Note Time="60" Value="G#2" Duration="20" Instrument="FP TriBass"
			Pattern Name="Pattern 26"
				Note Time="10" Value="A2" Duration="10" Instrument="FP TriBass"
				Note Time="20" Value="D2" Duration="60" Instrument="FP TriBass"
			Pattern Name="Pattern 27"
				Note Time="0" Value="G#2" Duration="20" Instrument="FP TriBass"
			Pattern Name="Pattern 28"
				Note Time="0" Value="C#2" Duration="80" Instrument="FP TriBass"
			Pattern Name="Pattern 29"
				Note Time="0" Value="A1" Duration="30" Instrument="FP TriBass"
				Note Time="30" Value="E2" Duration="20" Instrument="FP TriBass"
			Pattern Name="Pattern 30"
				Note Time="0" Value="G#2" Duration="80" Instrument="FP TriBass"
			Pattern Name="Pattern 31"
				Note Time="0" Value="D2" Duration="20" Instrument="FP TriBass"
				Note Time="20" Value="D2" Duration="50" Instrument="FP TriBass"
			Pattern Name="Pattern 32"
				Note Time="0" Value="F#2" Duration="80" Instrument="FP TriBass"
			PatternInstance Time="0" Pattern="Pattern 1"
			PatternInstance Time="1" Pattern="Pattern 2"
			PatternInstance Time="2" Pattern="Pattern 3"
			PatternInstance Time="3" Pattern="Pattern 4"
			PatternInstance Time="4" Pattern="Pattern 5"
			PatternInstance Time="5" Pattern="Pattern 6"
			PatternInstance Time="6" Pattern="Pattern 7"
			PatternInstance Time="7" Pattern="Pattern 8"
			PatternInstance Time="8" Pattern="Pattern 9"
			PatternInstance Time="9" Pattern="Pattern 10"
			PatternInstance Time="10" Pattern="Pattern 11"
			PatternInstance Time="11" Pattern="Pattern 12"
			PatternInstance Time="12" Pattern="Pattern 13"
			PatternInstance Time="13" Pattern="Pattern 14"
			PatternInstance Time="14" Pattern="Pattern 15"
			PatternInstance Time="15" Pattern="Pattern 16"
			PatternInstance Time="16" Pattern="Pattern 17"
			PatternInstance Time="17" Pattern="Pattern 18"
			PatternInstance Time="18" Pattern="Pattern 19"
			PatternInstance Time="19" Pattern="Pattern 20"
			PatternInstance Time="20" Pattern="Pattern 21"
			PatternInstance Time="21" Pattern="Pattern 22"
			PatternInstance Time="22" Pattern="Pattern 23"
			PatternInstance Time="23" Pattern="Pattern 24"
			PatternInstance Time="24" Pattern="Pattern 25"
			PatternInstance Time="25" Pattern="Pattern 26"
			PatternInstance Time="26" Pattern="Pattern 27"
			PatternInstance Time="27" Pattern="Pattern 28"
			PatternInstance Time="28" Pattern="Pattern 29"
			PatternInstance Time="29" Pattern="Pattern 30"
			PatternInstance Time="30" Pattern="Pattern 31"
			PatternInstance Time="31" Pattern="Pattern 32"
		Channel Type="Noise"
			Pattern Name="Pattern 1"
				Note Time="0" Value="G2" Duration="20" Instrument="FP NoiseBassDrum"
				Note Time="20" Value="G2" Duration="20" Instrument="FP NoiseBassDrum"
				Note Time="40" Value="E3" Duration="20" Instrument="FP NoiseHiHat"
				Note Time="60" Value="F4" Duration="20" Instrument="FP NoiseSnare"
			PatternInstance Time="0" Pattern="Pattern 1"
			PatternInstance Time="1" Pattern="Pattern 1"
			PatternInstance Time="2" Pattern="Pattern 1"
			PatternInstance Time="3" Pattern="Pattern 1"
			PatternInstance Time="4" Pattern="Pattern 1"
			PatternInstance Time="5" Pattern="Pattern 1"
			PatternInstance Time="6" Pattern="Pattern 1"
			PatternInstance Time="7" Pattern="Pattern 1"
			PatternInstance Time="8" Pattern="Pattern 1"
			PatternInstance Time="9" Pattern="Pattern 1"
			PatternInstance Time="10" Pattern="Pattern 1"
			PatternInstance Time="11" Pattern="Pattern 1"
			PatternInstance Time="12" Pattern="Pattern 1"
			PatternInstance Time="13" Pattern="Pattern 1"
			PatternInstance Time="14" Pattern="Pattern 1"
			PatternInstance Time="15" Pattern="Pattern 1"
			PatternInstance Time="16" Pattern="Pattern 1"
			PatternInstance Time="17" Pattern="Pattern 1"
			PatternInstance Time="18" Pattern="Pattern 1"
			PatternInstance Time="19" Pattern="Pattern 1"
			PatternInstance Time="20" Pattern="Pattern 1"
			PatternInstance Time="21" Pattern="Pattern 1"
			PatternInstance Time="22" Pattern="Pattern 1"
			PatternInstance Time="23" Pattern="Pattern 1"
			PatternInstance Time="24" Pattern="Pattern 1"
			PatternInstance Time="25" Pattern="Pattern 1"
			PatternInstance Time="26" Pattern="Pattern 1"
			PatternInstance Time="27" Pattern="Pattern 1"
			PatternInstance Time="28" Pattern="Pattern 1"
			PatternInstance Time="29" Pattern="Pattern 1"
			PatternInstance Time="30" Pattern="Pattern 1"
			PatternInstance Time="31" Pattern="Pattern 1"
		Channel Type="DPCM"
	Song Name="Groovin' in A Minor" Length="16" LoopPoint="0" PatternLength="16" BeatLength="4" NoteLength="9" Groove="9" GroovePaddingMode="Middle"
		Channel Type="Square1"
			Pattern Name="Pattern 0"
				Note Time="0" Value="Stop"
				Note Time="9" Value="D1" Duration="9" Instrument="FP Lead1"
				Note Time="18" Value="E1" Duration="18" Instrument="FP Lead1"
				Note Time="36" Value="C1" Duration="9" Instrument="FP Lead1"
				Note Time="45" Value="C1" Duration="36" Instrument="FP Lead1"
				Note Time="81" Value="D1" Duration="27" Instrument="FP Lead1"
				Note Time="108" Value="C1" Duration="9" Instrument="FP Lead1"
			Pattern Name="Pattern 1"
				Note Time="0" Value="C1" Duration="9" Instrument="FP Lead1"
				Note Time="9" Value="D1" Duration="27" Instrument="FP Lead1"
				Note Time="36" Value="A1" Duration="9" Instrument="FP Lead1"
				Note Time="45" Value="E1" Duration="18" Instrument="FP Lead1"
				Note Time="63" Value="C1" Duration="45" Instrument="FP Lead1"
				Note Time="108" Value="C1" Duration="9" Instrument="FP Lead1"
				Note Time="117" Value="A3" Duration="27" Instrument="FP Lead1"
			Pattern Name="Pattern 2"
				Note Time="45" Value="G3" Duration="36" Instrument="FP Lead1"
				Note Time="81" Value="D3" Duration="18" Instrument="FP Lead1"
				Note Time="108" Value="G3" Duration="9" Instrument="FP Lead1"
				Note Time="117" Value="C3" Duration="27" Instrument="FP Lead1"
			Pattern Name="Pattern 3"
				Note Time="0" Value="D3" Duration="18" Instrument="FP Lead1"
				Note Time="18" Value="E3" Duration="18" Instrument="FP Lead1"
				Note Time="36" Value="A4" Duration="9" Instrument="FP Lead1"
				Note Time="117" Value="C4" Duration="27" Instrument="FP Lead1"
			Pattern Name="Pattern 4"
				Note Time="0" Value="A3" Duration="36" Instrument="FP Lead1"
				Note Time="36" Value="G3" Duration="9" Instrument="FP Lead1"
				Note Time="135" Value="E2" Duration="9" Instrument="FP Lead1"
			Pattern Name="Pattern 5"
				Note Time="0" Value="C2" Duration="18" Instrument="FP Lead1"
				Note Time="18" Value="D2" Duration="9" Instrument="FP Lead1"
				Note Time="27" Value="A2" Duration="54" Instrument="FP Lead1"
				Note Time="90" Value="A2" Duration="36" Instrument="FP Lead1"
				Note Time="126" Value="E2" Duration="18" Instrument="FP Lead1"
			Pattern Name="Pattern 6"
				Note Time="0" Value="A1" Duration="9" Instrument="FP Lead1"
				Note Time="9" Value="D2" Duration="27" Instrument="FP Lead1"
				Note Time="36" Value="D2" Duration="18" Instrument="FP Lead1"
				Note Time="54" Value="C2" Duration="36" Instrument="FP Lead1"
				Note Time="90" Value="G2" Duration="18" Instrument="FP Lead1"
				Note Time="108" Value="C2" Duration="36" Instrument="FP Lead1"
			Pattern Name="Pattern 7"
				Note Time="0" Value="G2" Duration="27" Instrument="FP Lead1"
				Note Time="27" Value="D2" Duration="9" Instrument="FP Lead1"
				Note Time="36" Value="C2" Duration="18" Instrument="FP Lead1"
				Note Time="54" Value="C2" Duration="27" Instrument="FP Lead1"
				Note Time="81" Value="G2" Duration="9" Instrument="FP Lead1"
				Note Time="90" Value="C3" Duration="27" Instrument="FP Lead1"
			Pattern Name="Pattern 8"
				Note Time="0" Value="A3" Duration="36" Instrument="FP Lead1"
				Note Time="36" Value="E4" Duration="9" Instrument="FP Lead1"
				Note Time="45" Value="A3" Duration="9" Instrument="FP Lead1"
				Note Time="54" Value="D4" Duration="9" Instrument="FP Lead1"
				Note Time="63" Value="A3" Duration="81" Instrument="FP Lead1"
			Pattern Name="Pattern 9"
				Note Time="0" Value="E3" Duration="9" Instrument="FP Lead1"
				Note Time="9" Value="A2" Duration="9" Instrument="FP Lead1"
				Note Time="18" Value="D3" Duration="9" Instrument="FP Lead1"
				Note Time="27" Value="A3" Duration="18" Instrument="FP Lead1"
				Note Time="45" Value="C4" Duration="27" Instrument="FP Lead1"
				Note Time="72" Value="C4" Duration="27" Instrument="FP Lead1"
				Note Time="99" Value="G4" Duration="27" Instrument="FP Lead1"
				Note Time="126" Value="G4" Duration="9" Instrument="FP Lead1"
				Note Time="135" Value="G4" Duration="9" Instrument="FP Lead1"
			Pattern Name="Pattern 10"
				Note Time="0" Value="A4" Duration="27" Instrument="FP Lead1"
				Note Time="27" Value="A4" Duration="9" Instrument="FP Lead1"
				Note Time="36" Value="G4" Duration="45" Instrument="FP Lead1"
				Note Time="81" Value="A4" Duration="63" Instrument="FP Lead1"
			Pattern Name="Pattern 11"
				Note Time="0" Value="E4" Duration="18" Instrument="FP Lead1"
				Note Time="36" Value="D1" Duration="18" Instrument="FP Lead1"
				Note Time="54" Value="A2" Duration="18" Instrument="FP Lead1"
				Note Time="72" Value="E3" Duration="18" Instrument="FP Lead1"
				Note Time="90" Value="C3" Duration="36" Instrument="FP Lead1"
			Pattern Name="Pattern 12"
				Note Time="0" Value="E3" Duration="63" Instrument="FP Lead1"
				Note Time="63" Value="D3" Duration="27" Instrument="FP Lead1"
				Note Time="90" Value="C3" Duration="54" Instrument="FP Lead1"
			Pattern Name="Pattern 13"
				Note Time="0" Value="A2" Duration="36" Instrument="FP Lead1"
				Note Time="36" Value="E3" Duration="27" Instrument="FP Lead1"
				Note Time="63" Value="A2" Duration="18" Instrument="FP Lead1"
				Note Time="81" Value="A2" Duration="9" Instrument="FP Lead1"
				Note Time="90" Value="E2" Duration="27" Instrument="FP Lead1"
				Note Time="117" Value="C3" Duration="9" Instrument="FP Lead1"
				Note Time="135" Value="E2" Duration="9" Instrument="FP Lead1"
			Pattern Name="Pattern 14"
				Note Time="0" Value="E2" Duration="18" Instrument="FP Lead1"
				Note Time="18" Value="A1" Duration="54" Instrument="FP Lead1"
				Note Time="72" Value="E1" Duration="45" Instrument="FP Lead1"
				Note Time="117" Value="C2" Duration="27" Instrument="FP Lead1"
			Pattern Name="Pattern 15"
				Note Time="0" Value="D2" Duration="36" Instrument="FP Lead1"
				Note Time="36" Value="E2" Duration="9" Instrument="FP Lead1"
				Note Time="45" Value="G2" Duration="18" Instrument="FP Lead1"
				Note Time="63" Value="D2" Duration="27" Instrument="FP Lead1"
				Note Time="117" Value="C3" Duration="27" Instrument="FP Lead1"
			PatternInstance Time="0" Pattern="Pattern 0"
			PatternInstance Time="1" Pattern="Pattern 1"
			PatternInstance Time="2" Pattern="Pattern 2"
			PatternInstance Time="3" Pattern="Pattern 3"
			PatternInstance Time="4" Pattern="Pattern 4"
			PatternInstance Time="5" Pattern="Pattern 5"
			PatternInstance Time="6" Pattern="Pattern 6"
			PatternInstance Time="7" Pattern="Pattern 7"
			PatternInstance Time="8" Pattern="Pattern 8"
			PatternInstance Time="9" Pattern="Pattern 9"
			PatternInstance Time="10" Pattern="Pattern 10"
			PatternInstance Time="11" Pattern="Pattern 11"
			PatternInstance Time="12" Pattern="Pattern 12"
			PatternInstance Time="13" Pattern="Pattern 13"
			PatternInstance Time="14" Pattern="Pattern 14"
			PatternInstance Time="15" Pattern="Pattern 15"
		Channel Type="Square2"
			Pattern Name="Pattern 0"
				Note Time="0" Value="E2" Duration="90" Instrument="FP Lead1"
				Note Time="99" Value="E3" Duration="9" Instrument="FP Lead1"
				Note Time="108" Value="A2" Duration="9" Instrument="FP Lead1"
				Note Time="117" Value="A2" Duration="9" Instrument="FP Lead1"
				Note Time="126" Value="D2" Duration="18" Instrument="FP Lead1"
			Pattern Name="Pattern 1"
				Note Time="0" Value="C4" Duration="27" Instrument="FP Lead1"
				Note Time="27" Value="A3" Duration="18" Instrument="FP Lead1"
				Note Time="81" Value="E1" Duration="36" Instrument="FP Lead1"
				Note Time="117" Value="E1" Duration="9" Instrument="FP Lead1"
				Note Time="135" Value="G1" Duration="9" Instrument="FP Lead1"
			Pattern Name="Pattern 2"
				Note Time="0" Value="A1" Duration="9" Instrument="FP Lead1"
				Note Time="9" Value="D1" Duration="27" Instrument="FP Lead1"
				Note Time="36" Value="A1" Duration="45" Instrument="FP Lead1"
			Pattern Name="Pattern 3"
				Note Time="0" Value="G1" Duration="18" Instrument="FP Lead1"
				Note Time="18" Value="D2" Duration="27" Instrument="FP Lead1"
				Note Time="45" Value="G2" Duration="9" Instrument="FP Lead1"
				Note Time="54" Value="E2" Duration="9" Instrument="FP Lead1"
				Note Time="63" Value="A1" Duration="63" Instrument="FP Lead1"
				Note Time="126" Value="C2" Duration="9" Instrument="FP Lead1"
				Note Time="135" Value="E1" Duration="9" Instrument="FP Lead1"
			Pattern Name="Pattern 4"
				Note Time="54" Value="C1" Duration="36" Instrument="FP Lead1"
				Note Time="90" Value="D1" Duration="54" Instrument="FP Lead1"
			Pattern Name="Pattern 5"
				Note Time="0" Value="G1" Duration="45" Instrument="FP Lead1"
				Note Time="45" Value="D1" Duration="9" Instrument="FP Lead1"
				Note Time="54" Value="D1" Duration="27" Instrument="FP Lead1"
				Note Time="81" Value="C1" Duration="63" Instrument="FP Lead1"
			Pattern Name="Pattern 6"
				Note Time="0" Value="C1" Duration="81" Instrument="FP Lead1"
				Note Time="81" Value="C1" Duration="54" Instrument="FP Lead1"
				Note Time="135" Value="E1" Duration="9" Instrument="FP Lead1"
			Pattern Name="Pattern 7"
				Note Time="0" Value="E1" Duration="27" Instrument="FP Lead1"
				Note Time="27" Value="A1" Duration="18" Instrument="FP Lead1"
				Note Time="45" Value="E2" Duration="45" Instrument="FP Lead1"
			Pattern Name="Pattern 8"
				Note Time="0" Value="E1" Duration="36" Instrument="FP Lead1"
				Note Time="81" Value="C2" Duration="63" Instrument="FP Lead1"
			Pattern Name="Pattern 9"
				Note Time="0" Value="E2" Duration="18" Instrument="FP Lead1"
				Note Time="18" Value="C3" Duration="9" Instrument="FP Lead1"
				Note Time="27" Value="E3" Duration="81" Instrument="FP Lead1"
				Note Time="108" Value="A3" Duration="36" Instrument="FP Lead1"
			Pattern Name="Pattern 10"
				Note Time="0" Value="C4" Duration="27" Instrument="FP Lead1"
				Note Time="54" Value="E4" Duration="36" Instrument="FP Lead1"
				Note Time="90" Value="A4" Duration="9" Instrument="FP Lead1"
				Note Time="99" Value="E4" Duration="18" Instrument="FP Lead1"
				Note Time="117" Value="E4" Duration="9" Instrument="FP Lead1"
				Note Time="126" Value="E4" Duration="9" Instrument="FP Lead1"
				Note Time="135" Value="A4" Duration="9" Instrument="FP Lead1"
			Pattern Name="Pattern 11"
				Note Time="0" Value="A4" Duration="9" Instrument="FP Lead1"
				Note Time="9" Value="A4" Duration="9" Instrument="FP Lead1"
				Note Time="18" Value="G4" Duration="45" Instrument="FP Lead1"
				Note Time="63" Value="G4" Duration="81" Instrument="FP Lead1"
			Pattern Name="Pattern 12"
				Note Time="0" Value="A4" Duration="9" Instrument="FP Lead1"
				Note Time="9" Value="E1" Duration="90" Instrument="FP Lead1"
				Note Time="99" Value="D1" Duration="9" Instrument="FP Lead1"
				Note Time="108" Value="C4" Duration="36" Instrument="FP Lead1"
			Pattern Name="Pattern 13"
				Note Time="0" Value="C4" Duration="18" Instrument="FP Lead1"
				Note Time="18" Value="D4" Duration="9" Instrument="FP Lead1"
				Note Time="27" Value="G4" Duration="36" Instrument="FP Lead1"
				Note Time="63" Value="C4" Duration="36" Instrument="FP Lead1"
				Note Time="99" Value="A3" Duration="18" Instrument="FP Lead1"
				Note Time="117" Value="A3" Duration="9" Instrument="FP Lead1"
				Note Time="126" Value="D4" Duration="18" Instrument="FP Lead1"
			Pattern Name="Pattern 14"
				Note Time="0" Value="D4" Duration="18" Instrument="FP Lead1"
				Note Time="18" Value="A3" Duration="45" Instrument="FP Lead1"
				Note Time="63" Value="C4" Duration="45" Instrument="FP Lead1"
				Note Time="108" Value="C4" Duration="36" Instrument="FP Lead1"
			Pattern Name="Pattern 15"
				Note Time="0" Value="A3" Duration="18" Instrument="FP Lead1"
				Note Time="18" Value="E4" Duration="9" Instrument="FP Lead1"
				Note Time="27" Value="G1" Duration="27" Instrument="FP Lead1"
				Note Time="54" Value="C1" Duration="9" Instrument="FP Lead1"
				Note Time="63" Value="E1" Duration="27" Instrument="FP Lead1"
				Note Time="90" Value="C2" Duration="36" Instrument="FP Lead1"
				Note Time="126" Value="E1" Duration="18" Instrument="FP Lead1"
			PatternInstance Time="0" Pattern="Pattern 0"
			PatternInstance Time="1" Pattern="Pattern 1"
			PatternInstance Time="2" Pattern="Pattern 2"
			PatternInstance Time="3" Pattern="Pattern 3"
			PatternInstance Time="4" Pattern="Pattern 4"
			PatternInstance Time="5" Pattern="Pattern 5"
			PatternInstance Time="6" Pattern="Pattern 6"
			PatternInstance Time="7" Pattern="Pattern 7"
			PatternInstance Time="8" Pattern="Pattern 8"
			PatternInstance Time="9" Pattern="Pattern 9"
			PatternInstance Time="10" Pattern="Pattern 10"
			PatternInstance Time="11" Pattern="Pattern 11"
			PatternInstance Time="12" Pattern="Pattern 12"
			PatternInstance Time="13" Pattern="Pattern 13"
			PatternInstance Time="14" Pattern="Pattern 14"
			PatternInstance Time="15" Pattern="Pattern 15"
		Channel Type="Triangle"
			Pattern Name="Pattern 0"
				Note Time="0" Value="Stop"
				Note Time="45" Value="D3" Duration="27" Instrument="FP TriBass"
				Note Time="72" Value="G3" Duration="54" Instrument="FP TriBass"
			Pattern Name="Pattern 1"
				Note Time="0" Value="E2" Duration="18" Instrument="FP TriBass"
				Note Time="18" Value="D2" Duration="81" Instrument="FP TriBass"
				Note Time="108" Value="D3" Duration="9" Instrument="FP TriBass"
				Note Time="117" Value="E3" Duration="18" Instrument="FP TriBass"
				Note Time="135" Value="E3" Duration="9" Instrument="FP TriBass"
			Pattern Name="Pattern 2"
				Note Time="0" Value="D3" Duration="45" Instrument="FP TriBass"
				Note Time="45" Value="E3" Duration="18" Instrument="FP TriBass"
				Note Time="63" Value="A3" Duration="9" Instrument="FP TriBass"
				Note Time="72" Value="E3" Duration="45" Instrument="FP TriBass"
				Note Time="117" Value="A2" Duration="27" Instrument="FP TriBass"
			Pattern Name="Pattern 3"
				Note Time="27" Value="A2" Duration="18" Instrument="FP TriBass"
				Note Time="45" Value="G2" Duration="9" Instrument="FP TriBass"
				Note Time="54" Value="D2" Duration="81" Instrument="FP TriBass"
				Note Time="135" Value="G2" Duration="9" Instrument="FP TriBass"
			Pattern Name="Pattern 4"
				Note Time="0" Value="G2" Duration="9" Instrument="FP TriBass"
				Note Time="9" Value="C2" Duration="9" Instrument="FP TriBass"
				Note Time="18" Value="G1" Duration="99" Instrument="FP TriBass"
				Note Time="117" Value="C1" Duration="9" Instrument="FP TriBass"
				Note Time="126" Value="C1" Duration="18" Instrument="FP TriBass"
			Pattern Name="Pattern 5"
				Note Time="81" Value="G1" Duration="18" Instrument="FP TriBass"
				Note Time="99" Value="D2" Duration="9" Instrument="FP TriBass"
				Note Time="126" Value="D2" Duration="18" Instrument="FP TriBass"
			Pattern Name="Pattern 6"
				Note Time="0" Value="A1" Duration="18" Instrument="FP TriBass"
				Note Time="18" Value="E1" Duration="36" Instrument="FP TriBass"
				Note Time="54" Value="C1" Duration="18" Instrument="FP TriBass"
				Note Time="72" Value="C1" Duration="72" Instrument="FP TriBass"
			Pattern Name="Pattern 7"
				Note Time="18" Value="C1" Duration="90" Instrument="FP TriBass"
				Note Time="108" Value="C1" Duration="27" Instrument="FP TriBass"
				Note Time="135" Value="D1" Duration="9" Instrument="FP TriBass"
			Pattern Name="Pattern 8"
				Note Time="0" Value="D1" Duration="45" Instrument="FP TriBass"
				Note Time="45" Value="C1" Duration="18" Instrument="FP TriBass"
				Note Time="63" Value="C1" Duration="9" Instrument="FP TriBass"
				Note Time="72" Value="C1" Duration="9" Instrument="FP TriBass"
				Note Time="81" Value="C1" Duration="27" Instrument="FP TriBass"
				Note Time="108" Value="G1" Duration="9" Instrument="FP TriBass"
				Note Time="117" Value="D2" Duration="9" Instrument="FP TriBass"
				Note Time="126" Value="G2" Duration="18" Instrument="FP TriBass"
			Pattern Name="Pattern 9"
				Note Time="0" Value="D2" Duration="18" Instrument="FP TriBass"
				Note Time="18" Value="A1" Duration="126" Instrument="FP TriBass"
			Pattern Name="Pattern 10"
				Note Time="0" Value="D1" Duration="18" Instrument="FP TriBass"
				Note Time="18" Value="G1" Duration="18" Instrument="FP TriBass"
				Note Time="36" Value="C2" Duration="9" Instrument="FP TriBass"
				Note Time="45" Value="C2" Duration="45" Instrument="FP TriBass"
			Pattern Name="Pattern 11"
				Note Time="99" Value="C3" Duration="36" Instrument="FP TriBass"
				Note Time="135" Value="C3" Duration="9" Instrument="FP TriBass"
			Pattern Name="Pattern 12"
				Note Time="27" Value="G2" Duration="63" Instrument="FP TriBass"
				Note Time="90" Value="G2" Duration="54" Instrument="FP TriBass"
			Pattern Name="Pattern 13"
				Note Time="63" Value="C3" Duration="18" Instrument="FP TriBass"
				Note Time="108" Value="A3" Duration="36" Instrument="FP TriBass"
			Pattern Name="Pattern 14"
				Note Time="9" Value="G3" Duration="18" Instrument="FP TriBass"
				Note Time="36" Value="A3" Duration="27" Instrument="FP TriBass"
				Note Time="108" Value="A3" Duration="27" Instrument="FP TriBass"
				Note Time="135" Value="A3" Duration="9" Instrument="FP TriBass"
			Pattern Name="Pattern 15"
				Note Time="0" Value="A3" Duration="36" Instrument="FP TriBass"
				Note Time="36" Value="D3" Duration="9" Instrument="FP TriBass"
				Note Time="45" Value="C3" Duration="9" Instrument="FP TriBass"
				Note Time="54" Value="D3" Duration="9" Instrument="FP TriBass"
				Note Time="63" Value="A1" Duration="54" Instrument="FP TriBass"
				Note Time="117" Value="A2" Duration="27" Instrument="FP TriBass"
			PatternInstance Time="0" Pattern="Pattern 0"
			PatternInstance Time="1" Pattern="Pattern 1"
			PatternInstance Time="2" Pattern="Pattern 2"
			PatternInstance Time="3" Pattern="Pattern 3"
			PatternInstance Time="4" Pattern="Pattern 4"
			PatternInstance Time="5" Pattern="Pattern 5"
			PatternInstance Time="6" Pattern="Pattern 6"
			PatternInstance Time="7" Pattern="Pattern 7"
			PatternInstance Time="8" Pattern="Pattern 8"
			PatternInstance Time="9" Pattern="Pattern 9"
			PatternInstance Time="10" Pattern="Pattern 10"
			PatternInstance Time="11" Pattern="Pattern 11"
			PatternInstance Time="12" Pattern="Pattern 12"
			PatternInstance Time="13" Pattern="Pattern 13"
			PatternInstance Time="14" Pattern="Pattern 14"
			PatternInstance Time="15" Pattern="Pattern 15"
		Channel Type="Noise"
			Pattern Name="Pattern 1"
				Note Time="36" Value="F4" Duration="54" Instrument="FP NoiseSnare"
				Note Time="90" Value="F4" Duration="18" Instrument="FP NoiseSnare"
				Note Time="108" Value="E3" Duration="72" Instrument="FP NoiseHiHat"
			PatternInstance Time="0" Pattern="Pattern 1"
			PatternInstance Time="1" Pattern="Pattern 1"
			PatternInstance Time="2" Pattern="Pattern 1"
			PatternInstance Time="3" Pattern="Pattern 1"
			PatternInstance Time="4" Pattern="Pattern 1"
			PatternInstance Time="5" Pattern="Pattern 1"
			PatternInstance Time="6" Pattern="Pattern 1"
			PatternInstance Time="7" Pattern="Pattern 1"
			PatternInstance Time="8" Pattern="Pattern 1"
			PatternInstance Time="9" Pattern="Pattern 1"
			PatternInstance Time="10" Pattern="Pattern 1"
			PatternInstance Time="11" Pattern="Pattern 1"
			PatternInstance Time="12" Pattern="Pattern 1"
			PatternInstance Time="13" Pattern="Pattern 1"
			PatternInstance Time="14" Pattern="Pattern 1"
			PatternInstance Time="15" Pattern="Pattern 1"
		Channel Type="DPCM"
	Song Name="The End in C Minor" Length="16" LoopPoint="0" PatternLength="16" BeatLength="4" NoteLength="11" Groove="11" GroovePaddingMode="Middle"
		Channel Type="Square1"
			Pattern Name="Pattern 0"
				Note Time="0" Value="A#2" Duration="44" Instrument="FP Lead1"
				Note Time="44" Value="D#2" Duration="55" Instrument="FP Lead1"
				Note Time="99" Value="G2" Duration="22" Instrument="FP Lead1"
				Note Time="143" Value="A#2" Duration="11" Instrument="FP Lead1"
				Note Time="154" Value="D#3" Duration="11" Instrument="FP Lead1"
				Note Time="165" Value="C3" Duration="11" Instrument="FP Lead1"
			Pattern Name="Pattern 1"
				Note Time="0" Value="G3" Duration="11" Instrument="FP Lead1"
				Note Time="11" Value="D#4" Duration="11" Instrument="FP Lead1"
				Note Time="33" Value="D#4" Duration="22" Instrument="FP Lead1"
				Note Time="55" Value="C4" Duration="110" Instrument="FP Lead1"
				Note Time="165" Value="D#2" Duration="11" Instrument="FP Lead1"
			Pattern Name="Pattern 2"
				Note Time="0" Value="F2" Duration="22" Instrument="FP Lead1"
				Note Time="55" Value="G1" Duration="22" Instrument="FP Lead1"
				Note Time="77" Value="F1" Duration="22" Instrument="FP Lead1"
				Note Time="99" Value="D#1" Duration="77" Instrument="FP Lead1"
			Pattern Name="Pattern 3"
				Note Time="33" Value="G1" Duration="22" Instrument="FP Lead1"
				Note Time="55" Value="D#1" Duration="22" Instrument="FP Lead1"
				Note Time="77" Value="D#1" Duration="11" Instrument="FP Lead1"
				Note Time="88" Value="D#1" Duration="33" Instrument="FP Lead1"
				Note Time="121" Value="A#1" Duration="11" Instrument="FP Lead1"
				Note Time="132" Value="F2" Duration="44" Instrument="FP Lead1"
			Pattern Name="Pattern 4"
				Note Time="0" Value="A#1" Duration="11" Instrument="FP Lead1"
				Note Time="11" Value="G1" Duration="11" Instrument="FP Lead1"
				Note Time="22" Value="G1" Duration="77" Instrument="FP Lead1"
				Note Time="99" Value="D#1" Duration="11" Instrument="FP Lead1"
				Note Time="110" Value="D#3" Duration="33" Instrument="FP Lead1"
				Note Time="143" Value="F4" Duration="11" Instrument="FP Lead1"
				Note Time="154" Value="A#4" Duration="11" Instrument="FP Lead1"
				Note Time="165" Value="G4" Duration="11" Instrument="FP Lead1"
			Pattern Name="Pattern 5"
				Note Time="0" Value="C4" Duration="11" Instrument="FP Lead1"
				Note Time="11" Value="F3" Duration="11" Instrument="FP Lead1"
				Note Time="22" Value="G3" Duration="110" Instrument="FP Lead1"
				Note Time="132" Value="F1" Duration="22" Instrument="FP Lead1"
				Note Time="154" Value="A#1" Duration="11" Instrument="FP Lead1"
				Note Time="165" Value="F2" Duration="11" Instrument="FP Lead1"
			Pattern Name="Pattern 6"
				Note Time="0" Value="D#2" Duration="44" Instrument="FP Lead1"
				Note Time="44" Value="D#2" Duration="22" Instrument="FP Lead1"
				Note Time="66" Value="A#1" Duration="22" Instrument="FP Lead1"
				Note Time="99" Value="D#1" Duration="66" Instrument="FP Lead1"
				Note Time="165" Value="G1" Duration="11" Instrument="FP Lead1"
			Pattern Name="Pattern 7"
				Note Time="0" Value="G1" Duration="88" Instrument="FP Lead1"
				Note Time="88" Value="D#2" Duration="33" Instrument="FP Lead1"
				Note Time="121" Value="G2" Duration="44" Instrument="FP Lead1"
				Note Time="165" Value="A#2" Duration="11" Instrument="FP Lead1"
			Pattern Name="Pattern 8"
				Note Time="0" Value="D#3" Duration="33" Instrument="FP Lead1"
				Note Time="33" Value="A#2" Duration="22" Instrument="FP Lead1"
				Note Time="66" Value="A#1" Duration="55" Instrument="FP Lead1"
				Note Time="121" Value="D#2" Duration="22" Instrument="FP Lead1"
				Note Time="143" Value="A#1" Duration="33" Instrument="FP Lead1"
			Pattern Name="Pattern 9"
				Note Time="0" Value="D#3" Duration="22" Instrument="FP Lead1"
				Note Time="22" Value="F3" Duration="11" Instrument="FP Lead1"
				Note Time="33" Value="F3" Duration="11" Instrument="FP Lead1"
				Note Time="44" Value="C4" Duration="33" Instrument="FP Lead1"
				Note Time="77" Value="A#3" Duration="44" Instrument="FP Lead1"
				Note Time="121" Value="A#3" Duration="22" Instrument="FP Lead1"
			Pattern Name="Pattern 10"
				Note Time="66" Value="G4" Duration="11" Instrument="FP Lead1"
				Note Time="77" Value="C5" Duration="11" Instrument="FP Lead1"
				Note Time="88" Value="F4" Duration="33" Instrument="FP Lead1"
				Note Time="121" Value="A#3" Duration="55" Instrument="FP Lead1"
			Pattern Name="Pattern 11"
				Note Time="22" Value="G4" Duration="11" Instrument="FP Lead1"
				Note Time="33" Value="A#4" Duration="22" Instrument="FP Lead1"
				Note Time="55" Value="C5" Duration="11" Instrument="FP Lead1"
				Note Time="99" Value="C5" Duration="33" Instrument="FP Lead1"
				Note Time="132" Value="C5" Duration="11" Instrument="FP Lead1"
				Note Time="143" Value="C5" Duration="33" Instrument="FP Lead1"
			Pattern Name="Pattern 12"
				Note Time="0" Value="C5" Duration="77" Instrument="FP Lead1"
				Note Time="110" Value="C5" Duration="33" Instrument="FP Lead1"
				Note Time="143" Value="C5" Duration="33" Instrument="FP Lead1"
			Pattern Name="Pattern 13"
				Note Time="0" Value="A#4" Duration="22" Instrument="FP Lead1"
				Note Time="77" Value="C5" Duration="11" Instrument="FP Lead1"
				Note Time="88" Value="A#4" Duration="11" Instrument="FP Lead1"
				Note Time="165" Value="D#4" Duration="11" Instrument="FP Lead1"
			Pattern Name="Pattern 14"
				Note Time="0" Value="A#3" Duration="11" Instrument="FP Lead1"
				Note Time="11" Value="D#3" Duration="88" Instrument="FP Lead1"
				Note Time="99" Value="C3" Duration="22" Instrument="FP Lead1"
				Note Time="121" Value="A#2" Duration="11" Instrument="FP Lead1"
				Note Time="132" Value="D#3" Duration="11" Instrument="FP Lead1"
				Note Time="143" Value="A#2" Duration="11" Instrument="FP Lead1"
				Note Time="154" Value="D#3" Duration="22" Instrument="FP Lead1"
			Pattern Name="Pattern 15"
				Note Time="0" Value="D#3" Duration="55" Instrument="FP Lead1"
				Note Time="143" Value="G3" Duration="33" Instrument="FP Lead1"
			PatternInstance Time="0" Pattern="Pattern 0"
			PatternInstance Time="1" Pattern="Pattern 1"
			PatternInstance Time="2" Pattern="Pattern 2"
			PatternInstance Time="3" Pattern="Pattern 3"
			PatternInstance Time="4" Pattern="Pattern 4"
			PatternInstance Time="5" Pattern="Pattern 5"
			PatternInstance Time="6" Pattern="Pattern 6"
			PatternInstance Time="7" Pattern="Pattern 7"
			PatternInstance Time="8" Pattern="Pattern 8"
			PatternInstance Time="9" Pattern="Pattern 9"
			PatternInstance Time="10" Pattern="Pattern 10"
			PatternInstance Time="11" Pattern="Pattern 11"
			PatternInstance Time="12" Pattern="Pattern 12"
			PatternInstance Time="13" Pattern="Pattern 13"
			PatternInstance Time="14" Pattern="Pattern 14"
			PatternInstance Time="15" Pattern="Pattern 15"
		Channel Type="Square2"
			Pattern Name="Pattern 0"
				Note Time="0" Value="D#3" Duration="55" Instrument="FP Lead1"
				Note Time="55" Value="D#3" Duration="11" Instrument="FP Lead1"
				Note Time="66" Value="G3" Duration="22" Instrument="FP Lead1"
				Note Time="88" Value="G3" Duration="77" Instrument="FP Lead1"
				Note Time="165" Value="F3" Duration="11" Instrument="FP Lead1"
			Pattern Name="Pattern 1"
				Note Time="0" Value="A#2" Duration="11" Instrument="FP Lead1"
				Note Time="11" Value="D#3" Duration="11" Instrument="FP Lead1"
				Note Time="22" Value="C3" Duration="22" Instrument="FP Lead1"
				Note Time="44" Value="D#3" Duration="44" Instrument="FP Lead1"
				Note Time="88" Value="D#3" Duration="44" Instrument="FP Lead1"
				Note Time="143" Value="F2" Duration="33" Instrument="FP Lead1"
			Pattern Name="Pattern 2"
				Note Time="22" Value="A#1" Duration="11" Instrument="FP Lead1"
				Note Time="33" Value="A#1" Duration="44" Instrument="FP Lead1"
				Note Time="77" Value="F2" Duration="44" Instrument="FP Lead1"
				Note Time="132" Value="F3" Duration="22" Instrument="FP Lead1"
				Note Time="154" Value="A#3" Duration="11" Instrument="FP Lead1"
			Pattern Name="Pattern 3"
				Note Time="0" Value="G3" Duration="11" Instrument="FP Lead1"
				Note Time="11" Value="D#4" Duration="22" Instrument="FP Lead1"
				Note Time="33" Value="G4" Duration="66" Instrument="FP Lead1"
				Note Time="99" Value="D#4" Duration="11" Instrument="FP Lead1"
				Note Time="110" Value="A#3" Duration="55" Instrument="FP Lead1"
				Note Time="165" Value="F4" Duration="11" Instrument="FP Lead1"
			Pattern Name="Pattern 4"
				Note Time="77" Value="C3" Duration="66" Instrument="FP Lead1"
				Note Time="143" Value="C3" Duration="33" Instrument="FP Lead1"
			Pattern Name="Pattern 5"
				Note Time="44" Value="G3" Duration="22" Instrument="FP Lead1"
				Note Time="66" Value="C3" Duration="22" Instrument="FP Lead1"
				Note Time="88" Value="F3" Duration="44" Instrument="FP Lead1"
				Note Time="132" Value="G3" Duration="22" Instrument="FP Lead1"
				Note Time="154" Value="C4" Duration="22" Instrument="FP Lead1"
			Pattern Name="Pattern 6"
				Note Time="0" Value="D#4" Duration="11" Instrument="FP Lead1"
				Note Time="33" Value="A#2" Duration="11" Instrument="FP Lead1"
				Note Time="44" Value="F3" Duration="44" Instrument="FP Lead1"
				Note Time="88" Value="G3" Duration="11" Instrument="FP Lead1"
				Note Time="110" Value="A#2" Duration="11" Instrument="FP Lead1"
				Note Time="121" Value="F3" Duration="33" Instrument="FP Lead1"
				Note Time="154" Value="G3" Duration="22" Instrument="FP Lead1"
			Pattern Name="Pattern 7"
				Note Time="0" Value="F3" Duration="11" Instrument="FP Lead1"
				Note Time="11" Value="D#3" Duration="11" Instrument="FP Lead1"
				Note Time="22" Value="G2" Duration="33" Instrument="FP Lead1"
				Note Time="55" Value="D#2" Duration="55" Instrument="FP Lead1"
				Note Time="121" Value="D#3" Duration="11" Instrument="FP Lead1"
				Note Time="132" Value="D#3" Duration="11" Instrument="FP Lead1"
				Note Time="143" Value="A#2" Duration="33" Instrument="FP Lead1"
			Pattern Name="Pattern 8"
				Note Time="0" Value="C2" Duration="11" Instrument="FP Lead1"
				Note Time="11" Value="G1" Duration="44" Instrument="FP Lead1"
				Note Time="55" Value="G1" Duration="11" Instrument="FP Lead1"
				Note Time="66" Value="G1" Duration="55" Instrument="FP Lead1"
				Note Time="121" Value="F1" Duration="44" Instrument="FP Lead1"
			Pattern Name="Pattern 9"
				Note Time="0" Value="F2" Duration="22" Instrument="FP Lead1"
				Note Time="22" Value="C2" Duration="11" Instrument="FP Lead1"
				Note Time="66" Value="D#2" Duration="77" Instrument="FP Lead1"
				Note Time="143" Value="C2" Duration="22" Instrument="FP Lead1"
				Note Time="165" Value="G2" Duration="11" Instrument="FP Lead1"
			Pattern Name="Pattern 10"
				Note Time="0" Value="G2" Duration="44" Instrument="FP Lead1"
				Note Time="44" Value="C2" Duration="11" Instrument="FP Lead1"
				Note Time="55" Value="C2" Duration="11" Instrument="FP Lead1"
				Note Time="66" Value="G1" Duration="33" Instrument="FP Lead1"
				Note Time="99" Value="G3" Duration="22" Instrument="FP Lead1"
				Note Time="121" Value="F3" Duration="11" Instrument="FP Lead1"
				Note Time="132" Value="D#3" Duration="22" Instrument="FP Lead1"
			Pattern Name="Pattern 11"
				Note Time="0" Value="D#2" Duration="11" Instrument="FP Lead1"
				Note Time="11" Value="F2" Duration="11" Instrument="FP Lead1"
				Note Time="22" Value="C4" Duration="11" Instrument="FP Lead1"
				Note Time="33" Value="G3" Duration="11" Instrument="FP Lead1"
				Note Time="44" Value="F3" Duration="11" Instrument="FP Lead1"
				Note Time="55" Value="G3" Duration="11" Instrument="FP Lead1"
				Note Time="66" Value="C3" Duration="22" Instrument="FP Lead1"
				Note Time="88" Value="D#3" Duration="11" Instrument="FP Lead1"
				Note Time="99" Value="G2" Duration="33" Instrument="FP Lead1"
				Note Time="132" Value="C3" Duration="11" Instrument="FP Lead1"
				Note Time="143" Value="D#3" Duration="11" Instrument="FP Lead1"
				Note Time="154" Value="G2" Duration="22" Instrument="FP Lead1"
			Pattern Name="Pattern 12"
				Note Time="22" Value="A#1" Duration="11" Instrument="FP Lead1"
				Note Time="33" Value="D#2" Duration="22" Instrument="FP Lead1"
				Note Time="55" Value="A#2" Duration="22" Instrument="FP Lead1"
				Note Time="77" Value="D#2" Duration="11" Instrument="FP Lead1"
				Note Time="88" Value="D#2" Duration="22" Instrument="FP Lead1"
			Pattern Name="Pattern 13"
				Note Time="0" Value="F2" Duration="22" Instrument="FP Lead1"
				Note Time="22" Value="A#2" Duration="11" Instrument="FP Lead1"
				Note Time="77" Value="F3" Duration="77" Instrument="FP Lead1"
			Pattern Name="Pattern 14"
				Note Time="0" Value="F3" Duration="11" Instrument="FP Lead1"
				Note Time="11" Value="C4" Duration="22" Instrument="FP Lead1"
				Note Time="55" Value="C5" Duration="11" Instrument="FP Lead1"
				Note Time="66" Value="G4" Duration="22" Instrument="FP Lead1"
				Note Time="88" Value="C5" Duration="44" Instrument="FP Lead1"
				Note Time="132" Value="G4" Duration="44" Instrument="FP Lead1"
			Pattern Name="Pattern 15"
				Note Time="0" Value="A#4" Duration="33" Instrument="FP Lead1"
				Note Time="33" Value="D#1" Duration="33" Instrument="FP Lead1"
				Note Time="99" Value="D#1" Duration="11" Instrument="FP Lead1"
				Note Time="110" Value="D#1" Duration="11" Instrument="FP Lead1"
				Note Time="121" Value="A#1" Duration="22" Instrument="FP Lead1"
				Note Time="143" Value="C2" Duration="33" Instrument="FP Lead1"
			PatternInstance Time="0" Pattern="Pattern 0"
			PatternInstance Time="1" Pattern="Pattern 1"
			PatternInstance Time="2" Pattern="Pattern 2"
			PatternInstance Time="3" Pattern="Pattern 3"
			PatternInstance Time="4" Pattern="Pattern 4"
			PatternInstance Time="5" Pattern="Pattern 5"
			PatternInstance Time="6" Pattern="Pattern 6"
			PatternInstance Time="7" Pattern="Pattern 7"
			PatternInstance Time="8" Pattern="Pattern 8"
			PatternInstance Time="9" Pattern="Pattern 9"
			PatternInstance Time="10" Pattern="Pattern 10"
			PatternInstance Time="11" Pattern="Pattern 11"
			PatternInstance Time="12" Pattern="Pattern 12"
			PatternInstance Time="13" Pattern="Pattern 13"
			PatternInstance Time="14" Pattern="Pattern 14"
			PatternInstance Time="15" Pattern="Pattern 15"
		Channel Type="Triangle"
			Pattern Name="Pattern 0"
				Note Time="0" Value="G3" Duration="22" Instrument="FP TriBass"
				Note Time="22" Value="C3" Duration="22" Instrument="FP TriBass"
				Note Time="44" Value="A#2" Duration="33" Instrument="FP TriBass"
				Note Time="77" Value="G2" Duration="44" Instrument="FP TriBass"
				Note Time="121" Value="G2" Duration="44" Instrument="FP TriBass"
				Note Time="165" Value="G2" Duration="11" Instrument="FP TriBass"
			Pattern Name="Pattern 1"
				Note Time="0" Value="F2" Duration="33" Instrument="FP TriBass"
				Note Time="44" Value="C3" Duration="77" Instrument="FP TriBass"
				Note Time="121" Value="F3" Duration="33" Instrument="FP TriBass"
				Note Time="154" Value="G3" Duration="22" Instrument="FP TriBass"
			Pattern Name="Pattern 2"
				Note Time="0" Value="A#3" Duration="44" Instrument="FP TriBass"
				Note Time="44" Value="D#3" Duration="22" Instrument="FP TriBass"
				Note Time="66" Value="G2" Duration="22" Instrument="FP TriBass"
				Note Time="88" Value="A#2" Duration="44" Instrument="FP TriBass"
				Note Time="132" Value="C3" Duration="11" Instrument="FP TriBass"
				Note Time="165" Value="G3" Duration="11" Instrument="FP TriBass"
			Pattern Name="Pattern 3"
				Note Time="0" Value="G3" Duration="110" Instrument="FP TriBass"
				Note Time="110" Value="C4" Duration="55" Instrument="FP TriBass"
				Note Time="165" Value="A#3" Duration="11" Instrument="FP TriBass"
			Pattern Name="Pattern 4"
				Note Time="0" Value="D#3" Duration="66" Instrument="FP TriBass"
				Note Time="66" Value="G3" Duration="55" Instrument="FP TriBass"
				Note Time="121" Value="D#4" Duration="55" Instrument="FP TriBass"
			Pattern Name="Pattern 5"
				Note Time="0" Value="D#4" Duration="11" Instrument="FP TriBass"
				Note Time="11" Value="A#3" Duration="33" Instrument="FP TriBass"
				Note Time="44" Value="F3" Duration="22" Instrument="FP TriBass"
				Note Time="66" Value="C4" Duration="11" Instrument="FP TriBass"
				Note Time="77" Value="D#2" Duration="11" Instrument="FP TriBass"
				Note Time="88" Value="D#2" Duration="33" Instrument="FP TriBass"
				Note Time="121" Value="G2" Duration="55" Instrument="FP TriBass"
			Pattern Name="Pattern 6"
				Note Time="0" Value="D#3" Duration="77" Instrument="FP TriBass"
				Note Time="77" Value="D#3" Duration="44" Instrument="FP TriBass"
				Note Time="121" Value="A#2" Duration="55" Instrument="FP TriBass"
			Pattern Name="Pattern 7"
				Note Time="0" Value="D#2" Duration="33" Instrument="FP TriBass"
				Note Time="33" Value="D#2" Duration="143" Instrument="FP TriBass"
			Pattern Name="Pattern 8"
				Note Time="0" Value="D#2" Duration="11" Instrument="FP TriBass"
				Note Time="22" Value="D#2" Duration="22" Instrument="FP TriBass"
				Note Time="66" Value="F2" Duration="22" Instrument="FP TriBass"
				Note Time="88" Value="G2" Duration="22" Instrument="FP TriBass"
				Note Time="110" Value="G2" Duration="22" Instrument="FP TriBass"
				Note Time="132" Value="C3" Duration="22" Instrument="FP TriBass"
				Note Time="154" Value="G2" Duration="22" Instrument="FP TriBass"
			Pattern Name="Pattern 9"
				Note Time="0" Value="A#2" Duration="88" Instrument="FP TriBass"
				Note Time="132" Value="G2" Duration="22" Instrument="FP TriBass"
				Note Time="154" Value="D#3" Duration="22" Instrument="FP TriBass"
			Pattern Name="Pattern 10"
				Note Time="0" Value="D#3" Duration="33" Instrument="FP TriBass"
				Note Time="33" Value="A#2" Duration="44" Instrument="FP TriBass"
				Note Time="77" Value="G2" Duration="44" Instrument="FP TriBass"
				Note Time="121" Value="C3" Duration="44" Instrument="FP TriBass"
				Note Time="165" Value="F2" Duration="11" Instrument="FP TriBass"
			Pattern Name="Pattern 11"
				Note Time="0" Value="G2" Duration="11" Instrument="FP TriBass"
				Note Time="66" Value="G2" Duration="55" Instrument="FP TriBass"
				Note Time="121" Value="C3" Duration="55" Instrument="FP TriBass"
			Pattern Name="Pattern 12"
				Note Time="33" Value="A#2" Duration="55" Instrument="FP TriBass"
				Note Time="88" Value="D#3" Duration="11" Instrument="FP TriBass"
				Note Time="99" Value="A#2" Duration="77" Instrument="FP TriBass"
			Pattern Name="Pattern 13"
				Note Time="0" Value="F3" Duration="33" Instrument="FP TriBass"
				Note Time="33" Value="A#2" Duration="88" Instrument="FP TriBass"
			Pattern Name="Pattern 14"
				Note Time="0" Value="F3" Duration="176" Instrument="FP TriBass"
			Pattern Name="Pattern 15"
				Note Time="0" Value="C4" Duration="11" Instrument="FP TriBass"
				Note Time="11" Value="A#3" Duration="44" Instrument="FP TriBass"
				Note Time="55" Value="F4" Duration="22" Instrument="FP TriBass"
				Note Time="77" Value="D#4" Duration="22" Instrument="FP TriBass"
				Note Time="99" Value="G4" Duration="33" Instrument="FP TriBass"
				Note Time="132" Value="C4" Duration="44" Instrument="FP TriBass"
			PatternInstance Time="0" Pattern="Pattern 0"
			PatternInstance Time="1" Pattern="Pattern 1"
			PatternInstance Time="2" Pattern="Pattern 2"
			PatternInstance Time="3" Pattern="Pattern 3"
			PatternInstance Time="4" Pattern="Pattern 4"
			PatternInstance Time="5" Pattern="Pattern 5"
			PatternInstance Time="6" Pattern="Pattern 6"
			PatternInstance Time="7" Pattern="Pattern 7"
			PatternInstance Time="8" Pattern="Pattern 8"
			PatternInstance Time="9" Pattern="Pattern 9"
			PatternInstance Time="10" Pattern="Pattern 10"
			PatternInstance Time="11" Pattern="Pattern 11"
			PatternInstance Time="12" Pattern="Pattern 12"
			PatternInstance Time="13" Pattern="Pattern 13"
			PatternInstance Time="14" Pattern="Pattern 14"
			PatternInstance Time="15" Pattern="Pattern 15"
		Channel Type="Noise"
			Pattern Name="Pattern 1"
				Note Time="0" Value="G2" Duration="22" Instrument="FP NoiseBassDrum"
				Note Time="22" Value="F4" Duration="22" Instrument="FP NoiseSnare"
				Note Time="44" Value="F4" Duration="22" Instrument="FP NoiseSnare"
				Note Time="66" Value="G2" Duration="22" Instrument="FP NoiseBassDrum"
				Note Time="88" Value="G2" Duration="44" Instrument="FP NoiseBassDrum"
				Note Time="132" Value="F3" Duration="44" Instrument="FP NoiseCrash"
			PatternInstance Time="0" Pattern="Pattern 1"
			PatternInstance Time="1" Pattern="Pattern 1"
			PatternInstance Time="2" Pattern="Pattern 1"
			PatternInstance Time="3" Pattern="Pattern 1"
			PatternInstance Time="4" Pattern="Pattern 1"
			PatternInstance Time="5" Pattern="Pattern 1"
			PatternInstance Time="6" Pattern="Pattern 1"
			PatternInstance Time="7" Pattern="Pattern 1"
			PatternInstance Time="8" Pattern="Pattern 1"
			PatternInstance Time="9" Pattern="Pattern 1"
			PatternInstance Time="10" Pattern="Pattern 1"
			PatternInstance Time="11" Pattern="Pattern 1"
			PatternInstance Time="12" Pattern="Pattern 1"
			PatternInstance Time="13" Pattern="Pattern 1"
			PatternInstance Time="14" Pattern="Pattern 1"
			PatternInstance Time="15" Pattern="Pattern 1"
		Channel Type="DPCM"
	Song Name="Axel F" Length="36" LoopPoint="16" PatternLength="16" BeatLength="4" NoteLength="8" Groove="8" GroovePaddingMode="Middle"
		Channel Type="Square1"
			Pattern Name="Pattern 1"
				Note Time="0" Value="F#3" Duration="32" Release="16" Instrument="AF Synth Brass"
				Note Time="32" Value="A3" Duration="24" Release="16" Instrument="AF Synth Brass"
				Note Time="56" Value="F#3" Duration="16" Release="8" Instrument="AF Synth Brass"
				Note Time="72" Value="F#3" Duration="8" Instrument="AF Synth Brass"
				Note Time="80" Value="B3" Duration="16" Release="8" Instrument="AF Synth Brass"
				Note Time="96" Value="F#3" Duration="16" Release="8" Instrument="AF Synth Brass"
				Note Time="112" Value="E3" Duration="16" Release="8" Instrument="AF Synth Brass"
			Pattern Name="Pattern 2"
				Note Time="0" Value="F#3" Duration="32" Release="16" Instrument="AF Synth Brass"
				Note Time="32" Value="C#4" Duration="24" Release="16" Instrument="AF Synth Brass"
				Note Time="56" Value="F#3" Duration="16" Release="8" Instrument="AF Synth Brass"
				Note Time="72" Value="F#3" Duration="8" Instrument="AF Synth Brass"
				Note Time="80" Value="D4" Duration="16" Release="8" Instrument="AF Synth Brass"
				Note Time="96" Value="C#4" Duration="16" Release="8" Instrument="AF Synth Brass"
				Note Time="112" Value="A3" Duration="16" Release="8" Instrument="AF Synth Brass"
			Pattern Name="Pattern 3"
				Note Time="0" Value="F#3" Duration="16" Release="8" Instrument="AF Synth Brass"
				Note Time="16" Value="C#4" Duration="16" Release="8" Instrument="AF Synth Brass"
				Note Time="32" Value="F#4" Duration="16" Release="6" Instrument="AF Synth Brass"
				Note Time="48" Value="F#3" Duration="8" Instrument="AF Synth Brass"
				Note Time="56" Value="E3" Duration="16" Release="8" Instrument="AF Synth Brass"
				Note Time="72" Value="E3" Duration="8" Instrument="AF Synth Brass"
				Note Time="80" Value="C#3" Duration="16" Release="8" Instrument="AF Synth Brass"
				Note Time="96" Value="G#3" Duration="16" Release="8" Instrument="AF Synth Brass"
				Note Time="112" Value="F#3" Duration="32" Release="24" Instrument="AF Synth Brass"
			Pattern Name="Pattern 4"
			Pattern Name="Pattern 5"
				Note Time="16" Value="C#4" Duration="40" Instrument="AF Hall Brass"
				Note Time="56" Value="E4" Duration="24" Instrument="AF Hall Brass"
				Note Time="80" Value="E4" Duration="16" Instrument="AF Hall Brass"
				Note Time="96" Value="D#4" Duration="48" Instrument="AF Hall Brass"
			Pattern Name="Pattern 6"
				Note Time="16" Value="C#4" Duration="40" Instrument="AF Hall Brass"
				Note Time="56" Value="E4" Duration="24" Instrument="AF Hall Brass"
				Note Time="80" Value="D#4" Duration="16" Instrument="AF Hall Brass"
				Note Time="96" Value="C#4" Duration="16" Instrument="AF Hall Brass"
				Note Time="112" Value="A#3" Duration="32" Instrument="AF Hall Brass"
			Pattern Name="Pattern 7"
				Note Time="16" Value="A3" Duration="48" Instrument="AF Hall Brass"
				Note Time="64" Value="A3" Duration="8" Instrument="AF Hall Brass"
				Note Time="72" Value="B3" Duration="48" Instrument="AF Hall Brass"
				Note Time="120" Value="B3" Duration="8" Instrument="AF Hall Brass"
			Pattern Name="Pattern 8"
				Note Time="0" Value="B3" Duration="16" Instrument="AF Hall Brass"
				Note Time="16" Value="C#4" Duration="48" Instrument="AF Hall Brass"
				Note Time="64" Value="B3" Duration="8" Instrument="AF Hall Brass"
				Note Time="72" Value="C#4" Duration="72" Instrument="AF Hall Brass"
			Pattern Name="Pattern 9"
				Note Time="0" Value="Stop"
			PatternInstance Time="0" Pattern="Pattern 1"
			PatternInstance Time="1" Pattern="Pattern 2"
			PatternInstance Time="2" Pattern="Pattern 3"
			PatternInstance Time="3" Pattern="Pattern 4"
			PatternInstance Time="4" Pattern="Pattern 1"
			PatternInstance Time="5" Pattern="Pattern 2"
			PatternInstance Time="6" Pattern="Pattern 3"
			PatternInstance Time="7" Pattern="Pattern 4"
			PatternInstance Time="16" Pattern="Pattern 1"
			PatternInstance Time="17" Pattern="Pattern 2"
			PatternInstance Time="18" Pattern="Pattern 3"
			PatternInstance Time="19" Pattern="Pattern 4"
			PatternInstance Time="20" Pattern="Pattern 1"
			PatternInstance Time="21" Pattern="Pattern 2"
			PatternInstance Time="22" Pattern="Pattern 3"
			PatternInstance Time="23" Pattern="Pattern 4"
			PatternInstance Time="24" Pattern="Pattern 5"
			PatternInstance Time="25" Pattern="Pattern 6"
			PatternInstance Time="26" Pattern="Pattern 7"
			PatternInstance Time="27" Pattern="Pattern 8"
			PatternInstance Time="28" Pattern="Pattern 5"
			PatternInstance Time="29" Pattern="Pattern 6"
			PatternInstance Time="30" Pattern="Pattern 7"
			PatternInstance Time="31" Pattern="Pattern 8"
			PatternInstance Time="32" Pattern="Pattern 9"
		Channel Type="Square2"
			Pattern Name="Pattern 1"
				Note Time="16" Value="F#3" Duration="16" Release="8" Instrument="AF Synth Brass Echo"
				Note Time="32" Value="F#3" Duration="16" Release="8" Instrument="AF Synth Brass Echo"
				Note Time="48" Value="A3" Duration="16" Release="8" Instrument="AF Synth Brass Echo"
				Note Time="64" Value="A3" Duration="8" Instrument="AF Synth Brass Echo"
				Note Time="72" Value="F#3" Duration="16" Release="8" Instrument="AF Synth Brass Echo"
				Note Time="88" Value="F#3" Duration="8" Instrument="AF Synth Brass Echo"
				Note Time="96" Value="B3" Duration="16" Release="8" Instrument="AF Synth Brass Echo"
				Note Time="112" Value="F#3" Duration="16" Release="8" Instrument="AF Synth Brass Echo"
			Pattern Name="Pattern 2"
				Note Time="0" Value="E3" Duration="16" Release="8" Instrument="AF Synth Brass Echo"
				Note Time="16" Value="F#3" Duration="16" Release="8" Instrument="AF Synth Brass Echo"
				Note Time="32" Value="F#3" Duration="16" Release="8" Instrument="AF Synth Brass Echo"
				Note Time="48" Value="C#4" Duration="16" Release="8" Instrument="AF Synth Brass Echo"
				Note Time="64" Value="C#4" Duration="8" Instrument="AF Synth Brass Echo"
				Note Time="72" Value="F#3" Duration="16" Release="7" Instrument="AF Synth Brass Echo"
				Note Time="88" Value="F#3" Duration="8" Instrument="AF Synth Brass Echo"
				Note Time="96" Value="D4" Duration="16" Release="8" Instrument="AF Synth Brass Echo"
				Note Time="112" Value="C#4" Duration="16" Release="8" Instrument="AF Synth Brass Echo"
			Pattern Name="Pattern 3"
				Note Time="0" Value="A3" Duration="16" Release="8" Instrument="AF Synth Brass Echo"
				Note Time="16" Value="F#3" Duration="16" Release="8" Instrument="AF Synth Brass Echo"
				Note Time="32" Value="C#4" Duration="8" Instrument="AF Synth Brass Echo"
				Note Time="40" Value="F#3" Duration="8" Instrument="AF Synth Brass Echo"
				Note Time="48" Value="F#4" Duration="16" Release="6" Instrument="AF Synth Brass Echo"
				Note Time="64" Value="F#3" Duration="8" Instrument="AF Synth Brass Echo"
				Note Time="72" Value="E3" Duration="16" Release="8" Instrument="AF Synth Brass Echo"
				Note Time="88" Value="E3" Duration="8" Instrument="AF Synth Brass Echo"
				Note Time="96" Value="C#3" Duration="16" Release="8" Instrument="AF Synth Brass Echo"
				Note Time="112" Value="G#3" Duration="16" Release="8" Instrument="AF Synth Brass Echo"
			Pattern Name="Pattern 4"
				Note Time="0" Value="F#3" Duration="16" Release="8" Instrument="AF Synth Brass Echo"
				Note Time="16" Value="F#3" Duration="16" Release="8" Instrument="AF Synth Brass Echo"
				Note Time="32" Value="F#3" Duration="16" Release="8" Instrument="AF Synth Brass Echo"
			Pattern Name="Pattern 5"
				Note Time="16" Value="A#3" Duration="40" Instrument="AF Hall Brass"
				Note Time="56" Value="B3" Duration="24" Instrument="AF Hall Brass"
				Note Time="80" Value="B3" Duration="16" Instrument="AF Hall Brass"
				Note Time="96" Value="B3" Duration="48" Instrument="AF Hall Brass"
			Pattern Name="Pattern 6"
				Note Time="16" Value="A#3" Duration="40" Instrument="AF Hall Brass"
				Note Time="56" Value="B3" Duration="16" Instrument="AF Hall Brass"
				Note Time="72" Value="G#3" Duration="8" Instrument="AF Hall Brass"
				Note Time="80" Value="F#3" Duration="16" Instrument="AF Hall Brass"
				Note Time="96" Value="A#3" Duration="16" Instrument="AF Hall Brass"
				Note Time="112" Value="C#3" Duration="32" Instrument="AF Hall Brass"
			Pattern Name="Pattern 7"
				Note Time="16" Value="F#3" Duration="48" Instrument="AF Hall Brass"
				Note Time="64" Value="F#3" Duration="8" Instrument="AF Hall Brass"
				Note Time="72" Value="G#3" Duration="48" Instrument="AF Hall Brass"
				Note Time="120" Value="G#3" Duration="8" Instrument="AF Hall Brass"
			Pattern Name="Pattern 8"
				Note Time="0" Value="G#3" Duration="16" Instrument="AF Hall Brass"
				Note Time="16" Value="A#3" Duration="48" Instrument="AF Hall Brass"
				Note Time="64" Value="G#3" Duration="8" Instrument="AF Hall Brass"
				Note Time="72" Value="A#3" Duration="72" Instrument="AF Hall Brass"
			Pattern Name="Pattern 9"
				Note Time="0" Value="Stop"
			PatternInstance Time="0" Pattern="Pattern 1"
			PatternInstance Time="1" Pattern="Pattern 2"
			PatternInstance Time="2" Pattern="Pattern 3"
			PatternInstance Time="3" Pattern="Pattern 4"
			PatternInstance Time="4" Pattern="Pattern 1"
			PatternInstance Time="5" Pattern="Pattern 2"
			PatternInstance Time="6" Pattern="Pattern 3"
			PatternInstance Time="7" Pattern="Pattern 4"
			PatternInstance Time="16" Pattern="Pattern 1"
			PatternInstance Time="17" Pattern="Pattern 2"
			PatternInstance Time="18" Pattern="Pattern 3"
			PatternInstance Time="19" Pattern="Pattern 4"
			PatternInstance Time="20" Pattern="Pattern 1"
			PatternInstance Time="21" Pattern="Pattern 2"
			PatternInstance Time="22" Pattern="Pattern 3"
			PatternInstance Time="23" Pattern="Pattern 4"
			PatternInstance Time="24" Pattern="Pattern 5"
			PatternInstance Time="25" Pattern="Pattern 6"
			PatternInstance Time="26" Pattern="Pattern 7"
			PatternInstance Time="27" Pattern="Pattern 8"
			PatternInstance Time="28" Pattern="Pattern 5"
			PatternInstance Time="29" Pattern="Pattern 6"
			PatternInstance Time="30" Pattern="Pattern 7"
			PatternInstance Time="31" Pattern="Pattern 8"
			PatternInstance Time="32" Pattern="Pattern 9"
		Channel Type="Triangle"
			Pattern Name="Pattern 1"
				Note Time="0" Value="F#2" Duration="32" Instrument="AF Bass"
				Note Time="32" Value="F#3" Duration="24" Instrument="AF Bass"
				Note Time="56" Value="E2" Duration="16" Instrument="AF Bass"
				Note Time="72" Value="E3" Duration="8" Instrument="AF Bass"
				Note Time="80" Value="C#2" Duration="16" Instrument="AF Bass"
				Note Time="96" Value="C#3" Duration="16" Instrument="AF Bass"
				Note Time="112" Value="E2" Duration="16" Instrument="AF Bass"
			Pattern Name="Pattern 2"
				Note Time="0" Value="F#2" Duration="32" Instrument="AF Bass"
				Note Time="32" Value="F#3" Duration="40" Instrument="AF Bass"
				Note Time="72" Value="C#2" Duration="8" Instrument="AF Bass"
				Note Time="80" Value="C#3" Duration="16" Instrument="AF Bass"
				Note Time="96" Value="E3" Duration="16" Instrument="AF Bass"
				Note Time="112" Value="F#3" Duration="16" Instrument="AF Bass"
			Pattern Name="Pattern 3"
				Note Time="0" Value="D2" Duration="32" Instrument="AF Bass"
				Note Time="32" Value="D3" Duration="24" Instrument="AF Bass"
				Note Time="56" Value="E2" Duration="16" Instrument="AF Bass"
				Note Time="72" Value="E3" Duration="8" Instrument="AF Bass"
				Note Time="80" Value="C#2" Duration="16" Instrument="AF Bass"
				Note Time="96" Value="E2" Duration="16" Instrument="AF Bass"
				Note Time="112" Value="F#2" Duration="16" Instrument="AF Bass"
			Pattern Name="Pattern 4"
				Note Time="0" Value="F#3" Duration="16" Instrument="AF Bass"
				Note Time="72" Value="E3" Duration="8" Instrument="AF Bass"
				Note Time="80" Value="C3" Duration="16" Instrument="AF Bass"
				Note Time="96" Value="B2" Duration="16" Instrument="AF Bass"
				Note Time="112" Value="A2" Duration="16" Instrument="AF Bass"
			PatternInstance Time="8" Pattern="Pattern 1"
			PatternInstance Time="9" Pattern="Pattern 2"
			PatternInstance Time="10" Pattern="Pattern 3"
			PatternInstance Time="11" Pattern="Pattern 4"
			PatternInstance Time="12" Pattern="Pattern 1"
			PatternInstance Time="13" Pattern="Pattern 2"
			PatternInstance Time="14" Pattern="Pattern 3"
			PatternInstance Time="15" Pattern="Pattern 4"
			PatternInstance Time="16" Pattern="Pattern 1"
			PatternInstance Time="17" Pattern="Pattern 2"
			PatternInstance Time="18" Pattern="Pattern 3"
			PatternInstance Time="19" Pattern="Pattern 4"
			PatternInstance Time="20" Pattern="Pattern 1"
			PatternInstance Time="21" Pattern="Pattern 2"
			PatternInstance Time="22" Pattern="Pattern 3"
			PatternInstance Time="23" Pattern="Pattern 4"
			PatternInstance Time="24" Pattern="Pattern 1"
			PatternInstance Time="25" Pattern="Pattern 2"
			PatternInstance Time="26" Pattern="Pattern 3"
			PatternInstance Time="27" Pattern="Pattern 4"
			PatternInstance Time="28" Pattern="Pattern 1"
			PatternInstance Time="29" Pattern="Pattern 2"
			PatternInstance Time="30" Pattern="Pattern 3"
			PatternInstance Time="31" Pattern="Pattern 4"
			PatternInstance Time="32" Pattern="Pattern 1"
			PatternInstance Time="33" Pattern="Pattern 2"
			PatternInstance Time="34" Pattern="Pattern 3"
			PatternInstance Time="35" Pattern="Pattern 4"
		Channel Type="Noise"
			Pattern Name="Pattern 1"
				Note Time="31" Value="B2" Duration="9" Instrument="AF Noise"
				Note Time="40" Value="C3" Duration="8" Instrument="AF Noise"
				Note Time="48" Value="C#3" Duration="8" Instrument="AF Noise"
				Note Time="56" Value="D3" Duration="8" Instrument="AF Noise"
				Note Time="64" Value="D#3" Duration="8" Instrument="AF Noise"
				Note Time="72" Value="E3" Duration="8" Instrument="AF Noise"
				Note Time="80" Value="F3" Duration="8" Instrument="AF Noise"
				Note Time="88" Value="F#3" Duration="8" Instrument="AF Noise"
				Note Time="96" Value="G3" Duration="8" Instrument="AF Noise"
				Note Time="104" Value="G#3" Duration="8" Instrument="AF Noise"
				Note Time="112" Value="A3" Duration="8" Instrument="AF Noise"
				Note Time="120" Value="A#3" Duration="7" Instrument="AF Noise"
			Pattern Name="Pattern 2"
				Note Time="0" Value="F3" Duration="8" Instrument="AF Maracas"
				Note Time="8" Value="F3" Duration="8" Instrument="AF Maracas"
				Note Time="16" Value="F3" Duration="8" Instrument="AF Maracas"
				Note Time="24" Value="F3" Duration="24" Instrument="AF Maracas"
				Note Time="48" Value="F3" Duration="16" Instrument="AF Maracas"
				Note Time="64" Value="F3" Duration="24" Instrument="AF Maracas"
				Note Time="88" Value="F3" Duration="32" Instrument="AF Maracas"
				Note Time="120" Value="F3" Duration="8" Instrument="AF Maracas"
			PatternInstance Time="7" Pattern="Pattern 1"
			PatternInstance Time="8" Pattern="Pattern 2"
			PatternInstance Time="9" Pattern="Pattern 2"
			PatternInstance Time="10" Pattern="Pattern 2"
			PatternInstance Time="11" Pattern="Pattern 2"
			PatternInstance Time="12" Pattern="Pattern 2"
			PatternInstance Time="13" Pattern="Pattern 2"
			PatternInstance Time="14" Pattern="Pattern 2"
			PatternInstance Time="15" Pattern="Pattern 2"
			PatternInstance Time="16" Pattern="Pattern 2"
			PatternInstance Time="17" Pattern="Pattern 2"
			PatternInstance Time="18" Pattern="Pattern 2"
			PatternInstance Time="19" Pattern="Pattern 2"
			PatternInstance Time="20" Pattern="Pattern 2"
			PatternInstance Time="21" Pattern="Pattern 2"
			PatternInstance Time="22" Pattern="Pattern 2"
			PatternInstance Time="23" Pattern="Pattern 2"
			PatternInstance Time="24" Pattern="Pattern 2"
			PatternInstance Time="25" Pattern="Pattern 2"
			PatternInstance Time="26" Pattern="Pattern 2"
			PatternInstance Time="27" Pattern="Pattern 2"
			PatternInstance Time="28" Pattern="Pattern 2"
			PatternInstance Time="29" Pattern="Pattern 2"
			PatternInstance Time="30" Pattern="Pattern 2"
			PatternInstance Time="31" Pattern="Pattern 2"
			PatternInstance Time="32" Pattern="Pattern 2"
			PatternInstance Time="33" Pattern="Pattern 2"
			PatternInstance Time="34" Pattern="Pattern 2"
			PatternInstance Time="35" Pattern="Pattern 2"
		Channel Type="DPCM"
			Pattern Name="Pattern 1"
				Note Time="0" Value="C1" Duration="56"
				Note Time="56" Value="C1" Duration="16"
				Note Time="72" Value="C1" Duration="8"
				Note Time="80" Value="C1" Duration="32"
				Note Time="112" Value="C1" Duration="16"
			Pattern Name="Pattern 2"
				Note Time="0" Value="C1" Duration="72"
				Note Time="72" Value="C1" Duration="8"
				Note Time="80" Value="C1" Duration="16"
				Note Time="96" Value="C1" Duration="32"
			Pattern Name="Pattern 3"
				Note Time="0" Value="C1" Duration="32"
				Note Time="32" Value="C1" Duration="48"
				Note Time="80" Value="C1" Duration="16"
				Note Time="96" Value="C1" Duration="16"
				Note Time="112" Value="C1" Duration="16"
			Pattern Name="Pattern 4"
				Note Time="0" Value="C1" Duration="32"
				Note Time="32" Value="C1" Duration="40"
				Note Time="72" Value="C1" Duration="8"
				Note Time="80" Value="C1" Duration="16"
				Note Time="96" Value="C1" Duration="16"
				Note Time="112" Value="C1" Duration="16"
			Pattern Name="Pattern 5"
				Note Time="0" Value="C1" Duration="32"
				Note Time="32" Value="C#1" Duration="24"
				Note Time="56" Value="C1" Duration="16"
				Note Time="72" Value="C1" Duration="8"
				Note Time="80" Value="C1" Duration="16"
				Note Time="96" Value="C#1" Duration="16"
				Note Time="112" Value="C1" Duration="16"
			Pattern Name="Pattern 6"
				Note Time="0" Value="C1" Duration="32"
				Note Time="32" Value="C#1" Duration="40"
				Note Time="72" Value="C1" Duration="8"
				Note Time="80" Value="C1" Duration="16"
				Note Time="96" Value="C#1" Duration="32"
			Pattern Name="Pattern 7"
				Note Time="0" Value="C1" Duration="32"
				Note Time="32" Value="C#1" Duration="48"
				Note Time="80" Value="C1" Duration="16"
				Note Time="96" Value="C#1" Duration="16"
				Note Time="112" Value="C1" Duration="16"
			Pattern Name="Pattern 8"
				Note Time="0" Value="C1" Duration="32"
				Note Time="32" Value="C#1" Duration="40"
				Note Time="72" Value="C1" Duration="8"
				Note Time="80" Value="C1" Duration="16"
				Note Time="96" Value="C#1" Duration="16"
				Note Time="112" Value="C1" Duration="16"
			PatternInstance Time="12" Pattern="Pattern 1"
			PatternInstance Time="13" Pattern="Pattern 2"
			PatternInstance Time="14" Pattern="Pattern 3"
			PatternInstance Time="15" Pattern="Pattern 4"
			PatternInstance Time="16" Pattern="Pattern 5"
			PatternInstance Time="17" Pattern="Pattern 6"
			PatternInstance Time="18" Pattern="Pattern 7"
			PatternInstance Time="19" Pattern="Pattern 8"
			PatternInstance Time="20" Pattern="Pattern 5"
			PatternInstance Time="21" Pattern="Pattern 6"
			PatternInstance Time="22" Pattern="Pattern 7"
			PatternInstance Time="23" Pattern="Pattern 8"
			PatternInstance Time="24" Pattern="Pattern 5"
			PatternInstance Time="25" Pattern="Pattern 6"
			PatternInstance Time="26" Pattern="Pattern 7"
			PatternInstance Time="27" Pattern="Pattern 8"
			PatternInstance Time="28" Pattern="Pattern 5"
			PatternInstance Time="29" Pattern="Pattern 6"
			PatternInstance Time="30" Pattern="Pattern 7"
			PatternInstance Time="31" Pattern="Pattern 8"
			PatternInstance Time="32" Pattern="Pattern 5"
			PatternInstance Time="33" Pattern="Pattern 6"
			PatternInstance Time="34" Pattern="Pattern 7"
			PatternInstance Time="35" Pattern="Pattern 8"
	Song Name="Batman - Stage 1" Length="34" LoopPoint="2" PatternLength="8" BeatLength="4" NoteLength="14" Groove="14" GroovePaddingMode="Middle"
		Channel Type="Square1"
			Pattern Name="Stop"
				Note Time="0" Value="Stop"
			Pattern Name="Pattern 1"
				Note Time="7" Value="B2" Duration="7" Instrument="BM Lead Quick"
				Note Time="14" Value="F#3" Duration="7" Instrument="BM Lead Quick"
				Note Time="21" Value="D3" Duration="7" Instrument="BM Lead Quick"
				Note Time="28" Value="G3" Duration="7" Instrument="BM Lead Quick"
				Note Time="35" Value="F#3" Duration="7" Instrument="BM Lead Quick"
				Note Time="42" Value="D3" Duration="7" Instrument="BM Lead Quick"
				Note Time="49" Value="B2" Duration="112" Instrument="BM Lead Sustain"
			Pattern Name="Pattern 2"
				Note Time="49" Value="B2" Duration="14" Instrument="BM Lead Fade" Attack="False"
				Note Time="63" Value="A#2" Duration="21" Instrument="BM Lead Alt"
				Note Time="84" Value="B2" Duration="14" Instrument="BM Lead Alt"
				Note Time="98" Value="C#3" Duration="14" Instrument="BM Lead Alt"
			Pattern Name="Pattern 3"
				Note Time="0" Value="D3" Duration="14" Instrument="BM Lead Alt"
				Note Time="14" Value="E3" Duration="7" Instrument="BM Lead Alt"
				Note Time="21" Value="F#3" Duration="140" Instrument="BM Lead Sustain"
			Pattern Name="Pattern 4"
				Note Time="49" Value="F#3" Duration="14" Instrument="BM Lead Fade"
				Note Time="63" Value="A3" Duration="21" Instrument="BM Lead Alt"
				Note Time="84" Value="G3" Duration="14" Instrument="BM Lead Alt"
				Note Time="98" Value="F#3" Duration="14" Instrument="BM Lead Alt"
			Pattern Name="Pattern 5"
				Note Time="0" Value="E3" Duration="21" Instrument="BM Lead Alt"
				Note Time="21" Value="C3" Duration="21" Instrument="BM Lead Alt"
				Note Time="42" Value="G2" Duration="119" Instrument="BM Lead Sustain"
			Pattern Name="Pattern 6"
				Note Time="49" Value="G2" Duration="14" Instrument="BM Lead Fade"
				Note Time="63" Value="C3" Duration="7" Instrument="BM Lead Quick"
				Note Time="70" Value="D3" Duration="7" Instrument="BM Lead Quick"
				Note Time="77" Value="E3" Duration="7" Instrument="BM Lead Quick"
				Note Time="84" Value="F#3" Duration="7" Instrument="BM Lead Quick"
				Note Time="91" Value="G3" Duration="7" Instrument="BM Lead Quick"
				Note Time="98" Value="A3" Duration="7" Instrument="BM Lead Quick"
				Note Time="105" Value="G3" Duration="7" Instrument="BM Lead Quick"
			Pattern Name="Pattern 7"
				Note Time="0" Value="F#3" Duration="98" Instrument="BM Lead Sustain"
				Note Time="98" Value="F#3" Duration="14" Instrument="BM Lead Fade"
			Pattern Name="Pattern 8"
				Note Time="14" Value="A3" Duration="14" Instrument="BM Lead Rise"
				Note Time="28" Value="A3" Duration="14" Instrument="BM Lead Fade"
				Note Time="42" Value="A3" Duration="7" Instrument="BM Lead"
				Note Time="49" Value="A3" Duration="14" Instrument="BM Lead Fade"
				Note Time="63" Value="G3" Duration="7" Instrument="BM Lead Quick Loud"
				Note Time="70" Value="F#3" Duration="7" Instrument="BM Lead Quick Loud"
				Note Time="77" Value="E3" Duration="7" Instrument="BM Lead Quick Loud"
				Note Time="84" Value="F#3" Duration="7" Instrument="BM Lead Quick Loud"
				Note Time="91" Value="E3" Duration="7" Instrument="BM Lead Quick Loud"
				Note Time="98" Value="D3" Duration="7" Instrument="BM Lead Quick Loud"
				Note Time="105" Value="C#3" Duration="7" Instrument="BM Lead Quick Loud"
			Pattern Name="Pattern 9"
				Note Time="14" Value="A3" Duration="14" Instrument="BM Lead Rise"
				Note Time="28" Value="A3" Duration="14" Instrument="BM Lead Fade"
				Note Time="42" Value="A3" Duration="21" Instrument="BM Lead"
				Note Time="63" Value="F#3" Duration="7" Instrument="BM Lead Quick Loud"
				Note Time="70" Value="E3" Duration="7" Instrument="BM Lead Quick Loud"
				Note Time="77" Value="F#3" Duration="7" Instrument="BM Lead Quick Loud"
				Note Time="84" Value="D3" Duration="7" Instrument="BM Lead Quick Loud"
				Note Time="91" Value="E3" Duration="7" Instrument="BM Lead Quick Loud"
				Note Time="98" Value="C#3" Duration="7" Instrument="BM Lead Quick Loud"
				Note Time="105" Value="D3" Duration="7" Instrument="BM Lead Quick Loud"
			Pattern Name="Pattern 10"
				Note Time="0" Value="B2" Duration="21" Instrument="BM Lead"
				Note Time="21" Value="F#3" Duration="21" Instrument="BM Lead"
				Note Time="42" Value="B3" Duration="14" Instrument="BM Lead"
				Note Time="56" Value="C#4" Duration="14" Instrument="BM Lead"
				Note Time="70" Value="D4" Duration="7" Instrument="BM Lead Quick Loud"
				Note Time="77" Value="B3" Duration="21" Instrument="BM Lead"
				Note Time="98" Value="D4" Duration="14" Instrument="BM Lead"
			Pattern Name="Pattern 11"
				Note Time="0" Value="C#4" Duration="21" Instrument="BM Lead"
				Note Time="21" Value="D4" Duration="21" Instrument="BM Lead"
				Note Time="42" Value="E4" Duration="14" Instrument="BM Lead"
				Note Time="56" Value="A3" Duration="7" Instrument="BM Lead Quick Loud"
				Note Time="63" Value="A3" Duration="14" Instrument="BM Lead"
				Note Time="77" Value="B3" Duration="21" Instrument="BM Lead"
				Note Time="98" Value="C#4" Duration="14" Instrument="BM Lead"
			Pattern Name="Pattern 12"
				Note Time="0" Value="D4" Duration="7" Instrument="BM Lead Quick Loud"
				Note Time="7" Value="B3" Duration="7" Instrument="BM Lead Quick Loud"
				Note Time="14" Value="G3" Duration="7" Instrument="BM Lead Quick Loud"
				Note Time="21" Value="B3" Duration="7" Instrument="BM Lead Quick Loud"
				Note Time="28" Value="G3" Duration="7" Instrument="BM Lead Quick Loud"
				Note Time="35" Value="D3" Duration="7" Instrument="BM Lead Quick Loud"
				Note Time="42" Value="G3" Duration="7" Instrument="BM Lead Quick Loud"
				Note Time="49" Value="D3" Duration="7" Instrument="BM Lead Quick Loud"
				Note Time="56" Value="B2" Duration="7" Instrument="BM Lead Quick Loud"
				Note Time="63" Value="D3" Duration="7" Instrument="BM Lead Quick Loud"
				Note Time="70" Value="B2" Duration="7" Instrument="BM Lead Quick Loud"
				Note Time="77" Value="G2" Duration="7" Instrument="BM Lead Quick Loud"
				Note Time="84" Value="G3" Duration="7" Instrument="BM Lead Quick Loud"
				Note Time="91" Value="G2" Duration="7" Instrument="BM Lead Quick Loud"
				Note Time="98" Value="A2" Duration="7" Instrument="BM Lead Quick Loud"
				Note Time="105" Value="G2" Duration="7" Instrument="BM Lead Quick Loud"
			Pattern Name="Pattern 13"
				Note Time="0" Value="F#2" Duration="7" Instrument="BM Lead Quick Loud"
				Note Time="7" Value="C#3" Duration="7" Instrument="BM Lead Quick Loud"
				Note Time="14" Value="F#3" Duration="7" Instrument="BM Lead Quick Loud"
				Note Time="21" Value="C#4" Duration="7" Instrument="BM Lead Quick Loud"
				Note Time="28" Value="F#4" Duration="7" Instrument="BM Lead Quick Loud"
				Note Time="35" Value="E4" Duration="7" Instrument="BM Lead Quick Loud"
				Note Time="42" Value="D4" Duration="7" Instrument="BM Lead Quick Loud"
				Note Time="49" Value="E4" Duration="7" Instrument="BM Lead Quick Loud"
				Note Time="56" Value="D4" Duration="7" Instrument="BM Lead Quick Loud"
				Note Time="63" Value="C#4" Duration="7" Instrument="BM Lead Quick Loud"
				Note Time="70" Value="B3" Duration="7" Instrument="BM Lead Quick Loud"
				Note Time="77" Value="C#4" Duration="7" Instrument="BM Lead Quick Loud"
				Note Time="84" Value="B3" Duration="7" Instrument="BM Lead Quick Loud"
				Note Time="91" Value="A#3" Duration="7" Instrument="BM Lead Quick Loud"
				Note Time="98" Value="G#3" Duration="7" Instrument="BM Lead Quick Loud"
				Note Time="105" Value="A#3" Duration="7" Instrument="BM Lead Quick Loud"
			Pattern Name="Pattern 18"
				Note Time="0" Value="B3" Duration="14" Instrument="BM Lead Quick Loud"
				Note Time="14" Value="F#3" Duration="7" Instrument="BM Lead Quick Loud"
				Note Time="21" Value="C#4" Duration="14" Instrument="BM Lead Quick Loud"
				Note Time="35" Value="F#3" Duration="7" Instrument="BM Lead Quick Loud"
				Note Time="42" Value="D4" Duration="14" Instrument="BM Lead Quick Loud"
				Note Time="56" Value="F#3" Duration="7" Instrument="BM Lead Quick Loud"
				Note Time="63" Value="E4" Duration="7" Instrument="BM Lead Quick Loud"
				Note Time="70" Value="D4" Duration="7" Instrument="BM Lead Quick Loud"
				Note Time="77" Value="E4" Duration="7" Instrument="BM Lead Quick Loud"
				Note Time="84" Value="F#4" Duration="14" Instrument="BM Lead SteadyVol"
				Note Time="98" Value="F#4" Duration="14" Instrument="BM Lead Fade"
			Pattern Name="Pattern 15"
				Note Time="0" Value="B3" Duration="14" Instrument="BM Lead Quick Loud"
				Note Time="14" Value="G3" Duration="7" Instrument="BM Lead Quick Loud"
				Note Time="21" Value="C#4" Duration="14" Instrument="BM Lead Quick Loud"
				Note Time="35" Value="G3" Duration="7" Instrument="BM Lead Quick Loud"
				Note Time="42" Value="D4" Duration="14" Instrument="BM Lead Quick Loud"
				Note Time="56" Value="G3" Duration="7" Instrument="BM Lead Quick Loud"
				Note Time="63" Value="E4" Duration="7" Instrument="BM Lead Quick Loud"
				Note Time="70" Value="D4" Duration="7" Instrument="BM Lead Quick Loud"
				Note Time="77" Value="E4" Duration="7" Instrument="BM Lead Quick Loud"
				Note Time="84" Value="F#4" Duration="14" Instrument="BM Lead SteadyVol"
				Note Time="98" Value="F#4" Duration="14" Instrument="BM Lead Fade"
			Pattern Name="Pattern 16"
				Note Time="0" Value="C#4" Duration="14" Instrument="BM Lead Quick Loud"
				Note Time="14" Value="A3" Duration="7" Instrument="BM Lead Quick Loud"
				Note Time="21" Value="D4" Duration="14" Instrument="BM Lead Quick Loud"
				Note Time="35" Value="A3" Duration="7" Instrument="BM Lead Quick Loud"
				Note Time="42" Value="E4" Duration="14" Instrument="BM Lead Quick Loud"
				Note Time="56" Value="A3" Duration="7" Instrument="BM Lead Quick Loud"
				Note Time="63" Value="F#4" Duration="7" Instrument="BM Lead Quick Loud"
				Note Time="70" Value="E4" Duration="7" Instrument="BM Lead Quick Loud"
				Note Time="77" Value="F#4" Duration="7" Instrument="BM Lead Quick Loud"
				Note Time="84" Value="G4" Duration="7" Instrument="BM Lead Quick Loud"
				Note Time="91" Value="F#4" Duration="7" Instrument="BM Lead Quick Loud"
				Note Time="98" Value="E4" Duration="7" Instrument="BM Lead Quick Loud"
				Note Time="105" Value="G4" Duration="7" Instrument="BM Lead Quick Loud"
			Pattern Name="Pattern 17"
				Note Time="0" Value="F#4" Duration="21" Instrument="BM Lead"
				Note Time="21" Value="G4" Duration="21" Instrument="BM Lead"
				Note Time="42" Value="F#4" Duration="21" Instrument="BM Lead"
				Note Time="63" Value="C#4" Duration="7" Instrument="BM Lead Quick Loud"
				Note Time="70" Value="D4" Duration="7" Instrument="BM Lead Quick Loud"
				Note Time="77" Value="E4" Duration="7" Instrument="BM Lead Quick Loud"
				Note Time="84" Value="F#4" Duration="7" Instrument="BM Lead Quick Loud"
				Note Time="91" Value="E4" Duration="7" Instrument="BM Lead Quick Loud"
				Note Time="98" Value="D4" Duration="7" Instrument="BM Lead Quick Loud"
				Note Time="105" Value="C#4" Duration="7" Instrument="BM Lead Quick Loud"
			Pattern Name="Pattern 19"
				Note Time="0" Value="E4" Duration="14" Instrument="BM Lead Quick Loud"
				Note Time="14" Value="A3" Duration="7" Instrument="BM Lead Quick Loud"
				Note Time="21" Value="F#4" Duration="14" Instrument="BM Lead Quick Loud"
				Note Time="35" Value="A3" Duration="7" Instrument="BM Lead Quick Loud"
				Note Time="42" Value="G4" Duration="14" Instrument="BM Lead Quick Loud"
				Note Time="56" Value="A3" Duration="7" Instrument="BM Lead Quick Loud"
				Note Time="63" Value="A4" Duration="7" Instrument="BM Lead Quick Loud"
				Note Time="70" Value="G4" Duration="7" Instrument="BM Lead Quick Loud"
				Note Time="77" Value="A4" Duration="7" Instrument="BM Lead Quick Loud"
				Note Time="84" Value="F#4" Duration="7" Instrument="BM Lead Quick Loud"
				Note Time="91" Value="G4" Duration="7" Instrument="BM Lead Quick Loud"
				Note Time="98" Value="E4" Duration="7" Instrument="BM Lead Quick Loud"
				Note Time="105" Value="F#4" Duration="7" Instrument="BM Lead Quick Loud"
			Pattern Name="Pattern 20"
				Note Time="0" Value="D4" Duration="21" Instrument="BM Lead"
				Note Time="21" Value="E4" Duration="21" Instrument="BM Lead"
				Note Time="42" Value="F#4" Duration="14" Instrument="BM Lead"
				Note Time="56" Value="E4" Duration="21" Instrument="BM Lead"
				Note Time="77" Value="D4" Duration="21" Instrument="BM Lead"
				Note Time="98" Value="C#4" Duration="14" Instrument="BM Lead"
			Pattern Name="Pattern 21"
				Note Time="0" Value="B3" Duration="210" Instrument="BM Lead SteadyVol"
			Pattern Name="Pattern 22"
				Note Time="98" Value="B3" Duration="14" Instrument="BM Lead Fade"
			PatternInstance Time="2" Pattern="Stop"
			PatternInstance Time="4" Pattern="Pattern 1"
			PatternInstance Time="5" Pattern="Pattern 2"
			PatternInstance Time="6" Pattern="Pattern 3"
			PatternInstance Time="7" Pattern="Pattern 4"
			PatternInstance Time="8" Pattern="Pattern 5"
			PatternInstance Time="9" Pattern="Pattern 6"
			PatternInstance Time="10" Pattern="Pattern 7"
			PatternInstance Time="11" Pattern="Pattern 8"
			PatternInstance Time="12" Pattern="Pattern 1"
			PatternInstance Time="13" Pattern="Pattern 2"
			PatternInstance Time="14" Pattern="Pattern 3"
			PatternInstance Time="15" Pattern="Pattern 4"
			PatternInstance Time="16" Pattern="Pattern 5"
			PatternInstance Time="17" Pattern="Pattern 6"
			PatternInstance Time="18" Pattern="Pattern 7"
			PatternInstance Time="19" Pattern="Pattern 9"
			PatternInstance Time="20" Pattern="Pattern 10"
			PatternInstance Time="21" Pattern="Pattern 11"
			PatternInstance Time="22" Pattern="Pattern 12"
			PatternInstance Time="23" Pattern="Pattern 13"
			PatternInstance Time="24" Pattern="Pattern 18"
			PatternInstance Time="25" Pattern="Pattern 15"
			PatternInstance Time="26" Pattern="Pattern 16"
			PatternInstance Time="27" Pattern="Pattern 17"
			PatternInstance Time="28" Pattern="Pattern 18"
			PatternInstance Time="29" Pattern="Pattern 15"
			PatternInstance Time="30" Pattern="Pattern 19"
			PatternInstance Time="31" Pattern="Pattern 20"
			PatternInstance Time="32" Pattern="Pattern 21"
			PatternInstance Time="33" Pattern="Pattern 22"
		Channel Type="Square2"
			Pattern Name="Stop"
				Note Time="0" Value="Stop"
			Pattern Name="Pattern 1"
				Note Time="16" Value="B2" Duration="7" Instrument="BM Echo"
				Note Time="23" Value="F#3" Duration="7" Instrument="BM Echo"
				Note Time="30" Value="D3" Duration="7" Instrument="BM Echo"
				Note Time="37" Value="G3" Duration="7" Instrument="BM Echo"
				Note Time="44" Value="F#3" Duration="7" Instrument="BM Echo"
				Note Time="51" Value="D3" Duration="7" Instrument="BM Echo"
				Note Time="58" Value="B2" Duration="126" Instrument="BM Echo"
			Pattern Name="Pattern 2"
				Note Time="72" Value="A#2" Duration="21" Instrument="BM Echo"
				Note Time="93" Value="B2" Duration="14" Instrument="BM Echo"
				Note Time="107" Value="C#3" Duration="14" Instrument="BM Echo"
			Pattern Name="Pattern 3"
				Note Time="9" Value="D3" Duration="14" Instrument="BM Echo"
				Note Time="23" Value="E3" Duration="7" Instrument="BM Echo"
				Note Time="30" Value="F#3" Duration="154" Instrument="BM Echo"
			Pattern Name="Pattern 4"
				Note Time="72" Value="A3" Duration="21" Instrument="BM Echo"
				Note Time="93" Value="G3" Duration="14" Instrument="BM Echo"
				Note Time="107" Value="F#3" Duration="14" Instrument="BM Echo"
			Pattern Name="Pattern 5"
				Note Time="9" Value="E3" Duration="21" Instrument="BM Echo"
				Note Time="30" Value="C3" Duration="21" Instrument="BM Echo"
				Note Time="51" Value="G2" Duration="133" Instrument="BM Echo"
			Pattern Name="Pattern 6"
				Note Time="72" Value="C3" Duration="7" Instrument="BM Echo"
				Note Time="79" Value="D3" Duration="7" Instrument="BM Echo"
				Note Time="86" Value="E3" Duration="7" Instrument="BM Echo"
				Note Time="93" Value="F#3" Duration="7" Instrument="BM Echo"
				Note Time="100" Value="G3" Duration="7" Instrument="BM Echo"
				Note Time="107" Value="A3" Duration="7" Instrument="BM Echo"
			Pattern Name="Pattern 7"
				Note Time="2" Value="G3" Duration="7" Instrument="BM Echo"
				Note Time="9" Value="F#3" Duration="112" Instrument="BM Echo"
			Pattern Name="Pattern 8"
				Note Time="14" Value="E3" Duration="14" Instrument="BM Lead Rise"
				Note Time="28" Value="E3" Duration="14" Instrument="BM Lead Fade"
				Note Time="42" Value="E3" Duration="16" Instrument="BM Lead SteadyVol"
				Note Time="58" Value="E3" Duration="14" Instrument="BM Lead Fade"
				Note Time="72" Value="G3" Duration="7" Instrument="BM Echo"
				Note Time="79" Value="F#3" Duration="7" Instrument="BM Echo"
				Note Time="86" Value="E3" Duration="7" Instrument="BM Echo"
				Note Time="93" Value="F#3" Duration="7" Instrument="BM Echo"
				Note Time="100" Value="E3" Duration="7" Instrument="BM Echo"
				Note Time="107" Value="D3" Duration="7" Instrument="BM Echo"
			Pattern Name="Pattern 9"
				Note Time="2" Value="C#3" Duration="7" Instrument="BM Echo"
				Note Time="16" Value="B2" Duration="7" Instrument="BM Echo"
				Note Time="23" Value="F#3" Duration="7" Instrument="BM Echo"
				Note Time="30" Value="D3" Duration="7" Instrument="BM Echo"
				Note Time="37" Value="G3" Duration="7" Instrument="BM Echo"
				Note Time="44" Value="F#3" Duration="7" Instrument="BM Echo"
				Note Time="51" Value="D3" Duration="7" Instrument="BM Echo"
				Note Time="58" Value="B2" Duration="126" Instrument="BM Echo"
			Pattern Name="Pattern 10"
				Note Time="14" Value="E3" Duration="14" Instrument="BM Lead Rise"
				Note Time="28" Value="E3" Duration="14" Instrument="BM Lead Fade"
				Note Time="42" Value="E3" Duration="16" Instrument="BM Lead SteadyVol"
				Note Time="58" Value="E3" Duration="14" Instrument="BM Lead Fade"
				Note Time="72" Value="F#3" Duration="7" Instrument="BM Echo"
				Note Time="79" Value="E3" Duration="7" Instrument="BM Echo"
				Note Time="86" Value="F#3" Duration="7" Instrument="BM Echo"
				Note Time="93" Value="D3" Duration="7" Instrument="BM Echo"
				Note Time="100" Value="E3" Duration="7" Instrument="BM Echo"
				Note Time="107" Value="C#3" Duration="7" Instrument="BM Echo"
			Pattern Name="Pattern 11"
				Note Time="2" Value="D3" Duration="7" Instrument="BM Echo"
				Note Time="9" Value="B2" Duration="21" Instrument="BM Echo"
				Note Time="30" Value="F#3" Duration="21" Instrument="BM Echo"
				Note Time="51" Value="B3" Duration="14" Instrument="BM Echo"
				Note Time="65" Value="C#4" Duration="14" Instrument="BM Echo"
				Note Time="79" Value="D4" Duration="7" Instrument="BM Echo"
				Note Time="86" Value="B3" Duration="21" Instrument="BM Echo"
				Note Time="107" Value="D4" Duration="14" Instrument="BM Echo"
			Pattern Name="Pattern 12"
				Note Time="9" Value="C#4" Duration="21" Instrument="BM Echo"
				Note Time="30" Value="D4" Duration="21" Instrument="BM Echo"
				Note Time="51" Value="E4" Duration="14" Instrument="BM Echo"
				Note Time="65" Value="A3" Duration="21" Instrument="BM Echo"
				Note Time="86" Value="B3" Duration="21" Instrument="BM Echo"
				Note Time="107" Value="C#4" Duration="14" Instrument="BM Echo"
			Pattern Name="Pattern 13"
				Note Time="9" Value="D4" Duration="7" Instrument="BM Echo"
				Note Time="16" Value="B3" Duration="7" Instrument="BM Echo"
				Note Time="23" Value="G3" Duration="7" Instrument="BM Echo"
				Note Time="30" Value="B3" Duration="7" Instrument="BM Echo"
				Note Time="37" Value="G3" Duration="7" Instrument="BM Echo"
				Note Time="44" Value="D3" Duration="7" Instrument="BM Echo"
				Note Time="51" Value="G3" Duration="7" Instrument="BM Echo"
				Note Time="58" Value="D3" Duration="7" Instrument="BM Echo"
				Note Time="65" Value="B2" Duration="7" Instrument="BM Echo"
				Note Time="72" Value="D3" Duration="7" Instrument="BM Echo"
				Note Time="79" Value="B2" Duration="7" Instrument="BM Echo"
				Note Time="86" Value="G2" Duration="7" Instrument="BM Echo"
				Note Time="93" Value="G3" Duration="7" Instrument="BM Echo"
				Note Time="100" Value="G2" Duration="7" Instrument="BM Echo"
				Note Time="107" Value="A2" Duration="7" Instrument="BM Echo"
			Pattern Name="Pattern 14"
				Note Time="2" Value="G2" Duration="7" Instrument="BM Echo"
				Note Time="9" Value="F#2" Duration="7" Instrument="BM Echo"
				Note Time="16" Value="C#3" Duration="7" Instrument="BM Echo"
				Note Time="23" Value="F#3" Duration="7" Instrument="BM Echo"
				Note Time="30" Value="C#4" Duration="7" Instrument="BM Echo"
				Note Time="37" Value="F#4" Duration="7" Instrument="BM Echo"
				Note Time="44" Value="E4" Duration="7" Instrument="BM Echo"
				Note Time="51" Value="D4" Duration="7" Instrument="BM Echo"
				Note Time="58" Value="E4" Duration="7" Instrument="BM Echo"
				Note Time="65" Value="D4" Duration="7" Instrument="BM Echo"
				Note Time="72" Value="C#4" Duration="7" Instrument="BM Echo"
				Note Time="79" Value="B3" Duration="7" Instrument="BM Echo"
				Note Time="86" Value="C#4" Duration="7" Instrument="BM Echo"
				Note Time="93" Value="B3" Duration="7" Instrument="BM Echo"
				Note Time="100" Value="A#3" Duration="7" Instrument="BM Echo"
				Note Time="107" Value="G#3" Duration="7" Instrument="BM Echo"
			Pattern Name="Pattern 15"
				Note Time="2" Value="A#3" Duration="7" Instrument="BM Echo"
				Note Time="9" Value="B3" Duration="14" Instrument="BM Echo"
				Note Time="23" Value="F#3" Duration="7" Instrument="BM Echo"
				Note Time="30" Value="C#4" Duration="14" Instrument="BM Echo"
				Note Time="44" Value="F#3" Duration="7" Instrument="BM Echo"
				Note Time="51" Value="D4" Duration="14" Instrument="BM Echo"
				Note Time="65" Value="F#3" Duration="7" Instrument="BM Echo"
				Note Time="72" Value="E4" Duration="7" Instrument="BM Echo"
				Note Time="79" Value="D4" Duration="7" Instrument="BM Echo"
				Note Time="86" Value="E4" Duration="7" Instrument="BM Echo"
				Note Time="93" Value="F#4" Duration="28" Instrument="BM Echo"
			Pattern Name="Pattern 16"
				Note Time="9" Value="B3" Duration="14" Instrument="BM Echo"
				Note Time="23" Value="G3" Duration="7" Instrument="BM Echo"
				Note Time="30" Value="C#4" Duration="14" Instrument="BM Echo"
				Note Time="44" Value="G3" Duration="7" Instrument="BM Echo"
				Note Time="51" Value="D4" Duration="14" Instrument="BM Echo"
				Note Time="65" Value="G3" Duration="7" Instrument="BM Echo"
				Note Time="72" Value="E4" Duration="7" Instrument="BM Echo"
				Note Time="79" Value="D4" Duration="7" Instrument="BM Echo"
				Note Time="86" Value="E4" Duration="7" Instrument="BM Echo"
				Note Time="93" Value="F#4" Duration="28" Instrument="BM Echo"
			Pattern Name="Pattern 17"
				Note Time="9" Value="C#4" Duration="14" Instrument="BM Echo"
				Note Time="23" Value="A3" Duration="7" Instrument="BM Echo"
				Note Time="30" Value="D4" Duration="14" Instrument="BM Echo"
				Note Time="44" Value="A3" Duration="7" Instrument="BM Echo"
				Note Time="51" Value="E4" Duration="14" Instrument="BM Echo"
				Note Time="65" Value="A3" Duration="7" Instrument="BM Echo"
				Note Time="72" Value="F#4" Duration="7" Instrument="BM Echo"
				Note Time="79" Value="E4" Duration="7" Instrument="BM Echo"
				Note Time="86" Value="F#4" Duration="7" Instrument="BM Echo"
				Note Time="93" Value="G4" Duration="7" Instrument="BM Echo"
				Note Time="100" Value="F#4" Duration="7" Instrument="BM Echo"
				Note Time="107" Value="E4" Duration="5" Instrument="BM Echo"
			Pattern Name="Pattern 18"
				Note Time="0" Value="C#4" Duration="21" Instrument="BM Echo"
				Note Time="21" Value="D4" Duration="21" Instrument="BM Echo"
				Note Time="42" Value="C#4" Duration="37" Instrument="BM Echo"
				Note Time="79" Value="D4" Duration="7" Instrument="BM Echo"
				Note Time="86" Value="E4" Duration="7" Instrument="BM Echo"
				Note Time="93" Value="F#4" Duration="7" Instrument="BM Echo"
				Note Time="100" Value="E4" Duration="7" Instrument="BM Echo"
				Note Time="107" Value="D4" Duration="7" Instrument="BM Echo"
			Pattern Name="Pattern 19"
				Note Time="2" Value="C#4" Duration="7" Instrument="BM Echo"
				Note Time="9" Value="B3" Duration="14" Instrument="BM Echo"
				Note Time="23" Value="F#3" Duration="7" Instrument="BM Echo"
				Note Time="30" Value="C#4" Duration="14" Instrument="BM Echo"
				Note Time="44" Value="F#3" Duration="7" Instrument="BM Echo"
				Note Time="51" Value="D4" Duration="14" Instrument="BM Echo"
				Note Time="65" Value="F#3" Duration="7" Instrument="BM Echo"
				Note Time="72" Value="E4" Duration="7" Instrument="BM Echo"
				Note Time="79" Value="D4" Duration="7" Instrument="BM Echo"
				Note Time="86" Value="E4" Duration="7" Instrument="BM Echo"
				Note Time="93" Value="F#4" Duration="28" Instrument="BM Echo"
			Pattern Name="Pattern 20"
				Note Time="9" Value="B3" Duration="14" Instrument="BM Echo"
				Note Time="23" Value="G3" Duration="7" Instrument="BM Echo"
				Note Time="30" Value="C#4" Duration="14" Instrument="BM Echo"
				Note Time="44" Value="G3" Duration="7" Instrument="BM Echo"
				Note Time="51" Value="D4" Duration="14" Instrument="BM Echo"
				Note Time="65" Value="G3" Duration="7" Instrument="BM Echo"
				Note Time="72" Value="E4" Duration="7" Instrument="BM Echo"
				Note Time="79" Value="D4" Duration="7" Instrument="BM Echo"
				Note Time="86" Value="E4" Duration="7" Instrument="BM Echo"
				Note Time="93" Value="F#4" Duration="28" Instrument="BM Echo"
			Pattern Name="Pattern 21"
				Note Time="9" Value="E4" Duration="14" Instrument="BM Echo"
				Note Time="23" Value="A3" Duration="7" Instrument="BM Echo"
				Note Time="30" Value="F#4" Duration="14" Instrument="BM Echo"
				Note Time="44" Value="A3" Duration="7" Instrument="BM Echo"
				Note Time="51" Value="G4" Duration="14" Instrument="BM Echo"
				Note Time="65" Value="A3" Duration="7" Instrument="BM Echo"
				Note Time="72" Value="A4" Duration="7" Instrument="BM Echo"
				Note Time="79" Value="G4" Duration="7" Instrument="BM Echo"
				Note Time="86" Value="A4" Duration="7" Instrument="BM Echo"
				Note Time="93" Value="F#4" Duration="7" Instrument="BM Echo"
				Note Time="100" Value="G4" Duration="7" Instrument="BM Echo"
				Note Time="107" Value="E4" Duration="5" Instrument="BM Echo"
			Pattern Name="Pattern 22"
				Note Time="0" Value="A3" Duration="56" Instrument="BM Echo"
				Note Time="56" Value="A#3" Duration="56" Instrument="BM Echo"
			Pattern Name="Pattern 23"
				Note Time="0" Value="B3" Duration="224" Instrument="BM Echo"
			PatternInstance Time="2" Pattern="Stop"
			PatternInstance Time="4" Pattern="Pattern 1"
			PatternInstance Time="5" Pattern="Pattern 2"
			PatternInstance Time="6" Pattern="Pattern 3"
			PatternInstance Time="7" Pattern="Pattern 4"
			PatternInstance Time="8" Pattern="Pattern 5"
			PatternInstance Time="9" Pattern="Pattern 6"
			PatternInstance Time="10" Pattern="Pattern 7"
			PatternInstance Time="11" Pattern="Pattern 8"
			PatternInstance Time="12" Pattern="Pattern 9"
			PatternInstance Time="13" Pattern="Pattern 2"
			PatternInstance Time="14" Pattern="Pattern 3"
			PatternInstance Time="15" Pattern="Pattern 4"
			PatternInstance Time="16" Pattern="Pattern 5"
			PatternInstance Time="17" Pattern="Pattern 6"
			PatternInstance Time="18" Pattern="Pattern 7"
			PatternInstance Time="19" Pattern="Pattern 10"
			PatternInstance Time="20" Pattern="Pattern 11"
			PatternInstance Time="21" Pattern="Pattern 12"
			PatternInstance Time="22" Pattern="Pattern 13"
			PatternInstance Time="23" Pattern="Pattern 14"
			PatternInstance Time="24" Pattern="Pattern 15"
			PatternInstance Time="25" Pattern="Pattern 16"
			PatternInstance Time="26" Pattern="Pattern 17"
			PatternInstance Time="27" Pattern="Pattern 18"
			PatternInstance Time="28" Pattern="Pattern 19"
			PatternInstance Time="29" Pattern="Pattern 20"
			PatternInstance Time="30" Pattern="Pattern 21"
			PatternInstance Time="31" Pattern="Pattern 22"
			PatternInstance Time="32" Pattern="Pattern 23"
		Channel Type="Triangle"
			Pattern Name="Pattern 1"
				Note Time="0" Value="B2" Duration="4" Instrument="BM TriPitch1"
				Note Time="7" Value="B2" Duration="4" Instrument="BM TriPitch1"
				Note Time="14" Value="D3" Duration="4" Instrument="BM TriPitch1"
				Note Time="21" Value="B2" Duration="4" Instrument="BM TriPitch1"
				Note Time="28" Value="E3" Duration="4" Instrument="BM TriPitch1"
				Note Time="35" Value="A2" Duration="4" Instrument="BM TriPitch1"
				Note Time="42" Value="D3" Duration="4" Instrument="BM TriPitch1"
				Note Time="49" Value="B2" Duration="4" Instrument="BM TriPitch1"
				Note Time="56" Value="B2" Duration="4" Instrument="BM TriPitch1"
				Note Time="63" Value="B2" Duration="4" Instrument="BM TriPitch1"
				Note Time="70" Value="D3" Duration="4" Instrument="BM TriPitch1"
				Note Time="77" Value="B2" Duration="4" Instrument="BM TriPitch1"
				Note Time="84" Value="E3" Duration="4" Instrument="BM TriPitch1"
				Note Time="91" Value="A2" Duration="4" Instrument="BM TriPitch1"
				Note Time="98" Value="D3" Duration="4" Instrument="BM TriPitch1"
				Note Time="105" Value="B2" Duration="4" Instrument="BM TriPitch1"
			Pattern Name="Pattern 2"
				Note Time="0" Value="B2" Duration="4" Instrument="BM TriPitch1"
				Note Time="7" Value="B2" Duration="4" Instrument="BM TriPitch1"
				Note Time="14" Value="D3" Duration="4" Instrument="BM TriPitch1"
				Note Time="21" Value="B2" Duration="4" Instrument="BM TriPitch1"
				Note Time="28" Value="E3" Duration="4" Instrument="BM TriPitch1"
				Note Time="35" Value="A2" Duration="4" Instrument="BM TriPitch1"
				Note Time="42" Value="D3" Duration="4" Instrument="BM TriPitch1"
				Note Time="49" Value="B2" Duration="4" Instrument="BM TriPitch1"
				Note Time="56" Value="B2" Duration="4" Instrument="BM TriPitch1"
				Note Time="63" Value="B2" Duration="4" Instrument="BM TriPitch1"
				Note Time="70" Value="D3" Duration="4" Instrument="BM TriPitch1"
				Note Time="77" Value="B2" Duration="4" Instrument="BM TriPitch1"
				Note Time="84" Value="E3" Duration="4" Instrument="BM TriPitch1"
				Note Time="91" Value="A2" Duration="4" Instrument="BM TriPitch1"
				Note Time="98" Value="D3" Duration="4" Instrument="BM TriPitch1"
				Note Time="105" Value="B2" Duration="4" Instrument="BM TriPitch1"
			Pattern Name="Pattern 3"
				Note Time="0" Value="C3" Duration="4" Instrument="BM Tri"
				Note Time="7" Value="C3" Duration="4" Instrument="BM Tri"
				Note Time="14" Value="E3" Duration="4" Instrument="BM TriPitch1"
				Note Time="21" Value="C3" Duration="4" Instrument="BM Tri"
				Note Time="28" Value="G3" Duration="4" Instrument="BM TriPitch1"
				Note Time="35" Value="C3" Duration="4" Instrument="BM Tri"
				Note Time="42" Value="D3" Duration="4" Instrument="BM TriPitch1"
				Note Time="49" Value="C3" Duration="4" Instrument="BM Tri"
				Note Time="56" Value="C3" Duration="4" Instrument="BM Tri"
				Note Time="63" Value="C3" Duration="4" Instrument="BM Tri"
				Note Time="70" Value="E3" Duration="4" Instrument="BM TriPitch1"
				Note Time="77" Value="C3" Duration="4" Instrument="BM Tri"
				Note Time="84" Value="G3" Duration="4" Instrument="BM TriPitch1"
				Note Time="91" Value="C3" Duration="4" Instrument="BM Tri"
				Note Time="98" Value="D3" Duration="4" Instrument="BM TriPitch1"
				Note Time="105" Value="C3" Duration="4" Instrument="BM Tri"
			Pattern Name="Pattern 4"
				Note Time="0" Value="C3" Duration="4" Instrument="BM Tri"
				Note Time="7" Value="C3" Duration="4" Instrument="BM Tri"
				Note Time="14" Value="E3" Duration="4" Instrument="BM TriPitch1"
				Note Time="21" Value="C3" Duration="4" Instrument="BM Tri"
				Note Time="28" Value="G3" Duration="4" Instrument="BM TriPitch1"
				Note Time="35" Value="C3" Duration="4" Instrument="BM Tri"
				Note Time="42" Value="D3" Duration="4" Instrument="BM TriPitch1"
				Note Time="49" Value="C3" Duration="4" Instrument="BM Tri"
				Note Time="56" Value="C3" Duration="4" Instrument="BM Tri"
				Note Time="63" Value="C3" Duration="4" Instrument="BM Tri"
				Note Time="70" Value="E3" Duration="4" Instrument="BM TriPitch1"
				Note Time="77" Value="C3" Duration="4" Instrument="BM Tri"
				Note Time="84" Value="G3" Duration="4" Instrument="BM TriPitch1"
				Note Time="91" Value="C3" Duration="4" Instrument="BM Tri"
				Note Time="98" Value="D3" Duration="4" Instrument="BM TriPitch1"
				Note Time="105" Value="C3" Duration="4" Instrument="BM Tri"
			Pattern Name="Pattern 5"
				Note Time="0" Value="F#2" Duration="4" Instrument="BM Tri"
				Note Time="7" Value="F#2" Duration="4" Instrument="BM Tri"
				Note Time="14" Value="C#3" Duration="4" Instrument="BM Tri"
				Note Time="21" Value="F#2" Duration="4" Instrument="BM Tri"
				Note Time="28" Value="E3" Duration="4" Instrument="BM TriPitch1"
				Note Time="35" Value="F#2" Duration="4" Instrument="BM Tri"
				Note Time="42" Value="F#3" Duration="4" Instrument="BM TriPitch1"
				Note Time="49" Value="F#2" Duration="4" Instrument="BM Tri"
				Note Time="56" Value="F#2" Duration="4" Instrument="BM Tri"
				Note Time="63" Value="F#2" Duration="4" Instrument="BM Tri"
				Note Time="70" Value="C#3" Duration="4" Instrument="BM Tri"
				Note Time="77" Value="F#2" Duration="4" Instrument="BM Tri"
				Note Time="84" Value="E3" Duration="4" Instrument="BM TriPitch1"
				Note Time="91" Value="F#2" Duration="4" Instrument="BM Tri"
				Note Time="98" Value="F#3" Duration="4" Instrument="BM TriPitch1"
				Note Time="105" Value="F#2" Duration="4" Instrument="BM Tri"
			Pattern Name="Pattern 6"
				Note Time="0" Value="F#2" Duration="4" Instrument="BM Tri"
				Note Time="7" Value="F#2" Duration="4" Instrument="BM Tri"
				Note Time="14" Value="C#3" Duration="4" Instrument="BM Tri"
				Note Time="21" Value="F#2" Duration="4" Instrument="BM Tri"
				Note Time="28" Value="E3" Duration="4" Instrument="BM TriPitch1"
				Note Time="35" Value="F#2" Duration="4" Instrument="BM Tri"
				Note Time="42" Value="F#3" Duration="4" Instrument="BM TriPitch1"
				Note Time="49" Value="F#2" Duration="4" Instrument="BM Tri"
				Note Time="56" Value="F#2" Duration="4" Instrument="BM Tri"
				Note Time="63" Value="G3" Duration="4" Instrument="BM TriPitch1"
				Note Time="70" Value="F#3" Duration="4" Instrument="BM TriPitch1"
				Note Time="77" Value="E3" Duration="4" Instrument="BM TriPitch1"
				Note Time="84" Value="F#3" Duration="4" Instrument="BM TriPitch1"
				Note Time="91" Value="E3" Duration="4" Instrument="BM TriPitch1"
				Note Time="98" Value="D3" Duration="4" Instrument="BM TriPitch1"
				Note Time="105" Value="C#3" Duration="4" Instrument="BM Tri"
			Pattern Name="Pattern 7"
				Note Time="0" Value="F#2" Duration="4" Instrument="BM Tri"
				Note Time="7" Value="F#2" Duration="4" Instrument="BM Tri"
				Note Time="14" Value="C#3" Duration="4" Instrument="BM Tri"
				Note Time="21" Value="F#2" Duration="4" Instrument="BM Tri"
				Note Time="28" Value="E3" Duration="4" Instrument="BM TriPitch1"
				Note Time="35" Value="F#2" Duration="4" Instrument="BM Tri"
				Note Time="42" Value="F#3" Duration="4" Instrument="BM TriPitch1"
				Note Time="49" Value="F#2" Duration="4" Instrument="BM Tri"
				Note Time="56" Value="F#2" Duration="4" Instrument="BM Tri"
				Note Time="63" Value="F#3" Duration="4" Instrument="BM TriPitch1"
				Note Time="70" Value="E3" Duration="4" Instrument="BM TriPitch1"
				Note Time="77" Value="F#3" Duration="4" Instrument="BM TriPitch1"
				Note Time="84" Value="D3" Duration="4" Instrument="BM TriPitch1"
				Note Time="91" Value="E3" Duration="4" Instrument="BM TriPitch1"
				Note Time="98" Value="C#3" Duration="4" Instrument="BM Tri"
				Note Time="105" Value="D3" Duration="4" Instrument="BM TriPitch1"
			Pattern Name="Pattern 8"
				Note Time="0" Value="B2" Duration="4" Instrument="BM TriPitch1"
				Note Time="7" Value="B2" Duration="4" Instrument="BM TriPitch1"
				Note Time="14" Value="F#3" Duration="4" Instrument="BM TriPitch1"
				Note Time="21" Value="B2" Duration="4" Instrument="BM TriPitch1"
				Note Time="28" Value="G3" Duration="4" Instrument="BM TriPitch1"
				Note Time="35" Value="F#3" Duration="4" Instrument="BM TriPitch1"
				Note Time="42" Value="D3" Duration="4" Instrument="BM TriPitch1"
				Note Time="49" Value="F#2" Duration="4" Instrument="BM Tri"
				Note Time="56" Value="B2" Duration="4" Instrument="BM TriPitch1"
				Note Time="63" Value="B2" Duration="4" Instrument="BM Tri"
				Note Time="70" Value="F#3" Duration="4" Instrument="BM Tri"
				Note Time="77" Value="B2" Duration="4" Instrument="BM Tri"
				Note Time="84" Value="G3" Duration="4" Instrument="BM Tri"
				Note Time="91" Value="F#3" Duration="4" Instrument="BM Tri"
				Note Time="98" Value="D3" Duration="4" Instrument="BM Tri"
				Note Time="105" Value="F#2" Duration="4" Instrument="BM Tri"
			Pattern Name="Pattern 9"
				Note Time="0" Value="A2" Duration="4" Instrument="BM TriPitch1"
				Note Time="7" Value="A2" Duration="4" Instrument="BM TriPitch1"
				Note Time="14" Value="E3" Duration="4" Instrument="BM TriPitch1"
				Note Time="21" Value="A2" Duration="4" Instrument="BM TriPitch1"
				Note Time="28" Value="F#3" Duration="4" Instrument="BM TriPitch1"
				Note Time="35" Value="E3" Duration="4" Instrument="BM TriPitch1"
				Note Time="42" Value="C#3" Duration="4" Instrument="BM Tri"
				Note Time="49" Value="E2" Duration="4" Instrument="BM Tri"
				Note Time="56" Value="A2" Duration="4" Instrument="BM TriPitch1"
				Note Time="63" Value="A2" Duration="4" Instrument="BM TriPitch1"
				Note Time="70" Value="E3" Duration="4" Instrument="BM TriPitch1"
				Note Time="77" Value="A2" Duration="4" Instrument="BM TriPitch1"
				Note Time="84" Value="F#3" Duration="4" Instrument="BM TriPitch1"
				Note Time="91" Value="E3" Duration="4" Instrument="BM TriPitch1"
				Note Time="98" Value="C#3" Duration="4" Instrument="BM Tri"
				Note Time="105" Value="E2" Duration="4" Instrument="BM Tri"
			Pattern Name="Pattern 10"
				Note Time="0" Value="G2" Duration="4" Instrument="BM Tri"
				Note Time="7" Value="G2" Duration="4" Instrument="BM Tri"
				Note Time="14" Value="D3" Duration="4" Instrument="BM TriPitch1"
				Note Time="21" Value="G2" Duration="4" Instrument="BM Tri"
				Note Time="28" Value="E3" Duration="4" Instrument="BM TriPitch1"
				Note Time="35" Value="D3" Duration="4" Instrument="BM Tri"
				Note Time="42" Value="B2" Duration="4" Instrument="BM Tri"
				Note Time="49" Value="D2" Duration="4" Instrument="BM Tri"
				Note Time="56" Value="G2" Duration="4" Instrument="BM Tri"
				Note Time="63" Value="G2" Duration="4" Instrument="BM Tri"
				Note Time="70" Value="D3" Duration="4" Instrument="BM TriPitch1"
				Note Time="77" Value="G2" Duration="4" Instrument="BM Tri"
				Note Time="84" Value="E3" Duration="4" Instrument="BM TriPitch1"
				Note Time="91" Value="D3" Duration="4" Instrument="BM Tri"
				Note Time="98" Value="B2" Duration="4" Instrument="BM Tri"
				Note Time="105" Value="D2" Duration="4" Instrument="BM Tri"
			Pattern Name="Pattern 11"
				Note Time="0" Value="F#2" Duration="4" Instrument="BM Tri"
				Note Time="7" Value="F#2" Duration="4" Instrument="BM Tri"
				Note Time="14" Value="C#3" Duration="4" Instrument="BM Tri"
				Note Time="21" Value="F#2" Duration="4" Instrument="BM Tri"
				Note Time="28" Value="E3" Duration="4" Instrument="BM TriPitch1"
				Note Time="35" Value="F#2" Duration="4" Instrument="BM Tri"
				Note Time="42" Value="F#3" Duration="4" Instrument="BM TriPitch1"
				Note Time="49" Value="F#2" Duration="4" Instrument="BM Tri"
				Note Time="56" Value="F#2" Duration="4" Instrument="BM Tri"
				Note Time="63" Value="F#3" Duration="4" Instrument="BM TriPitch1"
				Note Time="70" Value="F#2" Duration="4" Instrument="BM Tri"
				Note Time="77" Value="F#2" Duration="4" Instrument="BM Tri"
				Note Time="84" Value="F#3" Duration="4" Instrument="BM TriPitch1"
				Note Time="91" Value="F#2" Duration="4" Instrument="BM Tri"
				Note Time="98" Value="F#3" Duration="4" Instrument="BM TriPitch1"
				Note Time="105" Value="F#2" Duration="4" Instrument="BM Tri"
			Pattern Name="Pattern 12"
				Note Time="0" Value="B2" Duration="4" Instrument="BM TriPitch1"
				Note Time="7" Value="B2" Duration="4" Instrument="BM TriPitch1"
				Note Time="14" Value="D3" Duration="4" Instrument="BM TriPitch1"
				Note Time="21" Value="B2" Duration="4" Instrument="BM TriPitch1"
				Note Time="28" Value="E3" Duration="4" Instrument="BM TriPitch1"
				Note Time="35" Value="B2" Duration="4" Instrument="BM TriPitch1"
				Note Time="42" Value="F#3" Duration="4" Instrument="BM TriPitch1"
				Note Time="49" Value="B2" Duration="4" Instrument="BM TriPitch1"
				Note Time="56" Value="B2" Duration="4" Instrument="BM TriPitch1"
				Note Time="63" Value="B2" Duration="4" Instrument="BM TriPitch1"
				Note Time="70" Value="D3" Duration="4" Instrument="BM TriPitch1"
				Note Time="77" Value="B2" Duration="4" Instrument="BM TriPitch1"
				Note Time="84" Value="E3" Duration="4" Instrument="BM TriPitch1"
				Note Time="91" Value="B2" Duration="4" Instrument="BM TriPitch1"
				Note Time="98" Value="F#3" Duration="4" Instrument="BM TriPitch1"
				Note Time="105" Value="B2" Duration="4" Instrument="BM TriPitch1"
			Pattern Name="Pattern 13"
				Note Time="0" Value="G2" Duration="4" Instrument="BM Tri"
				Note Time="7" Value="G2" Duration="4" Instrument="BM Tri"
				Note Time="14" Value="B2" Duration="4" Instrument="BM TriPitch1"
				Note Time="21" Value="G2" Duration="4" Instrument="BM Tri"
				Note Time="28" Value="C#3" Duration="4" Instrument="BM Tri"
				Note Time="35" Value="G2" Duration="4" Instrument="BM Tri"
				Note Time="42" Value="D3" Duration="4" Instrument="BM TriPitch1"
				Note Time="49" Value="G2" Duration="4" Instrument="BM Tri"
				Note Time="56" Value="G2" Duration="4" Instrument="BM Tri"
				Note Time="63" Value="G2" Duration="4" Instrument="BM Tri"
				Note Time="70" Value="B2" Duration="4" Instrument="BM TriPitch1"
				Note Time="77" Value="G2" Duration="4" Instrument="BM Tri"
				Note Time="84" Value="C#3" Duration="4" Instrument="BM Tri"
				Note Time="91" Value="G2" Duration="4" Instrument="BM Tri"
				Note Time="98" Value="D3" Duration="4" Instrument="BM TriPitch1"
				Note Time="105" Value="G2" Duration="4" Instrument="BM Tri"
			Pattern Name="Pattern 14"
				Note Time="0" Value="A2" Duration="4" Instrument="BM TriPitch1"
				Note Time="7" Value="A2" Duration="4" Instrument="BM Tri"
				Note Time="14" Value="C#3" Duration="4" Instrument="BM Tri"
				Note Time="21" Value="A2" Duration="4" Instrument="BM TriPitch1"
				Note Time="28" Value="D3" Duration="4" Instrument="BM TriPitch1"
				Note Time="35" Value="A2" Duration="4" Instrument="BM TriPitch1"
				Note Time="42" Value="E3" Duration="4" Instrument="BM TriPitch1"
				Note Time="49" Value="A2" Duration="4" Instrument="BM TriPitch1"
				Note Time="56" Value="A2" Duration="4" Instrument="BM TriPitch1"
				Note Time="63" Value="A2" Duration="4" Instrument="BM TriPitch1"
				Note Time="70" Value="C#3" Duration="4" Instrument="BM Tri"
				Note Time="77" Value="A2" Duration="4" Instrument="BM TriPitch1"
				Note Time="84" Value="D3" Duration="4" Instrument="BM TriPitch1"
				Note Time="91" Value="A2" Duration="4" Instrument="BM TriPitch1"
				Note Time="98" Value="E3" Duration="4" Instrument="BM TriPitch1"
				Note Time="105" Value="A2" Duration="4" Instrument="BM TriPitch1"
			Pattern Name="Pattern 15"
				Note Time="0" Value="F#3" Duration="4" Instrument="BM Tri"
				Note Time="7" Value="C#3" Duration="4" Instrument="BM Tri"
				Note Time="14" Value="F#2" Duration="4" Instrument="BM Tri"
				Note Time="21" Value="F#3" Duration="4" Instrument="BM TriPitch1"
				Note Time="28" Value="C#3" Duration="4" Instrument="BM Tri"
				Note Time="35" Value="F#2" Duration="4" Instrument="BM Tri"
				Note Time="42" Value="F#3" Duration="4" Instrument="BM TriPitch1"
				Note Time="49" Value="F#2" Duration="4" Instrument="BM Tri"
				Note Time="56" Value="F#2" Duration="4" Instrument="BM Tri"
				Note Time="63" Value="C#3" Duration="4" Instrument="BM Tri"
				Note Time="70" Value="D3" Duration="4" Instrument="BM TriPitch1"
				Note Time="77" Value="E3" Duration="4" Instrument="BM Tri"
				Note Time="84" Value="F#3" Duration="4" Instrument="BM Tri"
				Note Time="91" Value="E3" Duration="4" Instrument="BM Tri"
				Note Time="98" Value="D3" Duration="4" Instrument="BM Tri"
				Note Time="105" Value="C#3" Duration="4" Instrument="BM Tri"
			Pattern Name="Pattern 16"
				Note Time="0" Value="D3" Duration="4" Instrument="BM TriPitch1"
				Note Time="7" Value="A2" Duration="4" Instrument="BM TriPitch1"
				Note Time="14" Value="D2" Duration="4" Instrument="BM TriPitch1"
				Note Time="21" Value="D3" Duration="4" Instrument="BM TriPitch1"
				Note Time="28" Value="A2" Duration="4" Instrument="BM TriPitch1"
				Note Time="35" Value="D2" Duration="4" Instrument="BM TriPitch1"
				Note Time="42" Value="D3" Duration="4" Instrument="BM TriPitch1"
				Note Time="49" Value="D2" Duration="4" Instrument="BM TriPitch1"
				Note Time="56" Value="F#3" Duration="4" Instrument="BM TriPitch1"
				Note Time="63" Value="C#3" Duration="4" Instrument="BM Tri"
				Note Time="70" Value="F#2" Duration="4" Instrument="BM Tri"
				Note Time="77" Value="F#3" Duration="4" Instrument="BM TriPitch1"
				Note Time="84" Value="C#3" Duration="4" Instrument="BM Tri"
				Note Time="91" Value="F#2" Duration="4" Instrument="BM Tri"
				Note Time="98" Value="F#3" Duration="4" Instrument="BM TriPitch1"
				Note Time="105" Value="F#2" Duration="4" Instrument="BM Tri"
			PatternInstance Time="0" Pattern="Pattern 1"
			PatternInstance Time="1" Pattern="Pattern 2"
			PatternInstance Time="2" Pattern="Pattern 2"
			PatternInstance Time="3" Pattern="Pattern 2"
			PatternInstance Time="4" Pattern="Pattern 2"
			PatternInstance Time="5" Pattern="Pattern 2"
			PatternInstance Time="6" Pattern="Pattern 2"
			PatternInstance Time="7" Pattern="Pattern 2"
			PatternInstance Time="8" Pattern="Pattern 3"
			PatternInstance Time="9" Pattern="Pattern 4"
			PatternInstance Time="10" Pattern="Pattern 5"
			PatternInstance Time="11" Pattern="Pattern 6"
			PatternInstance Time="12" Pattern="Pattern 1"
			PatternInstance Time="13" Pattern="Pattern 2"
			PatternInstance Time="14" Pattern="Pattern 2"
			PatternInstance Time="15" Pattern="Pattern 2"
			PatternInstance Time="16" Pattern="Pattern 3"
			PatternInstance Time="17" Pattern="Pattern 4"
			PatternInstance Time="18" Pattern="Pattern 5"
			PatternInstance Time="19" Pattern="Pattern 7"
			PatternInstance Time="20" Pattern="Pattern 8"
			PatternInstance Time="21" Pattern="Pattern 9"
			PatternInstance Time="22" Pattern="Pattern 10"
			PatternInstance Time="23" Pattern="Pattern 11"
			PatternInstance Time="24" Pattern="Pattern 12"
			PatternInstance Time="25" Pattern="Pattern 13"
			PatternInstance Time="26" Pattern="Pattern 14"
			PatternInstance Time="27" Pattern="Pattern 15"
			PatternInstance Time="28" Pattern="Pattern 12"
			PatternInstance Time="29" Pattern="Pattern 13"
			PatternInstance Time="30" Pattern="Pattern 14"
			PatternInstance Time="31" Pattern="Pattern 16"
			PatternInstance Time="32" Pattern="Pattern 1"
			PatternInstance Time="33" Pattern="Pattern 2"
		Channel Type="Noise"
			Pattern Name="Pattern 1"
				Note Time="0" Value="F#3" Duration="28" Instrument="BM Maracas"
				Note Time="28" Value="F#3" Duration="28" Instrument="BM Maracas"
				Note Time="56" Value="F#3" Duration="28" Instrument="BM Maracas"
				Note Time="84" Value="F#3" Duration="28" Instrument="BM Maracas"
			Pattern Name="Pattern 2"
				Note Time="0" Value="F#3" Duration="28" Instrument="BM Maracas"
				Note Time="28" Value="F#3" Duration="84" Instrument="BM Maracas"
			Pattern Name="Pattern 3"
				Note Time="0" Value="F#3" Duration="11" Instrument="BM Maracas"
				Note Time="14" Value="G#3" Duration="5" Instrument="BM Maracas"
				Note Time="28" Value="F#3" Duration="11" Instrument="BM Maracas"
				Note Time="42" Value="G#3" Duration="5" Instrument="BM Maracas"
				Note Time="56" Value="F#3" Duration="11" Instrument="BM Maracas"
				Note Time="70" Value="G#3" Duration="5" Instrument="BM Maracas"
				Note Time="84" Value="F#3" Duration="11" Instrument="BM Maracas"
				Note Time="98" Value="G#3" Duration="5" Instrument="BM Maracas"
			Pattern Name="Pattern 4"
				Note Time="0" Value="F#3" Duration="11" Instrument="BM Maracas"
				Note Time="14" Value="G#3" Duration="5" Instrument="BM Maracas"
				Note Time="28" Value="F#3" Duration="11" Instrument="BM Maracas"
				Note Time="42" Value="G#3" Duration="5" Instrument="BM Maracas"
				Note Time="56" Value="G#3" Duration="1" Instrument="BM Snare"
				Note Time="57" Value="G#3" Duration="21" Instrument="BM Snare"
				Note Time="78" Value="G#3" Duration="21" Instrument="BM Snare"
				Note Time="99" Value="G#3" Duration="13" Instrument="BM Snare"
			Pattern Name="Pattern 5"
				Note Time="0" Value="G#3" Duration="1" Instrument="BM Snare"
				Note Time="1" Value="G#3" Duration="21" Instrument="BM Snare"
				Note Time="22" Value="G#3" Duration="21" Instrument="BM Snare"
				Note Time="43" Value="G#3" Duration="13" Instrument="BM Snare"
			PatternInstance Time="0" Pattern="Pattern 1"
			PatternInstance Time="1" Pattern="Pattern 1"
			PatternInstance Time="2" Pattern="Pattern 1"
			PatternInstance Time="3" Pattern="Pattern 2"
			PatternInstance Time="4" Pattern="Pattern 1"
			PatternInstance Time="5" Pattern="Pattern 1"
			PatternInstance Time="6" Pattern="Pattern 1"
			PatternInstance Time="7" Pattern="Pattern 1"
			PatternInstance Time="8" Pattern="Pattern 1"
			PatternInstance Time="9" Pattern="Pattern 1"
			PatternInstance Time="10" Pattern="Pattern 1"
			PatternInstance Time="11" Pattern="Pattern 2"
			PatternInstance Time="12" Pattern="Pattern 1"
			PatternInstance Time="13" Pattern="Pattern 1"
			PatternInstance Time="14" Pattern="Pattern 1"
			PatternInstance Time="15" Pattern="Pattern 1"
			PatternInstance Time="16" Pattern="Pattern 1"
			PatternInstance Time="17" Pattern="Pattern 1"
			PatternInstance Time="18" Pattern="Pattern 1"
			PatternInstance Time="19" Pattern="Pattern 2"
			PatternInstance Time="20" Pattern="Pattern 3"
			PatternInstance Time="21" Pattern="Pattern 3"
			PatternInstance Time="22" Pattern="Pattern 3"
			PatternInstance Time="23" Pattern="Pattern 4"
			PatternInstance Time="24" Pattern="Pattern 3"
			PatternInstance Time="25" Pattern="Pattern 3"
			PatternInstance Time="26" Pattern="Pattern 3"
			PatternInstance Time="27" Pattern="Pattern 5"
			PatternInstance Time="28" Pattern="Pattern 3"
			PatternInstance Time="29" Pattern="Pattern 3"
			PatternInstance Time="30" Pattern="Pattern 3"
			PatternInstance Time="31" Pattern="Pattern 5"
			PatternInstance Time="32" Pattern="Pattern 1"
			PatternInstance Time="33" Pattern="Pattern 1"
		Channel Type="DPCM"
			Pattern Name="Pattern 1"
				Note Time="0" Value="C1" Duration="56"
				Note Time="56" Value="C1" Duration="56"
			Pattern Name="Pattern 2"
				Note Time="0" Value="C1" Duration="56"
				Note Time="56" Value="C1" Duration="7"
				Note Time="63" Value="C#1" Duration="7"
				Note Time="70" Value="C#1" Duration="7"
				Note Time="77" Value="C#1" Duration="7"
				Note Time="84" Value="C#1" Duration="7"
				Note Time="91" Value="C1" Duration="7"
				Note Time="98" Value="C#1" Duration="7"
				Note Time="105" Value="C1" Duration="7"
			Pattern Name="Pattern 3"
				Note Time="0" Value="C1" Duration="14"
				Note Time="14" Value="C#1" Duration="14"
				Note Time="28" Value="C1" Duration="7"
				Note Time="35" Value="C1" Duration="7"
				Note Time="42" Value="C#1" Duration="14"
				Note Time="56" Value="C1" Duration="7"
				Note Time="63" Value="C1" Duration="7"
				Note Time="70" Value="C#1" Duration="7"
				Note Time="77" Value="C1" Duration="14"
				Note Time="91" Value="C1" Duration="7"
				Note Time="98" Value="C#1" Duration="14"
			Pattern Name="Pattern 4"
				Note Time="0" Value="C1" Duration="14"
				Note Time="14" Value="C#1" Duration="7"
				Note Time="21" Value="C1" Duration="7"
				Note Time="28" Value="C1" Duration="7"
				Note Time="35" Value="C1" Duration="7"
				Note Time="42" Value="C#1" Duration="7"
				Note Time="49" Value="C1" Duration="7"
				Note Time="56" Value="C1" Duration="4"
				Note Time="60" Value="D1" Duration="5"
				Note Time="65" Value="D1" Duration="5"
				Note Time="70" Value="D1" Duration="7"
				Note Time="77" Value="D1" Duration="7"
				Note Time="84" Value="D#1" Duration="7"
				Note Time="91" Value="D#1" Duration="7"
				Note Time="98" Value="E1" Duration="7"
				Note Time="105" Value="E1" Duration="7"
			Pattern Name="Pattern 5"
				Note Time="0" Value="C1" Duration="7"
				Note Time="7" Value="C1" Duration="7"
				Note Time="14" Value="C#1" Duration="14"
				Note Time="28" Value="C1" Duration="7"
				Note Time="35" Value="C1" Duration="7"
				Note Time="42" Value="C#1" Duration="7"
				Note Time="49" Value="C1" Duration="14"
				Note Time="63" Value="C1" Duration="7"
				Note Time="70" Value="C#1" Duration="7"
				Note Time="77" Value="C1" Duration="7"
				Note Time="84" Value="C1" Duration="7"
				Note Time="91" Value="C1" Duration="7"
				Note Time="98" Value="C#1" Duration="14"
			Pattern Name="Pattern 6"
				Note Time="0" Value="C1" Duration="7"
				Note Time="7" Value="C1" Duration="7"
				Note Time="14" Value="C#1" Duration="14"
				Note Time="28" Value="C1" Duration="7"
				Note Time="35" Value="C1" Duration="7"
				Note Time="42" Value="C#1" Duration="7"
				Note Time="49" Value="C1" Duration="7"
				Note Time="56" Value="C#1" Duration="7"
				Note Time="63" Value="C1" Duration="7"
				Note Time="70" Value="C1" Duration="7"
				Note Time="77" Value="C#1" Duration="7"
				Note Time="84" Value="C1" Duration="7"
				Note Time="91" Value="C1" Duration="7"
				Note Time="98" Value="C#1" Duration="7"
				Note Time="105" Value="C1" Duration="7"
			Pattern Name="Pattern 7"
				Note Time="0" Value="C1" Duration="7"
				Note Time="7" Value="C1" Duration="7"
				Note Time="14" Value="C#1" Duration="14"
				Note Time="28" Value="C1" Duration="7"
				Note Time="35" Value="C1" Duration="7"
				Note Time="42" Value="C#1" Duration="7"
				Note Time="49" Value="C1" Duration="14"
				Note Time="63" Value="C1" Duration="7"
				Note Time="70" Value="C#1" Duration="7"
				Note Time="77" Value="C1" Duration="7"
				Note Time="84" Value="C1" Duration="7"
				Note Time="91" Value="C#1" Duration="7"
				Note Time="98" Value="C#1" Duration="7"
				Note Time="105" Value="C1" Duration="7"
			Pattern Name="Pattern 8"
				Note Time="0" Value="C#1" Duration="7"
				Note Time="7" Value="D#1" Duration="7"
				Note Time="14" Value="E1" Duration="7"
				Note Time="21" Value="C#1" Duration="7"
				Note Time="28" Value="D#1" Duration="7"
				Note Time="35" Value="E1" Duration="7"
				Note Time="42" Value="C#1" Duration="7"
				Note Time="49" Value="E1" Duration="7"
				Note Time="56" Value="C#1" Duration="4"
				Note Time="60" Value="C#1" Duration="5"
				Note Time="65" Value="C#1" Duration="5"
				Note Time="70" Value="D1" Duration="7"
				Note Time="77" Value="D1" Duration="7"
				Note Time="84" Value="D#1" Duration="7"
				Note Time="91" Value="D#1" Duration="7"
				Note Time="98" Value="E1" Duration="7"
				Note Time="105" Value="E1" Duration="7"
			Pattern Name="Pattern 9"
				Note Time="0" Value="C1" Duration="4"
				Note Time="4" Value="D1" Duration="5"
				Note Time="9" Value="D1" Duration="5"
				Note Time="14" Value="D1" Duration="7"
				Note Time="21" Value="D1" Duration="7"
				Note Time="28" Value="D#1" Duration="7"
				Note Time="35" Value="D#1" Duration="7"
				Note Time="42" Value="E1" Duration="7"
				Note Time="49" Value="E1" Duration="7"
				Note Time="56" Value="C1" Duration="7"
				Note Time="63" Value="D1" Duration="7"
				Note Time="70" Value="D1" Duration="7"
				Note Time="77" Value="D1" Duration="7"
				Note Time="84" Value="D1" Duration="7"
				Note Time="91" Value="D1" Duration="7"
				Note Time="98" Value="D#1" Duration="14"
			PatternInstance Time="0" Pattern="Pattern 1"
			PatternInstance Time="1" Pattern="Pattern 1"
			PatternInstance Time="2" Pattern="Pattern 1"
			PatternInstance Time="3" Pattern="Pattern 2"
			PatternInstance Time="4" Pattern="Pattern 3"
			PatternInstance Time="5" Pattern="Pattern 3"
			PatternInstance Time="6" Pattern="Pattern 3"
			PatternInstance Time="7" Pattern="Pattern 3"
			PatternInstance Time="8" Pattern="Pattern 3"
			PatternInstance Time="9" Pattern="Pattern 3"
			PatternInstance Time="10" Pattern="Pattern 3"
			PatternInstance Time="11" Pattern="Pattern 4"
			PatternInstance Time="12" Pattern="Pattern 3"
			PatternInstance Time="13" Pattern="Pattern 3"
			PatternInstance Time="14" Pattern="Pattern 3"
			PatternInstance Time="15" Pattern="Pattern 3"
			PatternInstance Time="16" Pattern="Pattern 3"
			PatternInstance Time="17" Pattern="Pattern 3"
			PatternInstance Time="18" Pattern="Pattern 3"
			PatternInstance Time="19" Pattern="Pattern 4"
			PatternInstance Time="20" Pattern="Pattern 5"
			PatternInstance Time="21" Pattern="Pattern 5"
			PatternInstance Time="22" Pattern="Pattern 5"
			PatternInstance Time="23" Pattern="Pattern 6"
			PatternInstance Time="24" Pattern="Pattern 7"
			PatternInstance Time="25" Pattern="Pattern 7"
			PatternInstance Time="26" Pattern="Pattern 7"
			PatternInstance Time="27" Pattern="Pattern 8"
			PatternInstance Time="28" Pattern="Pattern 7"
			PatternInstance Time="29" Pattern="Pattern 7"
			PatternInstance Time="30" Pattern="Pattern 7"
			PatternInstance Time="31" Pattern="Pattern 8"
			PatternInstance Time="32" Pattern="Pattern 1"
			PatternInstance Time="33" Pattern="Pattern 9"
